<svg xmlns="http://www.w3.org/2000/svg" width="159" height="155" viewBox="0 0 159 155" fill="none">
  <path
    d="M158.846 109.002C158.846 103.513 156.831 98.7378 153.3 95.9215C153.014 95.6928 152.699 95.4926 152.399 95.2925C153.585 92.2332 157.074 80.2818 143.578 72.4763C141.834 67.3012 138.403 63.3413 133.6 61.011C127.553 58.0804 120.062 58.1376 115.344 59.6815C112.885 57.48 109.754 55.9074 106.266 55.2784C100.047 54.1776 94.4864 56.3792 91.1411 61.2112C87.5243 58.6093 82.7352 57.3084 77.1026 57.5657C68.4393 57.9374 58.8754 62.4406 57.3171 68.6879C52.9855 69.0882 48.1964 70.9895 44.4938 74.0488C38.7611 78.7665 36.4881 85.2282 38.0177 92.2475C32.9999 96.3504 30.6983 102.926 30.7554 109.417C30.8412 117.766 34.6582 124.242 39.9191 125.5C39.5474 126.2 39.2186 126.915 38.947 127.658C36.4595 134.435 38.7039 141.497 44.9083 146.543C48.5109 149.459 52.8139 150.689 56.8025 150.689C58.5323 150.689 60.1763 150.432 61.6917 150.017C64.751 152.662 71.47 154.535 78.2606 154.535C81.4342 154.535 84.6222 154.12 87.4528 153.191C91.8559 151.747 94.8866 149.259 96.4592 145.914C98.1604 149.216 100.534 151.647 103.579 153.148C105.852 154.277 108.482 154.835 111.284 154.835C114.043 154.835 116.959 154.291 119.833 153.191C122.621 152.133 124.808 150.417 126.223 148.302C128.153 149.045 131.012 149.602 134.186 149.602C136.688 149.602 139.361 149.245 141.906 148.359C146.309 146.8 149.625 143.813 151.498 139.71C153.771 134.72 153.428 130.003 150.54 126.415C150.312 126.129 150.04 125.886 149.797 125.628C150.812 125.328 151.798 124.842 152.713 124.142C156.416 121.268 158.832 115.321 158.846 109.002ZM86.5379 150.475C79.0754 152.919 69.2542 151.289 64.8368 148.759C68.0819 146.958 69.8117 144.199 69.5544 141.125C69.4972 140.339 68.811 139.753 68.0104 139.81C67.2242 139.867 66.638 140.567 66.6952 141.354C66.9097 144.027 64.6509 145.642 63.2642 146.357C62.7496 146.629 62.192 146.872 61.6059 147.072C61.5916 147.072 61.5916 147.072 61.5773 147.086C57.3171 148.545 51.3129 148.101 46.6667 144.327C41.363 140.024 39.5045 134.306 41.5774 128.645C43.5502 123.269 48.5395 119.424 53.5001 119.424C53.5716 119.424 53.6574 119.424 53.7146 119.424C54.4866 119.424 55.1299 118.795 55.1442 118.023C55.1585 117.237 54.5294 116.579 53.7432 116.565C49.2114 116.479 44.651 118.966 41.5774 122.855C36.631 122.726 33.6289 115.95 33.5574 109.374C33.5145 101.011 37.8462 91.1467 50.3265 90.9037C51.1127 90.8894 51.7417 90.2318 51.7275 89.4455C51.7132 88.6592 51.0698 88.0445 50.2979 88.0445C50.2836 88.0445 50.2836 88.0445 50.2693 88.0445C46.438 88.116 43.2214 89.0309 40.5624 90.5177C39.433 83.1696 43.5788 78.4663 46.2664 76.2361C51.2843 72.1046 58.7753 70.2747 62.9354 72.1761C64.6223 72.9481 65.5087 74.2633 65.5515 76.0932C65.5658 76.8651 66.2092 77.4799 66.9811 77.4799C66.9954 77.4799 67.0097 77.4799 67.024 77.4799C67.8103 77.4656 68.4393 76.808 68.4107 76.0074C68.3392 73.0767 66.8096 70.7894 64.122 69.56C62.9926 69.0453 61.6917 68.7451 60.305 68.6307C62.0205 64.4706 69.4257 60.7251 77.1884 60.382C81.9918 60.1819 93.3427 61.0825 95.5157 73.9202C95.5871 74.3062 95.8016 74.6493 96.1304 74.878C96.1876 74.9209 102.02 78.8951 102.235 84.3705C102.363 87.73 100.348 91.0752 96.2448 94.3204C95.8874 94.6063 95.6872 95.0352 95.7015 95.4783C95.7158 95.9215 95.9445 96.3504 96.3162 96.6077C96.3448 96.622 97.6029 97.5226 99.0181 99.0237H92.7851C92.0704 92.176 86.2662 86.8151 79.2184 86.8151C72.1705 86.8151 66.3664 92.176 65.6516 99.0237H46.195C41.463 99.0237 38.9184 102.24 38.9184 105.271C38.9184 106.901 39.6046 108.402 40.834 109.488C42.1492 110.646 44.0077 111.261 46.195 111.261C46.9812 111.261 47.6245 110.618 47.6245 109.831C47.6245 109.045 46.9812 108.402 46.195 108.402C44.7082 108.402 43.5073 108.03 42.7211 107.344C42.1063 106.801 41.7632 106.057 41.7632 105.271C41.7632 103.584 43.2786 101.883 46.1807 101.883H65.6373C66.3521 108.731 72.1562 114.092 79.2041 114.092C86.2519 114.092 92.0561 108.731 92.7709 101.883H101.248C102.178 103.398 102.892 105.171 102.921 107.072C102.992 110.446 100.948 113.72 96.8595 116.822C96.5307 117.079 96.3162 117.465 96.3019 117.88C96.2733 118.295 96.4449 118.709 96.7451 118.995C96.8023 119.052 102.792 124.871 102.149 131.189C101.806 134.606 99.5328 137.651 95.4156 140.224C95.0582 140.453 94.8438 140.811 94.7723 141.211C94.758 141.239 94.7437 141.268 94.7437 141.311C94.3434 145.743 91.57 148.83 86.5379 150.475ZM89.9975 100.482C89.9975 106.429 85.1655 111.261 79.2184 111.261C73.2713 111.261 68.4393 106.429 68.4393 100.482C68.4393 94.5348 73.2713 89.7028 79.2184 89.7028C85.1655 89.7028 89.9975 94.5491 89.9975 100.482ZM150.926 121.868C149.411 123.026 147.738 123.384 145.966 122.926C143.006 121.525 139.475 121.068 136.187 121.783C135.415 121.954 134.929 122.712 135.101 123.484C135.272 124.256 136.03 124.742 136.802 124.57C141.077 123.627 145.794 125.128 148.282 128.202C150.483 130.932 150.698 134.492 148.868 138.509C147.31 141.94 144.636 144.342 140.919 145.657C135.987 147.401 130.398 146.786 127.453 145.714C127.553 145.414 127.653 145.114 127.724 144.785C128.482 141.425 127.41 137.937 124.808 135.221C124.265 134.649 123.35 134.635 122.792 135.178C122.22 135.721 122.206 136.636 122.749 137.194C124.708 139.238 125.494 141.711 124.937 144.141C124.308 146.929 122.077 149.245 118.804 150.489C116.402 151.404 110.255 153.234 104.822 150.56C101.634 148.988 99.3184 146.114 97.9031 142.026C102.206 139.066 104.608 135.535 105.022 131.49C105.623 125.6 101.82 120.396 99.8616 118.137C103.893 114.721 105.894 110.989 105.823 107.029C105.78 105.171 105.28 103.455 104.536 101.911H108.568C109.283 108.759 115.087 114.12 122.135 114.12C129.654 114.12 135.773 108.002 135.773 100.482C135.773 92.9623 129.654 86.8436 122.135 86.8436C115.101 86.8436 109.283 92.2046 108.568 99.0523H102.807C101.649 97.4941 100.376 96.2503 99.4327 95.4354C103.378 91.9187 105.294 88.1589 105.137 84.2561C104.894 78.3376 99.9188 74.1203 98.2748 72.8766C97.5028 68.9023 95.8016 65.6 93.3427 63.0982C96.016 59.0525 100.605 57.1654 105.766 58.0804C110.841 58.981 116.488 62.7551 117.674 69.1597C117.803 69.8459 118.403 70.3319 119.075 70.3319C119.161 70.3319 119.247 70.3176 119.333 70.3033C120.105 70.1604 120.619 69.417 120.476 68.6307C120.019 66.2004 118.989 63.956 117.503 62.0117C121.62 61.0682 127.567 61.2541 132.342 63.57C135.644 65.1711 138.132 67.5871 139.761 70.7465C138.489 70.3462 137.217 70.0889 135.916 70.0031C135.115 69.9459 134.443 70.5464 134.386 71.3326C134.329 72.1189 134.929 72.8051 135.716 72.8623C137.746 73.0053 139.761 73.62 141.691 74.6922C153.628 81.2968 150.898 91.2039 149.826 94.0059C147.138 93.0195 144.021 92.8765 140.619 93.6628C139.847 93.8343 139.375 94.6063 139.547 95.3783C139.718 96.1502 140.49 96.6363 141.262 96.4505C145.38 95.5069 148.911 96.1074 151.498 98.166C154.343 100.439 155.973 104.385 155.973 109.002C155.973 114.377 153.943 119.553 150.926 121.868ZM111.327 100.482C111.327 94.5348 116.159 89.7028 122.106 89.7028C128.053 89.7028 132.885 94.5348 132.885 100.482C132.885 106.429 128.053 111.261 122.106 111.261C116.159 111.261 111.327 106.429 111.327 100.482Z"
    fill="#C7EFAA" />
  <path
    d="M37.31 21.292C36.9925 21.4772 36.6221 21.5716 36.2266 21.5186C35.2705 21.4077 34.5639 20.5435 34.6749 19.5874C34.9208 17.4384 35.804 15.4444 37.2201 13.8083C37.8626 13.0689 38.9648 13.0136 39.6954 13.641C40.4259 14.2684 40.5052 15.3769 39.8626 16.1163C38.9127 17.197 38.3167 18.5372 38.1667 19.9821C38.1087 20.5426 37.7786 21.0187 37.31 21.292Z"
    fill="#C7EFAA" />
  <path
    d="M25.217 28.345C24.7483 28.6183 24.1714 28.6711 23.6549 28.4456C22.3235 27.8647 20.8724 27.7386 19.4729 28.0483C18.513 28.2435 17.596 27.6438 17.3945 26.7078C17.1931 25.7718 17.784 24.8397 18.7351 24.6295C20.8539 24.1636 23.0243 24.3768 25.0397 25.2273C25.9265 25.6015 26.3458 26.6332 25.9565 27.5288C25.7902 27.8689 25.5344 28.1599 25.217 28.345Z"
    fill="#C7EFAA" />
  <path
    d="M44.2063 67.8558C43.647 68.182 42.9416 68.1882 42.3609 67.8178C41.551 67.2975 41.3244 66.2142 41.8598 65.3954C41.8939 65.3148 43.2848 62.8019 40.4284 57.904C39.0884 55.6062 37.3841 55.0807 37.3123 55.0618C36.4003 54.7833 35.86 53.8221 36.1146 52.9038C36.3692 51.9855 37.3064 51.4389 38.2398 51.6847C38.5509 51.7666 41.3889 52.6033 43.4607 56.1559C47.4191 62.9435 45.0769 66.8822 44.7985 67.3079C44.6334 67.546 44.4331 67.7236 44.2063 67.8558Z"
    fill="#C7EFAA" />
  <path
    d="M62.3319 57.2852C62.1052 57.4174 61.852 57.5043 61.5786 57.5219C61.0621 57.5395 56.4807 57.6385 52.5223 50.8509C50.4505 47.2984 51.1285 44.4314 51.2016 44.1052C51.4474 43.1718 52.3998 42.6164 53.3331 42.8621C54.2665 43.1079 54.8131 44.0451 54.5825 44.9697C54.551 45.0894 54.2082 46.829 55.5218 49.0814C58.3782 53.9794 61.2502 54.0061 61.3762 54.0137C62.3247 54.0075 63.1258 54.7558 63.171 55.7019C63.2138 56.3657 62.8761 56.9678 62.3319 57.2852Z"
    fill="#C7EFAA" />
  <path
    d="M53.2682 62.551C52.4367 63.0358 51.3597 62.7523 50.8748 61.9209L45.5852 52.8506C45.1003 52.0191 45.3839 50.9421 46.2153 50.4573C47.0468 49.9724 48.1238 50.2559 48.6086 51.0874L53.8983 60.1576C54.3832 60.9891 54.0996 62.0661 53.2682 62.551Z"
    fill="#C7EFAA" />
  <path
    d="M23.5846 53.3028C23.4637 53.3733 23.3339 53.4287 23.1802 53.4778C19.3368 54.5645 15.2393 52.9227 13.2204 49.4608C11.7834 46.9968 11.6489 44.0566 12.8031 41.5198C12.4366 41.065 12.1179 40.6228 11.8358 40.1391C8.91768 35.1353 10.6127 28.6973 15.6164 25.7792C16.206 25.4353 16.8308 25.152 17.53 24.9266C18.3631 20.4498 21.1198 16.4922 25.0653 14.1912C29.0109 11.8902 33.8128 11.4398 38.1195 12.9191C38.66 12.4216 39.2143 12.0173 39.8038 11.6735C44.8076 8.75538 51.2456 10.4504 54.1637 15.4541C54.4458 15.9379 54.6738 16.433 54.8891 16.9759C57.6743 17.2357 60.167 18.8005 61.5952 21.2495C63.6052 24.6962 63.0316 29.0622 60.2083 31.8634C59.5306 32.5423 58.417 32.5434 57.7293 31.8505C57.0504 31.1727 57.0493 30.0592 57.7422 29.3715C59.4379 27.6938 59.7707 25.0686 58.5629 22.9976C57.5579 21.2742 55.6912 20.2965 53.6845 20.4336C52.8254 20.4889 52.0671 19.9182 51.8644 19.0843C51.702 18.3889 51.4577 17.7616 51.1403 17.2173C49.192 13.8765 44.9079 12.7486 41.567 14.6969C40.9926 15.0319 40.4345 15.4992 39.8865 16.1227C39.3901 16.6958 38.5776 16.8657 37.876 16.5659C34.2458 14.9959 30.2299 15.231 26.8285 17.2146C23.4272 19.1982 21.245 22.5777 20.8239 26.5104C20.7394 27.2687 20.1914 27.8922 19.4481 28.042C18.6356 28.2119 17.9541 28.4676 17.3796 28.8026C14.0388 30.7509 12.9109 35.035 14.8592 38.3759C15.1766 38.9201 15.6023 39.4416 16.1364 39.9405C16.7624 40.5276 16.8857 41.4686 16.4145 42.1891C15.307 43.8681 15.2388 45.9743 16.2438 47.6976C17.4516 49.7687 19.9154 50.7628 22.2258 50.1043C23.1655 49.8399 24.1253 50.3741 24.3897 51.3138C24.6202 52.0911 24.2649 52.906 23.5846 53.3028Z"
    fill="#C7EFAA" />
  <path
    d="M49.626 42.411C47.4492 43.6806 44.96 44.2408 42.4684 44.0327C41.4226 46.3038 39.7092 48.1944 37.5323 49.4639C34.0705 51.4828 29.8393 51.6612 26.1839 49.9438C25.3185 49.5368 24.9294 48.4875 25.3364 47.6221C25.7584 46.748 26.7927 46.3676 27.658 46.7746C30.278 48.0018 33.305 47.8775 35.7691 46.4405C37.6285 45.3561 39.0068 43.6204 39.6747 41.5697C39.9494 40.7207 40.8262 40.2094 41.7004 40.3884C43.8229 40.832 46.0034 40.472 47.8628 39.3876C50.3269 37.9506 51.9257 35.3773 52.1478 32.4926C52.2197 31.5391 53.0663 30.8022 54.0286 30.8893C54.9973 30.9524 55.719 31.8078 55.632 32.7701C55.3267 36.7973 53.0879 40.3922 49.626 42.411Z"
    fill="#C7EFAA" />
  <path
    d="M79.0046 100.294L79.0046 100.294C79.1645 100.454 79.2854 100.73 79.2301 100.991C79.1768 101.243 79.02 101.391 78.8926 101.482C78.8926 101.482 78.8926 101.482 78.8926 101.482L78.8056 101.359L79.0046 100.294ZM79.0046 100.294C78.902 100.192 78.7631 100.134 78.6181 100.134C78.4732 100.134 78.3342 100.192 78.2317 100.294L78.2295 100.296C78.1888 100.339 78.1554 100.387 78.1303 100.44M79.0046 100.294L78.1303 100.44M78.1303 100.44C78.1302 100.439 78.1301 100.439 78.1299 100.438L78.1299 100.438C78.114 100.377 78.1101 100.295 78.1195 100.211C78.129 100.127 78.1505 100.052 78.1757 100.003C78.3079 99.7477 78.5307 99.6084 78.8238 99.5607C79.1185 99.5126 79.4612 99.5825 79.7132 99.7462C80.5054 100.261 80.6001 101.434 80.0325 102.216C79.2623 103.277 77.6723 103.374 76.632 102.569C75.3081 101.544 75.2101 99.5359 76.2583 98.2391C77.5374 96.6566 79.9654 96.5574 81.5179 97.8509C83.3576 99.3837 83.4575 102.232 81.9164 104.039C80.1297 106.134 76.8601 106.235 74.798 104.445C72.4473 102.406 72.3466 98.7161 74.3858 96.4C76.6794 93.7949 80.7908 93.6934 83.3612 95.9822C86.2209 98.5287 86.3223 103.061 83.7825 105.885C83.7344 105.938 83.6974 106.001 83.6734 106.068C83.6494 106.136 83.639 106.208 83.6428 106.28C83.6466 106.352 83.6645 106.422 83.6955 106.487L83.8294 106.423L83.6955 106.487C83.7265 106.552 83.77 106.61 83.8235 106.658L83.8235 106.658C83.9315 106.755 84.0734 106.804 84.2182 106.797C84.363 106.789 84.4987 106.724 84.5956 106.616M84.5956 106.616C84.5956 106.616 84.5956 106.616 84.5956 106.616L84.484 106.516L84.5956 106.616Z"
    fill="#C7EFAA" stroke="#C7EFAA" stroke-width="0.3" stroke-linejoin="round" />
  <path
    d="M121.788 100.294L121.788 100.294C121.948 100.454 122.069 100.73 122.014 100.991C121.96 101.243 121.804 101.391 121.676 101.482C121.676 101.482 121.676 101.482 121.676 101.482L121.589 101.359L121.788 100.294ZM121.788 100.294C121.686 100.192 121.547 100.134 121.402 100.134C121.257 100.134 121.118 100.192 121.015 100.294L121.013 100.296C120.972 100.339 120.939 100.387 120.914 100.44M121.788 100.294L120.914 100.44M120.914 100.44C120.914 100.439 120.914 100.439 120.914 100.438L120.914 100.438C120.898 100.377 120.894 100.295 120.903 100.211C120.913 100.127 120.934 100.052 120.959 100.003C121.092 99.7477 121.314 99.6084 121.607 99.5607C121.902 99.5126 122.245 99.5825 122.497 99.7462C123.289 100.261 123.384 101.434 122.816 102.216C122.046 103.277 120.456 103.374 119.416 102.569C118.092 101.544 117.994 99.5359 119.042 98.2391C120.321 96.6566 122.749 96.5574 124.302 97.8509C126.141 99.3837 126.241 102.232 124.7 104.039C122.913 106.134 119.644 106.235 117.582 104.445C115.231 102.406 115.13 98.7161 117.169 96.4C119.463 93.7949 123.575 93.6934 126.145 95.9822C129.005 98.5287 129.106 103.061 126.566 105.885C126.518 105.938 126.481 106.001 126.457 106.068C126.433 106.136 126.423 106.208 126.426 106.28C126.43 106.352 126.448 106.422 126.479 106.487L126.613 106.423L126.479 106.487C126.51 106.552 126.554 106.61 126.607 106.658L126.607 106.658C126.715 106.755 126.857 106.804 127.002 106.797C127.147 106.789 127.282 106.724 127.379 106.616M127.379 106.616C127.379 106.616 127.379 106.616 127.379 106.616L127.268 106.516L127.379 106.616Z"
    fill="#C7EFAA" stroke="#C7EFAA" stroke-width="0.3" stroke-linejoin="round" />
</svg>