<svg xmlns="http://www.w3.org/2000/svg" width="197" height="176" viewBox="0 0 197 176" fill="none">
  <ellipse cx="45.8758" cy="73.6489" rx="45.8758" ry="73.6489"
    transform="matrix(0.836061 0.548637 -0.74818 0.663496 115.157 27)" fill="#C7EFAA" />
  <path
    d="M130.74 130.149C112.654 141.837 92.6518 149.119 74.9537 151.459C57.2359 153.802 41.959 151.184 33.1223 143.226C24.2856 135.269 23.4109 123.343 29.353 110.396C35.2886 97.4632 47.9923 83.609 66.0783 71.9211C84.1643 60.2332 104.167 52.9514 121.865 50.611C139.583 48.2679 154.859 50.8866 163.696 58.8441C172.533 66.8015 173.408 78.7274 167.465 91.6744C161.53 104.607 148.826 118.461 130.74 130.149Z"
    stroke="black" />
  <path
    d="M161.846 109.002C161.846 103.513 159.831 98.7378 156.3 95.9215C156.014 95.6928 155.699 95.4926 155.399 95.2925C156.585 92.2332 160.074 80.2818 146.578 72.4763C144.834 67.3012 141.403 63.3413 136.6 61.011C130.553 58.0804 123.062 58.1376 118.344 59.6815C115.885 57.48 112.754 55.9074 109.266 55.2784C103.047 54.1776 97.4864 56.3792 94.1411 61.2112C90.5243 58.6093 85.7352 57.3084 80.1026 57.5657C71.4393 57.9374 61.8754 62.4406 60.3171 68.6879C55.9855 69.0882 51.1964 70.9895 47.4938 74.0488C41.7611 78.7665 39.4881 85.2282 41.0177 92.2475C35.9999 96.3504 33.6983 102.926 33.7554 109.417C33.8412 117.766 37.6582 124.242 42.9191 125.5C42.5474 126.2 42.2186 126.915 41.947 127.658C39.4595 134.435 41.7039 141.497 47.9083 146.543C51.5109 149.459 55.8139 150.689 59.8025 150.689C61.5323 150.689 63.1763 150.432 64.6917 150.017C67.751 152.662 74.47 154.535 81.2606 154.535C84.4342 154.535 87.6222 154.12 90.4528 153.191C94.8559 151.747 97.8866 149.259 99.4592 145.914C101.16 149.216 103.534 151.647 106.579 153.148C108.852 154.277 111.482 154.835 114.284 154.835C117.043 154.835 119.959 154.291 122.833 153.191C125.621 152.133 127.808 150.417 129.223 148.302C131.153 149.045 134.012 149.602 137.186 149.602C139.688 149.602 142.361 149.245 144.906 148.359C149.309 146.8 152.625 143.813 154.498 139.71C156.771 134.72 156.428 130.003 153.54 126.415C153.312 126.129 153.04 125.886 152.797 125.628C153.812 125.328 154.798 124.842 155.713 124.142C159.416 121.268 161.832 115.321 161.846 109.002ZM89.5379 150.475C82.0754 152.919 72.2542 151.289 67.8368 148.759C71.0819 146.958 72.8117 144.199 72.5544 141.125C72.4972 140.339 71.811 139.753 71.0104 139.81C70.2242 139.867 69.638 140.567 69.6952 141.354C69.9097 144.027 67.6509 145.642 66.2642 146.357C65.7496 146.629 65.192 146.872 64.6059 147.072C64.5916 147.072 64.5916 147.072 64.5773 147.086C60.3171 148.545 54.3129 148.101 49.6667 144.327C44.363 140.024 42.5045 134.306 44.5774 128.645C46.5502 123.269 51.5395 119.424 56.5001 119.424C56.5716 119.424 56.6574 119.424 56.7146 119.424C57.4866 119.424 58.1299 118.795 58.1442 118.023C58.1585 117.237 57.5294 116.579 56.7432 116.565C52.2114 116.479 47.651 118.966 44.5774 122.855C39.631 122.726 36.6289 115.95 36.5574 109.374C36.5145 101.011 40.8462 91.1467 53.3265 90.9037C54.1127 90.8894 54.7417 90.2318 54.7275 89.4455C54.7132 88.6592 54.0698 88.0445 53.2979 88.0445C53.2836 88.0445 53.2836 88.0445 53.2693 88.0445C49.438 88.116 46.2214 89.0309 43.5624 90.5177C42.433 83.1696 46.5788 78.4663 49.2664 76.2361C54.2843 72.1046 61.7753 70.2747 65.9354 72.1761C67.6223 72.9481 68.5087 74.2633 68.5515 76.0932C68.5658 76.8651 69.2092 77.4799 69.9811 77.4799C69.9954 77.4799 70.0097 77.4799 70.024 77.4799C70.8103 77.4656 71.4393 76.808 71.4107 76.0074C71.3392 73.0767 69.8096 70.7894 67.122 69.56C65.9926 69.0453 64.6917 68.7451 63.305 68.6307C65.0205 64.4706 72.4257 60.7251 80.1884 60.382C84.9918 60.1819 96.3427 61.0825 98.5157 73.9202C98.5871 74.3062 98.8016 74.6493 99.1304 74.878C99.1876 74.9209 105.02 78.8951 105.235 84.3705C105.363 87.73 103.348 91.0752 99.2448 94.3204C98.8874 94.6063 98.6872 95.0352 98.7015 95.4783C98.7158 95.9215 98.9445 96.3504 99.3162 96.6077C99.3448 96.622 100.603 97.5226 102.018 99.0237H95.7851C95.0704 92.176 89.2662 86.8151 82.2184 86.8151C75.1705 86.8151 69.3664 92.176 68.6516 99.0237H49.195C44.463 99.0237 41.9184 102.24 41.9184 105.271C41.9184 106.901 42.6046 108.402 43.834 109.488C45.1492 110.646 47.0077 111.261 49.195 111.261C49.9812 111.261 50.6245 110.618 50.6245 109.831C50.6245 109.045 49.9812 108.402 49.195 108.402C47.7082 108.402 46.5073 108.03 45.7211 107.344C45.1063 106.801 44.7632 106.057 44.7632 105.271C44.7632 103.584 46.2786 101.883 49.1807 101.883H68.6373C69.3521 108.731 75.1562 114.092 82.2041 114.092C89.2519 114.092 95.0561 108.731 95.7709 101.883H104.248C105.178 103.398 105.892 105.171 105.921 107.072C105.992 110.446 103.948 113.72 99.8595 116.822C99.5307 117.079 99.3162 117.465 99.3019 117.88C99.2733 118.295 99.4449 118.709 99.7451 118.995C99.8023 119.052 105.792 124.871 105.149 131.189C104.806 134.606 102.533 137.651 98.4156 140.224C98.0582 140.453 97.8438 140.811 97.7723 141.211C97.758 141.239 97.7437 141.268 97.7437 141.311C97.3434 145.743 94.57 148.83 89.5379 150.475ZM92.9975 100.482C92.9975 106.429 88.1655 111.261 82.2184 111.261C76.2713 111.261 71.4393 106.429 71.4393 100.482C71.4393 94.5348 76.2713 89.7028 82.2184 89.7028C88.1655 89.7028 92.9975 94.5491 92.9975 100.482ZM153.926 121.868C152.411 123.026 150.738 123.384 148.966 122.926C146.006 121.525 142.475 121.068 139.187 121.783C138.415 121.954 137.929 122.712 138.101 123.484C138.272 124.256 139.03 124.742 139.802 124.57C144.077 123.627 148.794 125.128 151.282 128.202C153.483 130.932 153.698 134.492 151.868 138.509C150.31 141.94 147.636 144.342 143.919 145.657C138.987 147.401 133.398 146.786 130.453 145.714C130.553 145.414 130.653 145.114 130.724 144.785C131.482 141.425 130.41 137.937 127.808 135.221C127.265 134.649 126.35 134.635 125.792 135.178C125.22 135.721 125.206 136.636 125.749 137.194C127.708 139.238 128.494 141.711 127.937 144.141C127.308 146.929 125.077 149.245 121.804 150.489C119.402 151.404 113.255 153.234 107.822 150.56C104.634 148.988 102.318 146.114 100.903 142.026C105.206 139.066 107.608 135.535 108.022 131.49C108.623 125.6 104.82 120.396 102.862 118.137C106.893 114.721 108.894 110.989 108.823 107.029C108.78 105.171 108.28 103.455 107.536 101.911H111.568C112.283 108.759 118.087 114.12 125.135 114.12C132.654 114.12 138.773 108.002 138.773 100.482C138.773 92.9623 132.654 86.8436 125.135 86.8436C118.101 86.8436 112.283 92.2046 111.568 99.0523H105.807C104.649 97.4941 103.376 96.2503 102.433 95.4354C106.378 91.9187 108.294 88.1589 108.137 84.2561C107.894 78.3376 102.919 74.1203 101.275 72.8766C100.503 68.9023 98.8016 65.6 96.3427 63.0982C99.016 59.0525 103.605 57.1654 108.766 58.0804C113.841 58.981 119.488 62.7551 120.674 69.1597C120.803 69.8459 121.403 70.3319 122.075 70.3319C122.161 70.3319 122.247 70.3176 122.333 70.3033C123.105 70.1604 123.619 69.417 123.476 68.6307C123.019 66.2004 121.989 63.956 120.503 62.0117C124.62 61.0682 130.567 61.2541 135.342 63.57C138.644 65.1711 141.132 67.5871 142.761 70.7465C141.489 70.3462 140.217 70.0889 138.916 70.0031C138.115 69.9459 137.443 70.5464 137.386 71.3326C137.329 72.1189 137.929 72.8051 138.716 72.8623C140.746 73.0053 142.761 73.62 144.691 74.6922C156.628 81.2968 153.898 91.2039 152.826 94.0059C150.138 93.0195 147.021 92.8765 143.619 93.6628C142.847 93.8343 142.375 94.6063 142.547 95.3783C142.718 96.1502 143.49 96.6363 144.262 96.4505C148.38 95.5069 151.911 96.1074 154.498 98.166C157.343 100.439 158.973 104.385 158.973 109.002C158.973 114.377 156.943 119.553 153.926 121.868ZM114.327 100.482C114.327 94.5348 119.159 89.7028 125.106 89.7028C131.053 89.7028 135.885 94.5348 135.885 100.482C135.885 106.429 131.053 111.261 125.106 111.261C119.159 111.261 114.327 106.429 114.327 100.482Z"
    fill="black" />
  <path
    d="M40.31 21.2923C39.9925 21.4774 39.6221 21.5718 39.2266 21.5189C38.2705 21.4079 37.5639 20.5437 37.6749 19.5876C37.9208 17.4387 38.804 15.4447 40.2201 13.8085C40.8626 13.0692 41.9648 13.0139 42.6954 13.6413C43.4259 14.2687 43.5052 15.3772 42.8626 16.1165C41.9127 17.1972 41.3167 18.5375 41.1667 19.9823C41.1087 20.5429 40.7786 21.019 40.31 21.2923Z"
    fill="black" />
  <path
    d="M28.217 28.345C27.7483 28.6183 27.1714 28.6711 26.6549 28.4456C25.3235 27.8647 23.8724 27.7386 22.4729 28.0483C21.513 28.2435 20.596 27.6438 20.3945 26.7078C20.1931 25.7718 20.784 24.8397 21.7351 24.6295C23.8539 24.1636 26.0243 24.3768 28.0397 25.2273C28.9265 25.6015 29.3458 26.6332 28.9565 27.5288C28.7902 27.8689 28.5344 28.1599 28.217 28.345Z"
    fill="black" />
  <path
    d="M47.2063 67.8561C46.647 68.1823 45.9416 68.1885 45.3609 67.8181C44.551 67.2977 44.3244 66.2144 44.8598 65.3957C44.8939 65.3151 46.2848 62.8021 43.4284 57.9042C42.0884 55.6064 40.3841 55.0809 40.3123 55.062C39.4003 54.7835 38.86 53.8223 39.1146 52.9041C39.3692 51.9858 40.3064 51.4392 41.2398 51.6849C41.5509 51.7668 44.3889 52.6036 46.4607 56.1561C50.4191 62.9437 48.0769 66.8824 47.7985 67.3082C47.6334 67.5462 47.4331 67.7238 47.2063 67.8561Z"
    fill="black" />
  <path
    d="M65.3319 57.2852C65.1052 57.4174 64.852 57.5043 64.5786 57.5219C64.0621 57.5395 59.4807 57.6385 55.5223 50.8509C53.4505 47.2984 54.1285 44.4314 54.2016 44.1052C54.4474 43.1718 55.3998 42.6164 56.3331 42.8621C57.2665 43.1079 57.8131 44.0451 57.5825 44.9697C57.551 45.0894 57.2082 46.829 58.5218 49.0814C61.3782 53.9794 64.2502 54.0061 64.3762 54.0137C65.3247 54.0075 66.1258 54.7558 66.171 55.7019C66.2138 56.3657 65.8761 56.9678 65.3319 57.2852Z"
    fill="black" />
  <path
    d="M56.2682 62.551C55.4367 63.0358 54.3597 62.7523 53.8748 61.9209L48.5852 52.8506C48.1003 52.0191 48.3839 50.9421 49.2153 50.4573C50.0468 49.9724 51.1238 50.2559 51.6086 51.0874L56.8983 60.1576C57.3832 60.9891 57.0996 62.0661 56.2682 62.551Z"
    fill="black" />
  <path
    d="M26.5846 53.3028C26.4637 53.3733 26.3339 53.4287 26.1802 53.4778C22.3368 54.5645 18.2393 52.9227 16.2204 49.4608C14.7834 46.9968 14.6489 44.0566 15.8031 41.5198C15.4366 41.065 15.1179 40.6228 14.8358 40.1391C11.9177 35.1353 13.6127 28.6973 18.6164 25.7792C19.206 25.4353 19.8308 25.152 20.53 24.9266C21.3631 20.4498 24.1198 16.4922 28.0653 14.1912C32.0109 11.8902 36.8128 11.4398 41.1195 12.9191C41.66 12.4216 42.2143 12.0173 42.8038 11.6735C47.8076 8.75538 54.2456 10.4504 57.1637 15.4541C57.4458 15.9379 57.6738 16.433 57.8891 16.9759C60.6743 17.2357 63.167 18.8005 64.5952 21.2495C66.6052 24.6962 66.0316 29.0622 63.2083 31.8634C62.5306 32.5423 61.417 32.5434 60.7293 31.8505C60.0504 31.1727 60.0493 30.0592 60.7422 29.3715C62.4379 27.6938 62.7707 25.0686 61.5629 22.9976C60.5579 21.2742 58.6912 20.2965 56.6845 20.4336C55.8254 20.4889 55.0671 19.9182 54.8644 19.0843C54.702 18.3889 54.4577 17.7616 54.1403 17.2173C52.192 13.8765 47.9079 12.7486 44.567 14.6969C43.9926 15.0319 43.4345 15.4992 42.8865 16.1227C42.3901 16.6958 41.5776 16.8657 40.876 16.5659C37.2458 14.9959 33.2299 15.231 29.8285 17.2146C26.4272 19.1982 24.245 22.5777 23.8239 26.5104C23.7394 27.2687 23.1914 27.8922 22.4481 28.042C21.6356 28.2119 20.9541 28.4676 20.3796 28.8026C17.0388 30.7509 15.9109 35.035 17.8592 38.3759C18.1766 38.9201 18.6023 39.4416 19.1364 39.9405C19.7624 40.5276 19.8857 41.4686 19.4145 42.1891C18.307 43.8681 18.2388 45.9743 19.2438 47.6976C20.4516 49.7687 22.9154 50.7628 25.2258 50.1043C26.1655 49.8399 27.1253 50.3741 27.3897 51.3138C27.6202 52.0911 27.2649 52.906 26.5846 53.3028Z"
    fill="black" />
  <path
    d="M52.626 42.411C50.4492 43.6806 47.96 44.2408 45.4684 44.0327C44.4226 46.3038 42.7092 48.1944 40.5323 49.4639C37.0705 51.4828 32.8393 51.6612 29.1839 49.9438C28.3185 49.5368 27.9294 48.4875 28.3364 47.6221C28.7584 46.748 29.7927 46.3676 30.658 46.7746C33.278 48.0018 36.305 47.8775 38.7691 46.4405C40.6285 45.3561 42.0068 43.6204 42.6747 41.5697C42.9494 40.7207 43.8262 40.2094 44.7004 40.3884C46.8229 40.832 49.0034 40.472 50.8628 39.3876C53.3269 37.9506 54.9257 35.3773 55.1478 32.4926C55.2197 31.5391 56.0663 30.8022 57.0286 30.8893C57.9973 30.9524 58.719 31.8078 58.632 32.7701C58.3267 36.7973 56.0879 40.3922 52.626 42.411Z"
    fill="black" />
  <path
    d="M82.0046 100.294L82.0046 100.294C82.1645 100.454 82.2854 100.73 82.2301 100.991C82.1768 101.243 82.02 101.391 81.8926 101.482C81.8926 101.482 81.8926 101.482 81.8926 101.482L81.8056 101.359L82.0046 100.294ZM82.0046 100.294C81.902 100.192 81.7631 100.134 81.6181 100.134C81.4732 100.134 81.3342 100.192 81.2317 100.294L81.2295 100.296C81.1888 100.339 81.1554 100.387 81.1303 100.44M82.0046 100.294L81.1303 100.44M81.1303 100.44C81.1302 100.439 81.1301 100.439 81.1299 100.438L81.1299 100.438C81.114 100.377 81.1101 100.295 81.1195 100.211C81.129 100.127 81.1505 100.052 81.1757 100.003C81.3079 99.7477 81.5307 99.6084 81.8238 99.5607C82.1185 99.5126 82.4612 99.5825 82.7132 99.7462C83.5054 100.261 83.6001 101.434 83.0325 102.216C82.2623 103.277 80.6723 103.374 79.632 102.569C78.3081 101.544 78.2101 99.5359 79.2583 98.2391C80.5374 96.6566 82.9654 96.5574 84.5179 97.8509C86.3576 99.3837 86.4575 102.232 84.9164 104.039C83.1297 106.134 79.8601 106.235 77.798 104.445C75.4473 102.406 75.3466 98.7161 77.3858 96.4C79.6794 93.7949 83.7908 93.6934 86.3612 95.9822C89.2209 98.5287 89.3223 103.061 86.7825 105.885C86.7344 105.938 86.6974 106.001 86.6734 106.068C86.6494 106.136 86.639 106.208 86.6428 106.28C86.6466 106.352 86.6645 106.422 86.6955 106.487L86.8294 106.423L86.6955 106.487C86.7265 106.552 86.77 106.61 86.8235 106.658L86.8235 106.658C86.9315 106.755 87.0734 106.804 87.2182 106.797C87.363 106.789 87.4987 106.724 87.5956 106.616M87.5956 106.616C87.5956 106.616 87.5956 106.616 87.5956 106.616L87.484 106.516L87.5956 106.616Z"
    fill="black" stroke="black" stroke-width="0.3" stroke-linejoin="round" />
  <path
    d="M124.788 100.294L124.788 100.294C124.948 100.454 125.069 100.73 125.014 100.991C124.96 101.243 124.804 101.391 124.676 101.482C124.676 101.482 124.676 101.482 124.676 101.482L124.589 101.359L124.788 100.294ZM124.788 100.294C124.686 100.192 124.547 100.134 124.402 100.134C124.257 100.134 124.118 100.192 124.015 100.294L124.013 100.296C123.972 100.339 123.939 100.387 123.914 100.44M124.788 100.294L123.914 100.44M123.914 100.44C123.914 100.439 123.914 100.439 123.914 100.438L123.914 100.438C123.898 100.377 123.894 100.295 123.903 100.211C123.913 100.127 123.934 100.052 123.959 100.003C124.092 99.7477 124.314 99.6084 124.607 99.5607C124.902 99.5126 125.245 99.5825 125.497 99.7462C126.289 100.261 126.384 101.434 125.816 102.216C125.046 103.277 123.456 103.374 122.416 102.569C121.092 101.544 120.994 99.5359 122.042 98.2391C123.321 96.6566 125.749 96.5574 127.302 97.8509C129.141 99.3837 129.241 102.232 127.7 104.039C125.913 106.134 122.644 106.235 120.582 104.445C118.231 102.406 118.13 98.7161 120.169 96.4C122.463 93.7949 126.575 93.6934 129.145 95.9822C132.005 98.5287 132.106 103.061 129.566 105.885C129.518 105.938 129.481 106.001 129.457 106.068C129.433 106.136 129.423 106.208 129.426 106.28C129.43 106.352 129.448 106.422 129.479 106.487L129.613 106.423L129.479 106.487C129.51 106.552 129.554 106.61 129.607 106.658L129.607 106.658C129.715 106.755 129.857 106.804 130.002 106.797C130.147 106.789 130.282 106.724 130.379 106.616M130.379 106.616C130.379 106.616 130.379 106.616 130.379 106.616L130.268 106.516L130.379 106.616Z"
    fill="black" stroke="black" stroke-width="0.3" stroke-linejoin="round" />
</svg>