<svg width="375" height="812" viewBox="0 0 375 812" fill="none" xmlns="http://www.w3.org/2000/svg">
<g clip-path="url(#clip0_14356_2167)">
<rect width="375" height="812" fill="#10121F"/>
<path d="M138.847 66.1307V64.3636H148.131V66.1307H144.535V76H142.444V66.1307H138.847ZM150.109 79.2727C149.828 79.2727 149.569 79.25 149.33 79.2045C149.095 79.1629 148.908 79.1136 148.768 79.0568L149.245 77.4545C149.544 77.5417 149.811 77.5833 150.046 77.5795C150.281 77.5758 150.487 77.5019 150.665 77.358C150.847 77.2178 151.001 76.983 151.126 76.6534L151.302 76.1818L148.137 67.2727H150.319L152.33 73.8636H152.421L154.438 67.2727H156.626L153.131 77.0568C152.969 77.5189 152.753 77.9148 152.484 78.2443C152.215 78.5777 151.885 78.8314 151.495 79.0057C151.109 79.1837 150.647 79.2727 150.109 79.2727ZM158.049 79.2727V67.2727H160.072V68.7159H160.191C160.297 68.5038 160.447 68.2784 160.64 68.0398C160.833 67.7973 161.094 67.5909 161.424 67.4205C161.754 67.2462 162.174 67.1591 162.685 67.1591C163.36 67.1591 163.968 67.3314 164.509 67.6761C165.055 68.017 165.487 68.5227 165.805 69.1932C166.127 69.8598 166.288 70.678 166.288 71.6477C166.288 72.6061 166.13 73.4205 165.816 74.0909C165.502 74.7614 165.074 75.2727 164.532 75.625C163.99 75.9773 163.377 76.1534 162.691 76.1534C162.191 76.1534 161.776 76.0701 161.447 75.9034C161.117 75.7367 160.852 75.536 160.651 75.3011C160.454 75.0625 160.301 74.8371 160.191 74.625H160.106V79.2727H158.049ZM160.066 71.6364C160.066 72.2008 160.146 72.6951 160.305 73.1193C160.468 73.5436 160.701 73.875 161.004 74.1136C161.31 74.3485 161.682 74.4659 162.117 74.4659C162.572 74.4659 162.952 74.3447 163.259 74.1023C163.566 73.8561 163.797 73.5208 163.952 73.0966C164.112 72.6686 164.191 72.1818 164.191 71.6364C164.191 71.0947 164.113 70.6136 163.958 70.1932C163.803 69.7727 163.572 69.4432 163.265 69.2045C162.958 68.9659 162.576 68.8466 162.117 68.8466C161.678 68.8466 161.305 68.9621 160.998 69.1932C160.691 69.4242 160.458 69.7481 160.299 70.1648C160.144 70.5814 160.066 71.072 160.066 71.6364ZM171.856 76.1705C171.004 76.1705 170.265 75.983 169.64 75.608C169.015 75.233 168.53 74.7083 168.185 74.0341C167.844 73.3598 167.674 72.572 167.674 71.6705C167.674 70.7689 167.844 69.9792 168.185 69.3011C168.53 68.6231 169.015 68.0966 169.64 67.7216C170.265 67.3466 171.004 67.1591 171.856 67.1591C172.708 67.1591 173.447 67.3466 174.072 67.7216C174.697 68.0966 175.18 68.6231 175.521 69.3011C175.865 69.9792 176.038 70.7689 176.038 71.6705C176.038 72.572 175.865 73.3598 175.521 74.0341C175.18 74.7083 174.697 75.233 174.072 75.608C173.447 75.983 172.708 76.1705 171.856 76.1705ZM171.867 74.5227C172.329 74.5227 172.716 74.3958 173.026 74.142C173.337 73.8845 173.568 73.5398 173.719 73.108C173.875 72.6761 173.952 72.1951 173.952 71.6648C173.952 71.1307 173.875 70.6477 173.719 70.2159C173.568 69.7803 173.337 69.4337 173.026 69.1761C172.716 68.9186 172.329 68.7898 171.867 68.7898C171.394 68.7898 171 68.9186 170.685 69.1761C170.375 69.4337 170.142 69.7803 169.987 70.2159C169.835 70.6477 169.759 71.1307 169.759 71.6648C169.759 72.1951 169.835 72.6761 169.987 73.108C170.142 73.5398 170.375 73.8845 170.685 74.142C171 74.3958 171.394 74.5227 171.867 74.5227ZM187.835 68.2898H185.71C185.649 67.9413 185.537 67.6326 185.374 67.3636C185.211 67.0909 185.009 66.8598 184.766 66.6705C184.524 66.4811 184.247 66.339 183.937 66.2443C183.63 66.1458 183.299 66.0966 182.942 66.0966C182.31 66.0966 181.749 66.2557 181.261 66.5739C180.772 66.8883 180.389 67.3504 180.113 67.9602C179.836 68.5663 179.698 69.3068 179.698 70.1818C179.698 71.072 179.836 71.822 180.113 72.4318C180.393 73.0379 180.776 73.4962 181.261 73.8068C181.749 74.1136 182.308 74.267 182.937 74.267C183.285 74.267 183.611 74.2216 183.914 74.1307C184.221 74.036 184.496 73.8977 184.738 73.7159C184.984 73.5341 185.191 73.3106 185.357 73.0455C185.528 72.7803 185.645 72.4773 185.71 72.1364L187.835 72.1477C187.755 72.7008 187.583 73.2197 187.317 73.7045C187.056 74.1894 186.713 74.6174 186.289 74.9886C185.865 75.3561 185.369 75.6439 184.8 75.8523C184.232 76.0568 183.602 76.1591 182.908 76.1591C181.886 76.1591 180.973 75.9223 180.17 75.4489C179.367 74.9754 178.734 74.2917 178.272 73.3977C177.81 72.5038 177.579 71.4318 177.579 70.1818C177.579 68.928 177.812 67.8561 178.278 66.9659C178.744 66.072 179.378 65.3883 180.181 64.9148C180.984 64.4413 181.893 64.2045 182.908 64.2045C183.556 64.2045 184.158 64.2955 184.715 64.4773C185.272 64.6591 185.768 64.9261 186.204 65.2784C186.639 65.6269 186.997 66.0549 187.278 66.5625C187.562 67.0663 187.747 67.642 187.835 68.2898ZM195.237 72.3295V67.2727H197.293V76H195.299V74.4489H195.208C195.011 74.9375 194.687 75.3371 194.237 75.6477C193.79 75.9583 193.238 76.1136 192.583 76.1136C192.011 76.1136 191.505 75.9867 191.066 75.733C190.63 75.4754 190.29 75.1023 190.043 74.6136C189.797 74.1212 189.674 73.5265 189.674 72.8295V67.2727H191.731V72.5114C191.731 73.0644 191.882 73.5038 192.185 73.8295C192.488 74.1553 192.886 74.3182 193.379 74.3182C193.682 74.3182 193.975 74.2443 194.259 74.0966C194.543 73.9489 194.776 73.7292 194.958 73.4375C195.144 73.142 195.237 72.7727 195.237 72.3295ZM199.408 76V67.2727H201.403V68.7273H201.494C201.653 68.2235 201.925 67.8352 202.312 67.5625C202.702 67.286 203.147 67.1477 203.647 67.1477C203.761 67.1477 203.888 67.1534 204.028 67.1648C204.172 67.1723 204.291 67.1856 204.386 67.2045V69.0966C204.299 69.0663 204.16 69.0398 203.971 69.017C203.785 68.9905 203.605 68.9773 203.431 68.9773C203.056 68.9773 202.719 69.0587 202.42 69.2216C202.124 69.3807 201.891 69.6023 201.721 69.8864C201.55 70.1705 201.465 70.4981 201.465 70.8693V76H199.408ZM208.107 76.1761C207.554 76.1761 207.056 76.0777 206.613 75.8807C206.174 75.6799 205.825 75.3845 205.567 74.9943C205.314 74.6042 205.187 74.1231 205.187 73.5511C205.187 73.0587 205.278 72.6515 205.46 72.3295C205.641 72.0076 205.889 71.75 206.204 71.5568C206.518 71.3636 206.872 71.2178 207.266 71.1193C207.664 71.017 208.075 70.9432 208.499 70.8977C209.011 70.8447 209.425 70.7973 209.744 70.7557C210.062 70.7102 210.293 70.642 210.437 70.5511C210.585 70.4564 210.658 70.3106 210.658 70.1136V70.0795C210.658 69.6515 210.531 69.3201 210.278 69.0852C210.024 68.8504 209.658 68.733 209.181 68.733C208.677 68.733 208.278 68.8428 207.982 69.0625C207.691 69.2822 207.494 69.5417 207.391 69.8409L205.471 69.5682C205.622 69.0379 205.872 68.5947 206.221 68.2386C206.569 67.8788 206.996 67.6098 207.499 67.4318C208.003 67.25 208.56 67.1591 209.17 67.1591C209.59 67.1591 210.009 67.2083 210.425 67.3068C210.842 67.4053 211.223 67.5682 211.567 67.7955C211.912 68.0189 212.189 68.3239 212.397 68.7102C212.609 69.0966 212.715 69.5795 212.715 70.1591V76H210.738V74.8011H210.67C210.545 75.0436 210.369 75.2708 210.141 75.483C209.918 75.6913 209.636 75.8598 209.295 75.9886C208.958 76.1136 208.562 76.1761 208.107 76.1761ZM208.641 74.6648C209.054 74.6648 209.412 74.5833 209.715 74.4205C210.018 74.2538 210.251 74.0341 210.414 73.7614C210.581 73.4886 210.664 73.1913 210.664 72.8693V71.8409C210.6 71.8939 210.49 71.9432 210.335 71.9886C210.183 72.0341 210.013 72.0739 209.823 72.108C209.634 72.142 209.446 72.1723 209.261 72.1989C209.075 72.2254 208.914 72.2481 208.778 72.267C208.471 72.3087 208.196 72.3769 207.954 72.4716C207.711 72.5663 207.52 72.6989 207.38 72.8693C207.24 73.036 207.17 73.2519 207.17 73.517C207.17 73.8958 207.308 74.1818 207.585 74.375C207.861 74.5682 208.213 74.6648 208.641 74.6648ZM219.141 67.2727V68.8636H214.124V67.2727H219.141ZM215.363 65.1818H217.42V73.375C217.42 73.6515 217.461 73.8636 217.545 74.0114C217.632 74.1553 217.746 74.2538 217.886 74.3068C218.026 74.3598 218.181 74.3864 218.352 74.3864C218.48 74.3864 218.598 74.3769 218.704 74.358C218.814 74.339 218.897 74.322 218.954 74.3068L219.3 75.9148C219.191 75.9527 219.033 75.9943 218.829 76.0398C218.628 76.0852 218.382 76.1117 218.09 76.1193C217.575 76.1345 217.111 76.0568 216.698 75.8864C216.285 75.7121 215.958 75.4432 215.715 75.0795C215.477 74.7159 215.359 74.2614 215.363 73.7159V65.1818ZM224.575 76.1705C223.722 76.1705 222.984 75.983 222.359 75.608C221.734 75.233 221.249 74.7083 220.904 74.0341C220.563 73.3598 220.393 72.572 220.393 71.6705C220.393 70.7689 220.563 69.9792 220.904 69.3011C221.249 68.6231 221.734 68.0966 222.359 67.7216C222.984 67.3466 223.722 67.1591 224.575 67.1591C225.427 67.1591 226.165 67.3466 226.79 67.7216C227.415 68.0966 227.898 68.6231 228.239 69.3011C228.584 69.9792 228.756 70.7689 228.756 71.6705C228.756 72.572 228.584 73.3598 228.239 74.0341C227.898 74.7083 227.415 75.233 226.79 75.608C226.165 75.983 225.427 76.1705 224.575 76.1705ZM224.586 74.5227C225.048 74.5227 225.434 74.3958 225.745 74.142C226.056 73.8845 226.287 73.5398 226.438 73.108C226.594 72.6761 226.671 72.1951 226.671 71.6648C226.671 71.1307 226.594 70.6477 226.438 70.2159C226.287 69.7803 226.056 69.4337 225.745 69.1761C225.434 68.9186 225.048 68.7898 224.586 68.7898C224.112 68.7898 223.719 68.9186 223.404 69.1761C223.094 69.4337 222.861 69.7803 222.705 70.2159C222.554 70.6477 222.478 71.1307 222.478 71.6648C222.478 72.1951 222.554 72.6761 222.705 73.108C222.861 73.5398 223.094 73.8845 223.404 74.142C223.719 74.3958 224.112 74.5227 224.586 74.5227ZM230.502 76V67.2727H232.496V68.7273H232.587C232.746 68.2235 233.019 67.8352 233.406 67.5625C233.796 67.286 234.241 67.1477 234.741 67.1477C234.854 67.1477 234.981 67.1534 235.121 67.1648C235.265 67.1723 235.385 67.1856 235.479 67.2045V69.0966C235.392 69.0663 235.254 69.0398 235.065 69.017C234.879 68.9905 234.699 68.9773 234.525 68.9773C234.15 68.9773 233.813 69.0587 233.513 69.2216C233.218 69.3807 232.985 69.6023 232.815 69.8864C232.644 70.1705 232.559 70.4981 232.559 70.8693V76H230.502Z" fill="white"/>
<g filter="url(#filter0_d_14356_2167)">
<path d="M0 681C0 669.954 8.95431 661 20 661H355C366.046 661 375 669.954 375 681V812H0V681Z" fill="#1F1F1F"/>
</g>
<rect x="24" y="740" width="327" height="50" rx="25" fill="#C7EFAA"/>
<path d="M162.656 768.258H164.805C164.748 769.018 164.537 769.693 164.172 770.281C163.808 770.865 163.3 771.323 162.649 771.656C161.998 771.99 161.209 772.156 160.281 772.156C159.568 772.156 158.925 772.031 158.352 771.781C157.784 771.526 157.297 771.164 156.891 770.695C156.49 770.221 156.183 769.654 155.969 768.992C155.755 768.326 155.649 767.578 155.649 766.75V765.883C155.649 765.055 155.758 764.307 155.977 763.641C156.196 762.974 156.508 762.406 156.914 761.938C157.326 761.464 157.818 761.099 158.391 760.844C158.969 760.589 159.615 760.461 160.328 760.461C161.255 760.461 162.039 760.633 162.68 760.977C163.321 761.315 163.818 761.781 164.172 762.375C164.526 762.969 164.74 763.651 164.813 764.422H162.664C162.623 763.943 162.518 763.536 162.352 763.203C162.19 762.87 161.946 762.617 161.617 762.445C161.295 762.268 160.865 762.18 160.328 762.18C159.912 762.18 159.545 762.258 159.227 762.414C158.914 762.57 158.654 762.805 158.446 763.117C158.237 763.424 158.081 763.81 157.977 764.273C157.873 764.732 157.821 765.263 157.821 765.867V766.75C157.821 767.328 157.867 767.846 157.961 768.305C158.055 768.763 158.201 769.151 158.399 769.469C158.597 769.786 158.852 770.029 159.164 770.195C159.477 770.362 159.849 770.445 160.281 770.445C160.808 770.445 161.235 770.362 161.563 770.195C161.896 770.029 162.149 769.784 162.321 769.461C162.498 769.138 162.61 768.737 162.656 768.258ZM165.946 767.859V767.695C165.946 767.076 166.034 766.505 166.211 765.984C166.388 765.458 166.646 765.003 166.985 764.617C167.323 764.232 167.737 763.932 168.227 763.719C168.716 763.5 169.274 763.391 169.899 763.391C170.534 763.391 171.097 763.5 171.586 763.719C172.081 763.932 172.498 764.232 172.836 764.617C173.175 765.003 173.433 765.458 173.61 765.984C173.787 766.505 173.875 767.076 173.875 767.695V767.859C173.875 768.474 173.787 769.044 173.61 769.57C173.433 770.091 173.175 770.547 172.836 770.938C172.498 771.323 172.084 771.622 171.594 771.836C171.104 772.049 170.545 772.156 169.914 772.156C169.289 772.156 168.729 772.049 168.235 771.836C167.74 771.622 167.323 771.323 166.985 770.938C166.646 770.547 166.388 770.091 166.211 769.57C166.034 769.044 165.946 768.474 165.946 767.859ZM168.008 767.695V767.859C168.008 768.229 168.045 768.576 168.117 768.898C168.19 769.221 168.302 769.505 168.453 769.75C168.604 769.995 168.8 770.188 169.039 770.328C169.284 770.464 169.576 770.531 169.914 770.531C170.248 770.531 170.534 770.464 170.774 770.328C171.013 770.188 171.209 769.995 171.36 769.75C171.516 769.505 171.63 769.221 171.703 768.898C171.776 768.576 171.813 768.229 171.813 767.859V767.695C171.813 767.331 171.776 766.99 171.703 766.672C171.63 766.349 171.516 766.065 171.36 765.82C171.209 765.57 171.011 765.375 170.766 765.234C170.526 765.089 170.237 765.016 169.899 765.016C169.565 765.016 169.279 765.089 169.039 765.234C168.8 765.375 168.604 765.57 168.453 765.82C168.302 766.065 168.19 766.349 168.117 766.672C168.045 766.99 168.008 767.331 168.008 767.695ZM177.399 765.352V772H175.336V763.547H177.274L177.399 765.352ZM177.071 767.469H176.461C176.466 766.854 176.55 766.297 176.711 765.797C176.873 765.297 177.099 764.867 177.391 764.508C177.688 764.148 178.039 763.872 178.446 763.68C178.852 763.487 179.305 763.391 179.805 763.391C180.211 763.391 180.578 763.448 180.906 763.562C181.235 763.677 181.516 763.859 181.75 764.109C181.99 764.359 182.172 764.688 182.297 765.094C182.427 765.495 182.492 765.99 182.492 766.578V772H180.414V766.562C180.414 766.177 180.357 765.872 180.242 765.648C180.133 765.424 179.972 765.266 179.758 765.172C179.55 765.078 179.292 765.031 178.985 765.031C178.667 765.031 178.388 765.096 178.149 765.227C177.914 765.352 177.716 765.526 177.555 765.75C177.399 765.974 177.279 766.232 177.196 766.523C177.112 766.815 177.071 767.13 177.071 767.469ZM188.313 763.547V765.031H183.469V763.547H188.313ZM184.766 761.469H186.836V769.562C186.836 769.812 186.87 770.005 186.938 770.141C187.005 770.276 187.107 770.367 187.242 770.414C187.378 770.461 187.539 770.484 187.727 770.484C187.862 770.484 187.987 770.477 188.102 770.461C188.216 770.445 188.313 770.43 188.391 770.414L188.399 771.961C188.227 772.018 188.031 772.065 187.813 772.102C187.599 772.138 187.357 772.156 187.086 772.156C186.623 772.156 186.216 772.078 185.867 771.922C185.518 771.76 185.248 771.503 185.055 771.148C184.862 770.789 184.766 770.315 184.766 769.727V761.469ZM191.875 763.547V772H189.805V763.547H191.875ZM189.664 761.336C189.664 761.029 189.768 760.773 189.977 760.57C190.19 760.367 190.477 760.266 190.836 760.266C191.196 760.266 191.479 760.367 191.688 760.57C191.901 760.773 192.008 761.029 192.008 761.336C192.008 761.638 191.901 761.891 191.688 762.094C191.479 762.297 191.196 762.398 190.836 762.398C190.477 762.398 190.19 762.297 189.977 762.094C189.768 761.891 189.664 761.638 189.664 761.336ZM195.867 765.352V772H193.805V763.547H195.742L195.867 765.352ZM195.539 767.469H194.93C194.935 766.854 195.018 766.297 195.18 765.797C195.341 765.297 195.568 764.867 195.86 764.508C196.156 764.148 196.508 763.872 196.914 763.68C197.321 763.487 197.774 763.391 198.274 763.391C198.68 763.391 199.047 763.448 199.375 763.562C199.703 763.677 199.985 763.859 200.219 764.109C200.459 764.359 200.641 764.688 200.766 765.094C200.896 765.495 200.961 765.99 200.961 766.578V772H198.883V766.562C198.883 766.177 198.826 765.872 198.711 765.648C198.602 765.424 198.44 765.266 198.227 765.172C198.018 765.078 197.761 765.031 197.453 765.031C197.136 765.031 196.857 765.096 196.617 765.227C196.383 765.352 196.185 765.526 196.024 765.75C195.867 765.974 195.748 766.232 195.664 766.523C195.581 766.815 195.539 767.13 195.539 767.469ZM207.813 769.992V763.547H209.891V772H207.938L207.813 769.992ZM208.078 768.242L208.719 768.227C208.719 768.794 208.656 769.318 208.531 769.797C208.406 770.276 208.211 770.693 207.946 771.047C207.685 771.396 207.354 771.669 206.953 771.867C206.552 772.06 206.078 772.156 205.531 772.156C205.115 772.156 204.735 772.099 204.391 771.984C204.047 771.865 203.75 771.68 203.5 771.43C203.255 771.174 203.065 770.849 202.93 770.453C202.795 770.052 202.727 769.57 202.727 769.008V763.547H204.789V769.023C204.789 769.305 204.821 769.539 204.883 769.727C204.951 769.914 205.042 770.068 205.156 770.188C205.276 770.302 205.414 770.385 205.571 770.438C205.732 770.484 205.904 770.508 206.086 770.508C206.586 770.508 206.979 770.409 207.266 770.211C207.558 770.008 207.766 769.737 207.891 769.398C208.016 769.055 208.078 768.669 208.078 768.242ZM215.516 772.156C214.875 772.156 214.3 772.052 213.789 771.844C213.279 771.635 212.844 771.346 212.485 770.977C212.13 770.602 211.857 770.167 211.664 769.672C211.477 769.172 211.383 768.635 211.383 768.062V767.75C211.383 767.099 211.477 766.508 211.664 765.977C211.852 765.44 212.117 764.979 212.461 764.594C212.805 764.208 213.216 763.911 213.696 763.703C214.175 763.495 214.703 763.391 215.281 763.391C215.88 763.391 216.409 763.492 216.867 763.695C217.326 763.893 217.709 764.174 218.016 764.539C218.323 764.904 218.555 765.341 218.711 765.852C218.867 766.357 218.946 766.917 218.946 767.531V768.398H212.321V766.977H216.914V766.82C216.904 766.492 216.841 766.193 216.727 765.922C216.612 765.646 216.435 765.427 216.196 765.266C215.956 765.099 215.646 765.016 215.266 765.016C214.959 765.016 214.69 765.083 214.461 765.219C214.237 765.349 214.05 765.536 213.899 765.781C213.753 766.021 213.643 766.307 213.571 766.641C213.498 766.974 213.461 767.344 213.461 767.75V768.062C213.461 768.417 213.508 768.745 213.602 769.047C213.701 769.349 213.844 769.612 214.031 769.836C214.224 770.055 214.453 770.227 214.719 770.352C214.99 770.471 215.297 770.531 215.641 770.531C216.073 770.531 216.464 770.448 216.813 770.281C217.167 770.109 217.474 769.857 217.735 769.523L218.774 770.602C218.597 770.862 218.357 771.112 218.055 771.352C217.758 771.591 217.399 771.786 216.977 771.938C216.555 772.083 216.068 772.156 215.516 772.156Z" fill="black"/>
<rect x="24" y="675" width="327" height="50" rx="25" fill="#C7EFAA"/>
<path d="M121.188 704.047C121.188 703.828 121.154 703.633 121.086 703.461C121.024 703.284 120.906 703.125 120.735 702.984C120.568 702.839 120.331 702.698 120.024 702.562C119.722 702.422 119.331 702.276 118.852 702.125C118.321 701.958 117.826 701.771 117.367 701.562C116.909 701.354 116.505 701.112 116.156 700.836C115.813 700.56 115.545 700.242 115.352 699.883C115.159 699.518 115.063 699.096 115.063 698.617C115.063 698.148 115.162 697.721 115.36 697.336C115.563 696.951 115.849 696.62 116.219 696.344C116.589 696.062 117.024 695.846 117.524 695.695C118.029 695.544 118.586 695.469 119.196 695.469C120.039 695.469 120.768 695.622 121.383 695.93C122.003 696.237 122.482 696.654 122.821 697.18C123.159 697.706 123.328 698.297 123.328 698.953H121.188C121.188 698.599 121.112 698.286 120.961 698.016C120.815 697.745 120.591 697.531 120.289 697.375C119.992 697.219 119.617 697.141 119.164 697.141C118.727 697.141 118.362 697.206 118.071 697.336C117.784 697.466 117.568 697.643 117.422 697.867C117.281 698.091 117.211 698.341 117.211 698.617C117.211 698.826 117.261 699.013 117.36 699.18C117.459 699.341 117.607 699.495 117.805 699.641C118.003 699.781 118.248 699.914 118.539 700.039C118.836 700.159 119.18 700.279 119.571 700.398C120.196 700.586 120.742 700.794 121.211 701.023C121.685 701.253 122.078 701.513 122.391 701.805C122.709 702.096 122.946 702.424 123.102 702.789C123.263 703.154 123.344 703.568 123.344 704.031C123.344 704.521 123.248 704.958 123.055 705.344C122.862 705.729 122.586 706.057 122.227 706.328C121.867 706.599 121.435 706.805 120.93 706.945C120.43 707.086 119.87 707.156 119.25 707.156C118.698 707.156 118.151 707.083 117.61 706.938C117.073 706.786 116.586 706.562 116.149 706.266C115.711 705.964 115.362 705.583 115.102 705.125C114.841 704.661 114.711 704.12 114.711 703.5H116.867C116.867 703.859 116.925 704.167 117.039 704.422C117.159 704.672 117.326 704.878 117.539 705.039C117.758 705.195 118.013 705.31 118.305 705.383C118.597 705.456 118.912 705.492 119.25 705.492C119.688 705.492 120.047 705.432 120.328 705.312C120.615 705.188 120.828 705.016 120.969 704.797C121.115 704.578 121.188 704.328 121.188 704.047ZM126.867 695V707H124.797V695H126.867ZM126.539 702.469H125.93C125.93 701.88 126.008 701.339 126.164 700.844C126.321 700.349 126.542 699.919 126.828 699.555C127.115 699.185 127.456 698.898 127.852 698.695C128.253 698.492 128.696 698.391 129.18 698.391C129.597 698.391 129.974 698.451 130.313 698.57C130.656 698.685 130.951 698.87 131.196 699.125C131.44 699.38 131.628 699.714 131.758 700.125C131.893 700.531 131.961 701.026 131.961 701.609V707H129.883V701.594C129.883 701.203 129.826 700.896 129.711 700.672C129.597 700.443 129.433 700.279 129.219 700.18C129.011 700.081 128.753 700.031 128.446 700.031C128.112 700.031 127.826 700.096 127.586 700.227C127.347 700.352 127.149 700.526 126.992 700.75C126.841 700.974 126.727 701.232 126.649 701.523C126.576 701.815 126.539 702.13 126.539 702.469ZM133.414 702.859V702.695C133.414 702.076 133.503 701.505 133.68 700.984C133.857 700.458 134.115 700.003 134.453 699.617C134.792 699.232 135.206 698.932 135.696 698.719C136.185 698.5 136.742 698.391 137.367 698.391C138.003 698.391 138.565 698.5 139.055 698.719C139.55 698.932 139.966 699.232 140.305 699.617C140.643 700.003 140.901 700.458 141.078 700.984C141.255 701.505 141.344 702.076 141.344 702.695V702.859C141.344 703.474 141.255 704.044 141.078 704.57C140.901 705.091 140.643 705.547 140.305 705.938C139.966 706.323 139.552 706.622 139.063 706.836C138.573 707.049 138.013 707.156 137.383 707.156C136.758 707.156 136.198 707.049 135.703 706.836C135.209 706.622 134.792 706.323 134.453 705.938C134.115 705.547 133.857 705.091 133.68 704.57C133.503 704.044 133.414 703.474 133.414 702.859ZM135.477 702.695V702.859C135.477 703.229 135.513 703.576 135.586 703.898C135.659 704.221 135.771 704.505 135.922 704.75C136.073 704.995 136.268 705.188 136.508 705.328C136.753 705.464 137.045 705.531 137.383 705.531C137.716 705.531 138.003 705.464 138.242 705.328C138.482 705.188 138.677 704.995 138.828 704.75C138.985 704.505 139.099 704.221 139.172 703.898C139.245 703.576 139.281 703.229 139.281 702.859V702.695C139.281 702.331 139.245 701.99 139.172 701.672C139.099 701.349 138.985 701.065 138.828 700.82C138.677 700.57 138.479 700.375 138.235 700.234C137.995 700.089 137.706 700.016 137.367 700.016C137.034 700.016 136.748 700.089 136.508 700.234C136.268 700.375 136.073 700.57 135.922 700.82C135.771 701.065 135.659 701.349 135.586 701.672C135.513 701.99 135.477 702.331 135.477 702.695ZM145.196 704.969L147.047 698.547H148.36L147.969 700.766L146.102 707H144.969L145.196 704.969ZM144.172 698.547L145.563 704.984L145.688 707H144.383L142.164 698.547H144.172ZM150.078 704.891L151.438 698.547H153.438L151.235 707H149.93L150.078 704.891ZM148.563 698.547L150.399 704.906L150.641 707H149.508L147.625 700.766L147.242 698.547H148.563ZM158.274 702.859V702.695C158.274 702.076 158.362 701.505 158.539 700.984C158.716 700.458 158.974 700.003 159.313 699.617C159.651 699.232 160.065 698.932 160.555 698.719C161.045 698.5 161.602 698.391 162.227 698.391C162.862 698.391 163.425 698.5 163.914 698.719C164.409 698.932 164.826 699.232 165.164 699.617C165.503 700.003 165.761 700.458 165.938 700.984C166.115 701.505 166.203 702.076 166.203 702.695V702.859C166.203 703.474 166.115 704.044 165.938 704.57C165.761 705.091 165.503 705.547 165.164 705.938C164.826 706.323 164.412 706.622 163.922 706.836C163.433 707.049 162.873 707.156 162.242 707.156C161.617 707.156 161.058 707.049 160.563 706.836C160.068 706.622 159.651 706.323 159.313 705.938C158.974 705.547 158.716 705.091 158.539 704.57C158.362 704.044 158.274 703.474 158.274 702.859ZM160.336 702.695V702.859C160.336 703.229 160.373 703.576 160.446 703.898C160.518 704.221 160.63 704.505 160.781 704.75C160.933 704.995 161.128 705.188 161.367 705.328C161.612 705.464 161.904 705.531 162.242 705.531C162.576 705.531 162.862 705.464 163.102 705.328C163.341 705.188 163.537 704.995 163.688 704.75C163.844 704.505 163.959 704.221 164.031 703.898C164.104 703.576 164.141 703.229 164.141 702.859V702.695C164.141 702.331 164.104 701.99 164.031 701.672C163.959 701.349 163.844 701.065 163.688 700.82C163.537 700.57 163.339 700.375 163.094 700.234C162.854 700.089 162.565 700.016 162.227 700.016C161.893 700.016 161.607 700.089 161.367 700.234C161.128 700.375 160.933 700.57 160.781 700.82C160.63 701.065 160.518 701.349 160.446 701.672C160.373 701.99 160.336 702.331 160.336 702.695ZM170.406 707H168.328V697.766C168.328 697.13 168.451 696.596 168.696 696.164C168.94 695.727 169.289 695.396 169.742 695.172C170.196 694.948 170.729 694.836 171.344 694.836C171.547 694.836 171.74 694.849 171.922 694.875C172.11 694.901 172.295 694.938 172.477 694.984L172.438 696.555C172.339 696.529 172.229 696.51 172.11 696.5C171.995 696.49 171.867 696.484 171.727 696.484C171.446 696.484 171.206 696.534 171.008 696.633C170.81 696.732 170.659 696.878 170.555 697.07C170.456 697.258 170.406 697.49 170.406 697.766V707ZM172.117 698.547V700.031H167.055V698.547H172.117ZM176.094 707H174.016V697.766C174.016 697.13 174.138 696.596 174.383 696.164C174.628 695.727 174.977 695.396 175.43 695.172C175.883 694.948 176.417 694.836 177.031 694.836C177.235 694.836 177.427 694.849 177.61 694.875C177.797 694.901 177.982 694.938 178.164 694.984L178.125 696.555C178.026 696.529 177.917 696.51 177.797 696.5C177.683 696.49 177.555 696.484 177.414 696.484C177.133 696.484 176.893 696.534 176.696 696.633C176.498 696.732 176.347 696.878 176.242 697.07C176.143 697.258 176.094 697.49 176.094 697.766V707ZM177.805 698.547V700.031H172.742V698.547H177.805ZM185.117 700.281V707H183.055V698.547H185L185.117 700.281ZM184.813 702.469H184.18C184.18 701.88 184.25 701.339 184.391 700.844C184.537 700.349 184.75 699.919 185.031 699.555C185.313 699.185 185.659 698.898 186.071 698.695C186.487 698.492 186.969 698.391 187.516 698.391C187.896 698.391 188.245 698.448 188.563 698.562C188.88 698.672 189.154 698.846 189.383 699.086C189.617 699.32 189.797 699.628 189.922 700.008C190.047 700.383 190.11 700.833 190.11 701.359V707H188.047V701.57C188.047 701.174 187.99 700.865 187.875 700.641C187.766 700.417 187.607 700.26 187.399 700.172C187.19 700.078 186.94 700.031 186.649 700.031C186.326 700.031 186.047 700.096 185.813 700.227C185.584 700.352 185.393 700.526 185.242 700.75C185.097 700.974 184.987 701.232 184.914 701.523C184.847 701.815 184.813 702.13 184.813 702.469ZM189.953 702.086L189.102 702.242C189.107 701.711 189.18 701.214 189.321 700.75C189.461 700.281 189.667 699.872 189.938 699.523C190.214 699.169 190.555 698.893 190.961 698.695C191.373 698.492 191.847 698.391 192.383 698.391C192.8 698.391 193.175 698.451 193.508 698.57C193.847 698.685 194.136 698.87 194.375 699.125C194.615 699.375 194.797 699.701 194.922 700.102C195.052 700.503 195.117 700.992 195.117 701.57V707H193.039V701.562C193.039 701.151 192.982 700.836 192.867 700.617C192.758 700.398 192.599 700.247 192.391 700.164C192.183 700.076 191.938 700.031 191.656 700.031C191.37 700.031 191.12 700.086 190.906 700.195C190.698 700.299 190.521 700.445 190.375 700.633C190.235 700.82 190.128 701.039 190.055 701.289C189.987 701.534 189.953 701.799 189.953 702.086ZM199.446 706.062L201.711 698.547H203.922L200.531 708.281C200.453 708.49 200.352 708.716 200.227 708.961C200.107 709.206 199.946 709.438 199.742 709.656C199.539 709.88 199.284 710.062 198.977 710.203C198.675 710.344 198.308 710.414 197.875 710.414C197.688 710.414 197.521 710.401 197.375 710.375C197.229 710.349 197.076 710.315 196.914 710.273V708.727C196.966 708.732 197.026 708.734 197.094 708.734C197.167 708.74 197.229 708.742 197.281 708.742C197.584 708.742 197.834 708.706 198.031 708.633C198.229 708.565 198.388 708.453 198.508 708.297C198.633 708.146 198.737 707.948 198.821 707.703L199.446 706.062ZM198.328 698.547L200.242 704.773L200.578 706.953L199.156 707.211L196.102 698.547H198.328ZM210.961 700.281V707H208.899V698.547H210.844L210.961 700.281ZM210.656 702.469H210.024C210.024 701.88 210.094 701.339 210.235 700.844C210.38 700.349 210.594 699.919 210.875 699.555C211.156 699.185 211.503 698.898 211.914 698.695C212.331 698.492 212.813 698.391 213.36 698.391C213.74 698.391 214.089 698.448 214.406 698.562C214.724 698.672 214.998 698.846 215.227 699.086C215.461 699.32 215.641 699.628 215.766 700.008C215.891 700.383 215.953 700.833 215.953 701.359V707H213.891V701.57C213.891 701.174 213.834 700.865 213.719 700.641C213.61 700.417 213.451 700.26 213.242 700.172C213.034 700.078 212.784 700.031 212.492 700.031C212.17 700.031 211.891 700.096 211.656 700.227C211.427 700.352 211.237 700.526 211.086 700.75C210.94 700.974 210.831 701.232 210.758 701.523C210.69 701.815 210.656 702.13 210.656 702.469ZM215.797 702.086L214.946 702.242C214.951 701.711 215.024 701.214 215.164 700.75C215.305 700.281 215.511 699.872 215.781 699.523C216.058 699.169 216.399 698.893 216.805 698.695C217.216 698.492 217.69 698.391 218.227 698.391C218.643 698.391 219.018 698.451 219.352 698.57C219.69 698.685 219.979 698.87 220.219 699.125C220.459 699.375 220.641 699.701 220.766 700.102C220.896 700.503 220.961 700.992 220.961 701.57V707H218.883V701.562C218.883 701.151 218.826 700.836 218.711 700.617C218.602 700.398 218.443 700.247 218.235 700.164C218.026 700.076 217.781 700.031 217.5 700.031C217.214 700.031 216.964 700.086 216.75 700.195C216.542 700.299 216.365 700.445 216.219 700.633C216.078 700.82 215.972 701.039 215.899 701.289C215.831 701.534 215.797 701.799 215.797 702.086ZM227.844 704.992V698.547H229.922V707H227.969L227.844 704.992ZM228.11 703.242L228.75 703.227C228.75 703.794 228.688 704.318 228.563 704.797C228.438 705.276 228.242 705.693 227.977 706.047C227.716 706.396 227.386 706.669 226.985 706.867C226.584 707.06 226.11 707.156 225.563 707.156C225.146 707.156 224.766 707.099 224.422 706.984C224.078 706.865 223.781 706.68 223.531 706.43C223.287 706.174 223.097 705.849 222.961 705.453C222.826 705.052 222.758 704.57 222.758 704.008V698.547H224.821V704.023C224.821 704.305 224.852 704.539 224.914 704.727C224.982 704.914 225.073 705.068 225.188 705.188C225.308 705.302 225.446 705.385 225.602 705.438C225.763 705.484 225.935 705.508 226.117 705.508C226.617 705.508 227.011 705.409 227.297 705.211C227.589 705.008 227.797 704.737 227.922 704.398C228.047 704.055 228.11 703.669 228.11 703.242ZM236.399 704.688C236.399 704.51 236.352 704.352 236.258 704.211C236.164 704.07 235.987 703.943 235.727 703.828C235.472 703.708 235.097 703.596 234.602 703.492C234.164 703.398 233.761 703.281 233.391 703.141C233.021 703 232.703 702.831 232.438 702.633C232.172 702.43 231.964 702.193 231.813 701.922C231.667 701.646 231.594 701.328 231.594 700.969C231.594 700.62 231.67 700.292 231.821 699.984C231.972 699.672 232.19 699.398 232.477 699.164C232.763 698.924 233.112 698.737 233.524 698.602C233.935 698.461 234.399 698.391 234.914 698.391C235.633 698.391 236.25 698.508 236.766 698.742C237.287 698.977 237.685 699.299 237.961 699.711C238.237 700.117 238.375 700.576 238.375 701.086H236.313C236.313 700.862 236.261 700.659 236.156 700.477C236.058 700.294 235.904 700.148 235.696 700.039C235.487 699.924 235.224 699.867 234.906 699.867C234.62 699.867 234.378 699.914 234.18 700.008C233.987 700.102 233.841 700.224 233.742 700.375C233.643 700.526 233.594 700.693 233.594 700.875C233.594 701.01 233.62 701.133 233.672 701.242C233.729 701.346 233.821 701.443 233.946 701.531C234.071 701.62 234.24 701.701 234.453 701.773C234.672 701.846 234.94 701.917 235.258 701.984C235.888 702.109 236.438 702.276 236.906 702.484C237.38 702.688 237.75 702.958 238.016 703.297C238.281 703.635 238.414 704.068 238.414 704.594C238.414 704.969 238.334 705.312 238.172 705.625C238.011 705.932 237.776 706.201 237.469 706.43C237.162 706.659 236.795 706.839 236.367 706.969C235.94 707.094 235.459 707.156 234.922 707.156C234.146 707.156 233.49 707.018 232.953 706.742C232.417 706.461 232.011 706.107 231.735 705.68C231.459 705.247 231.321 704.799 231.321 704.336H233.297C233.313 704.664 233.401 704.927 233.563 705.125C233.724 705.323 233.927 705.466 234.172 705.555C234.422 705.638 234.685 705.68 234.961 705.68C235.274 705.68 235.537 705.638 235.75 705.555C235.964 705.466 236.125 705.349 236.235 705.203C236.344 705.052 236.399 704.88 236.399 704.688ZM243.453 705.531C243.745 705.531 244.005 705.474 244.235 705.359C244.464 705.245 244.646 705.083 244.781 704.875C244.922 704.667 244.998 704.424 245.008 704.148H246.953C246.943 704.721 246.781 705.234 246.469 705.688C246.156 706.141 245.74 706.5 245.219 706.766C244.703 707.026 244.125 707.156 243.485 707.156C242.834 707.156 242.266 707.047 241.781 706.828C241.297 706.609 240.893 706.305 240.571 705.914C240.253 705.523 240.013 705.07 239.852 704.555C239.696 704.039 239.617 703.487 239.617 702.898V702.648C239.617 702.06 239.696 701.508 239.852 700.992C240.013 700.477 240.253 700.023 240.571 699.633C240.893 699.242 241.297 698.938 241.781 698.719C242.266 698.5 242.831 698.391 243.477 698.391C244.159 698.391 244.758 698.523 245.274 698.789C245.795 699.055 246.201 699.43 246.492 699.914C246.789 700.398 246.943 700.969 246.953 701.625H245.008C244.998 701.323 244.93 701.052 244.805 700.812C244.68 700.573 244.503 700.38 244.274 700.234C244.045 700.089 243.766 700.016 243.438 700.016C243.089 700.016 242.797 700.089 242.563 700.234C242.334 700.38 242.154 700.581 242.024 700.836C241.899 701.086 241.81 701.367 241.758 701.68C241.711 701.987 241.688 702.31 241.688 702.648V702.898C241.688 703.242 241.711 703.57 241.758 703.883C241.81 704.195 241.899 704.477 242.024 704.727C242.154 704.971 242.334 705.167 242.563 705.312C242.797 705.458 243.094 705.531 243.453 705.531ZM250.516 695V707H248.446V695H250.516ZM256.281 707.156C255.641 707.156 255.065 707.052 254.555 706.844C254.045 706.635 253.61 706.346 253.25 705.977C252.896 705.602 252.623 705.167 252.43 704.672C252.242 704.172 252.149 703.635 252.149 703.062V702.75C252.149 702.099 252.242 701.508 252.43 700.977C252.617 700.44 252.883 699.979 253.227 699.594C253.571 699.208 253.982 698.911 254.461 698.703C254.94 698.495 255.469 698.391 256.047 698.391C256.646 698.391 257.175 698.492 257.633 698.695C258.091 698.893 258.474 699.174 258.781 699.539C259.089 699.904 259.321 700.341 259.477 700.852C259.633 701.357 259.711 701.917 259.711 702.531V703.398H253.086V701.977H257.68V701.82C257.67 701.492 257.607 701.193 257.492 700.922C257.378 700.646 257.201 700.427 256.961 700.266C256.722 700.099 256.412 700.016 256.031 700.016C255.724 700.016 255.456 700.083 255.227 700.219C255.003 700.349 254.815 700.536 254.664 700.781C254.518 701.021 254.409 701.307 254.336 701.641C254.263 701.974 254.227 702.344 254.227 702.75V703.062C254.227 703.417 254.274 703.745 254.367 704.047C254.466 704.349 254.61 704.612 254.797 704.836C254.99 705.055 255.219 705.227 255.485 705.352C255.755 705.471 256.063 705.531 256.406 705.531C256.839 705.531 257.229 705.448 257.578 705.281C257.933 705.109 258.24 704.857 258.5 704.523L259.539 705.602C259.362 705.862 259.123 706.112 258.821 706.352C258.524 706.591 258.164 706.786 257.742 706.938C257.321 707.083 256.834 707.156 256.281 707.156Z" fill="black"/>
<path d="M75.9364 408V390.545H82.4819C83.8228 390.545 84.9478 390.778 85.8569 391.244C86.7717 391.71 87.462 392.364 87.9279 393.205C88.3995 394.04 88.6353 395.014 88.6353 396.128C88.6353 397.247 88.3967 398.219 87.9194 399.043C87.4478 399.861 86.7518 400.494 85.8313 400.943C84.9109 401.386 83.7802 401.608 82.4393 401.608H77.7773V398.983H82.0131C82.7972 398.983 83.4393 398.875 83.9393 398.659C84.4393 398.437 84.8086 398.116 85.0472 397.696C85.2915 397.27 85.4137 396.747 85.4137 396.128C85.4137 395.509 85.2915 394.98 85.0472 394.543C84.8029 394.099 84.4308 393.764 83.9308 393.537C83.4308 393.304 82.7859 393.188 81.9961 393.188H79.0984V408H75.9364ZM84.9535 400.091L89.2745 408H85.7461L81.5018 400.091H84.9535ZM97.0174 408.256C95.7049 408.256 94.5714 407.983 93.6168 407.438C92.668 406.886 91.9379 406.108 91.4265 405.102C90.9151 404.091 90.6594 402.901 90.6594 401.531C90.6594 400.185 90.9151 399.003 91.4265 397.986C91.9435 396.963 92.6651 396.168 93.5913 395.599C94.5174 395.026 95.6055 394.739 96.8555 394.739C97.6623 394.739 98.4237 394.869 99.1396 395.131C99.8612 395.386 100.498 395.784 101.049 396.324C101.605 396.864 102.043 397.551 102.361 398.386C102.679 399.216 102.838 400.205 102.838 401.352V402.298H92.1083V400.219H99.881C99.8754 399.628 99.7475 399.102 99.4975 398.642C99.2475 398.176 98.8981 397.81 98.4492 397.543C98.006 397.276 97.489 397.142 96.8981 397.142C96.2674 397.142 95.7134 397.295 95.2362 397.602C94.7589 397.903 94.3867 398.301 94.1197 398.795C93.8583 399.284 93.7248 399.821 93.7191 400.406V402.222C93.7191 402.983 93.8583 403.636 94.1367 404.182C94.4151 404.722 94.8043 405.136 95.3043 405.426C95.8043 405.71 96.3896 405.852 97.06 405.852C97.5089 405.852 97.9151 405.79 98.2788 405.665C98.6424 405.534 98.9577 405.344 99.2248 405.094C99.4918 404.844 99.6935 404.534 99.8299 404.165L102.711 404.489C102.529 405.25 102.182 405.915 101.671 406.483C101.165 407.045 100.517 407.483 99.7276 407.795C98.9379 408.102 98.0344 408.256 97.0174 408.256ZM108.08 408L104.381 394.909H107.526L109.827 404.114H109.946L112.299 394.909H115.409L117.762 404.062H117.89L120.157 394.909H123.31L119.603 408H116.39L113.935 399.153H113.756L111.301 408H108.08ZM129.231 408.264C128.402 408.264 127.654 408.116 126.99 407.821C126.331 407.52 125.808 407.077 125.422 406.491C125.041 405.906 124.85 405.185 124.85 404.327C124.85 403.588 124.987 402.977 125.26 402.494C125.532 402.011 125.904 401.625 126.376 401.335C126.848 401.045 127.379 400.827 127.97 400.679C128.566 400.526 129.183 400.415 129.819 400.347C130.586 400.267 131.208 400.196 131.686 400.134C132.163 400.065 132.51 399.963 132.725 399.827C132.947 399.685 133.058 399.466 133.058 399.17V399.119C133.058 398.477 132.868 397.98 132.487 397.628C132.106 397.276 131.558 397.099 130.842 397.099C130.086 397.099 129.487 397.264 129.044 397.594C128.606 397.923 128.311 398.312 128.157 398.761L125.277 398.352C125.504 397.557 125.879 396.892 126.402 396.358C126.924 395.818 127.564 395.415 128.319 395.148C129.075 394.875 129.91 394.739 130.825 394.739C131.456 394.739 132.083 394.812 132.708 394.96C133.333 395.108 133.904 395.352 134.422 395.693C134.939 396.028 135.353 396.486 135.666 397.065C135.984 397.645 136.143 398.369 136.143 399.239V408H133.177V406.202H133.075C132.887 406.565 132.623 406.906 132.282 407.224C131.947 407.537 131.524 407.79 131.012 407.983C130.507 408.17 129.913 408.264 129.231 408.264ZM130.032 405.997C130.652 405.997 131.189 405.875 131.643 405.631C132.098 405.381 132.447 405.051 132.691 404.642C132.941 404.233 133.066 403.787 133.066 403.304V401.761C132.97 401.841 132.805 401.915 132.572 401.983C132.345 402.051 132.089 402.111 131.805 402.162C131.521 402.213 131.24 402.259 130.961 402.298C130.683 402.338 130.441 402.372 130.237 402.401C129.777 402.463 129.365 402.565 129.001 402.707C128.637 402.849 128.35 403.048 128.14 403.304C127.93 403.554 127.825 403.878 127.825 404.276C127.825 404.844 128.032 405.273 128.447 405.562C128.862 405.852 129.39 405.997 130.032 405.997ZM139.245 408V394.909H142.237V397.091H142.373C142.612 396.335 143.021 395.753 143.6 395.344C144.186 394.929 144.853 394.722 145.603 394.722C145.774 394.722 145.964 394.73 146.174 394.747C146.39 394.759 146.569 394.778 146.711 394.807V397.645C146.581 397.599 146.373 397.56 146.089 397.526C145.811 397.486 145.541 397.466 145.279 397.466C144.717 397.466 144.211 397.588 143.762 397.832C143.319 398.071 142.97 398.403 142.714 398.83C142.458 399.256 142.331 399.747 142.331 400.304V408H139.245ZM153.08 408.23C152.051 408.23 151.131 407.966 150.319 407.438C149.506 406.909 148.864 406.142 148.392 405.136C147.921 404.131 147.685 402.909 147.685 401.472C147.685 400.017 147.924 398.79 148.401 397.79C148.884 396.784 149.534 396.026 150.353 395.514C151.171 394.997 152.083 394.739 153.088 394.739C153.855 394.739 154.486 394.869 154.98 395.131C155.475 395.386 155.867 395.696 156.157 396.06C156.446 396.418 156.671 396.756 156.83 397.074H156.958V390.545H160.051V408H157.017V405.938H156.83C156.671 406.256 156.441 406.594 156.14 406.952C155.838 407.304 155.441 407.605 154.946 407.855C154.452 408.105 153.83 408.23 153.08 408.23ZM153.941 405.699C154.594 405.699 155.151 405.523 155.611 405.17C156.071 404.812 156.421 404.315 156.659 403.679C156.898 403.043 157.017 402.301 157.017 401.455C157.017 400.608 156.898 399.872 156.659 399.247C156.426 398.622 156.08 398.136 155.62 397.79C155.165 397.443 154.605 397.27 153.941 397.27C153.253 397.27 152.679 397.449 152.219 397.807C151.759 398.165 151.412 398.659 151.179 399.29C150.946 399.92 150.83 400.642 150.83 401.455C150.83 402.273 150.946 403.003 151.179 403.645C151.418 404.281 151.767 404.784 152.228 405.153C152.694 405.517 153.265 405.699 153.941 405.699ZM173.686 398.369L170.873 398.676C170.794 398.392 170.654 398.125 170.456 397.875C170.262 397.625 170.001 397.423 169.672 397.27C169.342 397.116 168.939 397.04 168.461 397.04C167.819 397.04 167.279 397.179 166.842 397.457C166.41 397.736 166.197 398.097 166.203 398.54C166.197 398.92 166.336 399.23 166.62 399.469C166.91 399.707 167.387 399.903 168.052 400.057L170.285 400.534C171.524 400.801 172.444 401.224 173.047 401.804C173.654 402.384 173.961 403.142 173.967 404.08C173.961 404.903 173.72 405.631 173.243 406.261C172.771 406.886 172.115 407.375 171.274 407.727C170.433 408.08 169.467 408.256 168.376 408.256C166.774 408.256 165.484 407.92 164.507 407.25C163.529 406.574 162.947 405.634 162.76 404.429L165.768 404.139C165.904 404.73 166.194 405.176 166.637 405.477C167.081 405.778 167.657 405.929 168.368 405.929C169.1 405.929 169.689 405.778 170.132 405.477C170.581 405.176 170.805 404.804 170.805 404.361C170.805 403.986 170.66 403.676 170.37 403.432C170.086 403.187 169.643 403 169.041 402.869L166.808 402.401C165.552 402.139 164.623 401.699 164.021 401.08C163.419 400.455 163.12 399.665 163.126 398.71C163.12 397.903 163.339 397.205 163.782 396.614C164.231 396.017 164.853 395.557 165.649 395.233C166.45 394.903 167.373 394.739 168.419 394.739C169.953 394.739 171.16 395.065 172.041 395.719C172.927 396.372 173.475 397.256 173.686 398.369ZM178.412 408.188C177.895 408.188 177.451 408.006 177.082 407.642C176.713 407.278 176.531 406.835 176.537 406.312C176.531 405.801 176.713 405.364 177.082 405C177.451 404.636 177.895 404.455 178.412 404.455C178.912 404.455 179.346 404.636 179.716 405C180.091 405.364 180.281 405.801 180.287 406.312C180.281 406.659 180.19 406.974 180.014 407.259C179.843 407.543 179.616 407.77 179.332 407.94C179.054 408.105 178.747 408.188 178.412 408.188ZM178.412 398.847C177.895 398.847 177.451 398.665 177.082 398.301C176.713 397.932 176.531 397.489 176.537 396.972C176.531 396.46 176.713 396.023 177.082 395.659C177.451 395.29 177.895 395.105 178.412 395.105C178.912 395.105 179.346 395.29 179.716 395.659C180.091 396.023 180.281 396.46 180.287 396.972C180.281 397.312 180.19 397.625 180.014 397.909C179.843 398.193 179.616 398.42 179.332 398.591C179.054 398.761 178.747 398.847 178.412 398.847ZM196.49 390.545V408H193.328V393.622H193.226L189.144 396.23V393.332L193.482 390.545H196.49ZM207.374 408.332C205.971 408.332 204.766 407.977 203.76 407.267C202.76 406.551 201.99 405.52 201.451 404.173C200.917 402.821 200.65 401.193 200.65 399.29C200.655 397.386 200.925 395.767 201.459 394.432C201.999 393.091 202.769 392.068 203.769 391.364C204.775 390.659 205.976 390.307 207.374 390.307C208.772 390.307 209.973 390.659 210.979 391.364C211.985 392.068 212.755 393.091 213.289 394.432C213.828 395.773 214.098 397.392 214.098 399.29C214.098 401.199 213.828 402.83 213.289 404.182C212.755 405.528 211.985 406.557 210.979 407.267C209.979 407.977 208.777 408.332 207.374 408.332ZM207.374 405.665C208.465 405.665 209.326 405.128 209.956 404.054C210.593 402.974 210.911 401.386 210.911 399.29C210.911 397.903 210.766 396.739 210.476 395.795C210.186 394.852 209.777 394.142 209.249 393.665C208.721 393.182 208.096 392.94 207.374 392.94C206.289 392.94 205.431 393.48 204.8 394.56C204.169 395.634 203.851 397.21 203.846 399.29C203.84 400.682 203.979 401.852 204.263 402.801C204.553 403.75 204.962 404.466 205.49 404.949C206.019 405.426 206.647 405.665 207.374 405.665ZM223.382 408.332C221.978 408.332 220.774 407.977 219.768 407.267C218.768 406.551 217.998 405.52 217.458 404.173C216.924 402.821 216.657 401.193 216.657 399.29C216.663 397.386 216.933 395.767 217.467 394.432C218.007 393.091 218.777 392.068 219.777 391.364C220.782 390.659 221.984 390.307 223.382 390.307C224.779 390.307 225.981 390.659 226.987 391.364C227.993 392.068 228.762 393.091 229.297 394.432C229.836 395.773 230.106 397.392 230.106 399.29C230.106 401.199 229.836 402.83 229.297 404.182C228.762 405.528 227.993 406.557 226.987 407.267C225.987 407.977 224.785 408.332 223.382 408.332ZM223.382 405.665C224.473 405.665 225.333 405.128 225.964 404.054C226.6 402.974 226.919 401.386 226.919 399.29C226.919 397.903 226.774 396.739 226.484 395.795C226.194 394.852 225.785 394.142 225.257 393.665C224.728 393.182 224.103 392.94 223.382 392.94C222.297 392.94 221.439 393.48 220.808 394.56C220.177 395.634 219.859 397.21 219.853 399.29C219.848 400.682 219.987 401.852 220.271 402.801C220.561 403.75 220.97 404.466 221.498 404.949C222.027 405.426 222.654 405.665 223.382 405.665ZM244.516 410.182V388.364H245.914V410.182H244.516ZM248.547 395.344C248.468 394.599 248.132 394.02 247.542 393.605C246.956 393.19 246.195 392.983 245.257 392.983C244.598 392.983 244.033 393.082 243.561 393.281C243.09 393.48 242.729 393.75 242.479 394.091C242.229 394.432 242.101 394.821 242.096 395.259C242.096 395.622 242.178 395.937 242.343 396.205C242.513 396.472 242.743 396.699 243.033 396.886C243.323 397.068 243.644 397.222 243.996 397.347C244.348 397.472 244.703 397.577 245.061 397.662L246.698 398.071C247.357 398.224 247.99 398.432 248.598 398.693C249.212 398.955 249.76 399.284 250.243 399.682C250.732 400.08 251.118 400.56 251.402 401.122C251.686 401.685 251.828 402.344 251.828 403.099C251.828 404.122 251.567 405.023 251.044 405.801C250.522 406.574 249.766 407.179 248.777 407.616C247.794 408.048 246.604 408.264 245.206 408.264C243.848 408.264 242.669 408.054 241.669 407.634C240.675 407.213 239.897 406.599 239.334 405.793C238.777 404.986 238.476 404.003 238.431 402.844H241.542C241.587 403.452 241.775 403.957 242.104 404.361C242.434 404.764 242.863 405.065 243.391 405.264C243.925 405.463 244.522 405.562 245.181 405.562C245.868 405.562 246.471 405.46 246.988 405.256C247.51 405.045 247.919 404.756 248.215 404.386C248.51 404.011 248.661 403.574 248.667 403.074C248.661 402.619 248.527 402.244 248.266 401.949C248.005 401.648 247.638 401.398 247.167 401.199C246.701 400.994 246.155 400.812 245.53 400.653L243.544 400.142C242.107 399.773 240.971 399.213 240.135 398.463C239.306 397.707 238.891 396.705 238.891 395.455C238.891 394.426 239.169 393.526 239.726 392.753C240.289 391.98 241.053 391.381 242.019 390.955C242.985 390.523 244.078 390.307 245.3 390.307C246.539 390.307 247.624 390.523 248.556 390.955C249.493 391.381 250.229 391.974 250.763 392.736C251.297 393.491 251.573 394.361 251.59 395.344H248.547ZM253.88 393.196V390.545H267.806V393.196H262.412V408H259.275V393.196H253.88ZM270.491 408V390.545H277.037C278.377 390.545 279.502 390.795 280.412 391.295C281.326 391.795 282.017 392.483 282.483 393.358C282.954 394.227 283.19 395.216 283.19 396.324C283.19 397.443 282.954 398.437 282.483 399.307C282.011 400.176 281.315 400.861 280.395 401.361C279.474 401.855 278.341 402.102 276.994 402.102H272.656V399.503H276.568C277.352 399.503 277.994 399.366 278.494 399.094C278.994 398.821 279.363 398.446 279.602 397.969C279.846 397.491 279.968 396.943 279.968 396.324C279.968 395.705 279.846 395.159 279.602 394.688C279.363 394.216 278.991 393.849 278.485 393.588C277.985 393.321 277.341 393.188 276.551 393.188H273.653V408H270.491ZM288.578 390.545L292.422 396.938H292.559L296.419 390.545H300.025L294.647 399.273L300.11 408H296.445L292.559 401.651H292.422L288.536 408H284.888L290.402 399.273L284.956 390.545H288.578Z" fill="#C7EFAA"/>
<path d="M78.716 432.364V430.818H86.8396V432.364H83.6926V441H81.863V432.364H78.716ZM90.1258 436.526V441H88.3261V430.818H90.086V434.661H90.1755C90.3545 434.23 90.6312 433.891 91.0058 433.642C91.3836 433.39 91.8642 433.264 92.4475 433.264C92.9778 433.264 93.4402 433.375 93.8346 433.597C94.229 433.819 94.5339 434.144 94.7494 434.572C94.9681 434.999 95.0775 435.521 95.0775 436.138V441H93.2778V436.416C93.2778 435.902 93.1452 435.503 92.8801 435.218C92.6182 434.93 92.2503 434.786 91.7764 434.786C91.4582 434.786 91.1731 434.855 90.9213 434.994C90.6727 435.13 90.4771 435.327 90.3346 435.586C90.1954 435.844 90.1258 436.158 90.1258 436.526ZM100.293 441.149C99.5271 441.149 98.8659 440.99 98.309 440.672C97.7555 440.35 97.3296 439.896 97.0313 439.31C96.733 438.72 96.5839 438.025 96.5839 437.227C96.5839 436.441 96.733 435.752 97.0313 435.158C97.3329 434.562 97.7539 434.098 98.2941 433.766C98.8344 433.432 99.4691 433.264 100.198 433.264C100.669 433.264 101.113 433.34 101.531 433.493C101.952 433.642 102.323 433.874 102.644 434.189C102.969 434.504 103.224 434.905 103.41 435.392C103.595 435.876 103.688 436.453 103.688 437.122V437.674H97.4291V436.461H101.963C101.96 436.116 101.885 435.81 101.739 435.541C101.594 435.269 101.39 435.056 101.128 434.9C100.869 434.744 100.568 434.666 100.223 434.666C99.8552 434.666 99.532 434.756 99.2536 434.935C98.9752 435.11 98.7581 435.342 98.6024 435.631C98.4499 435.916 98.372 436.229 98.3687 436.57V437.629C98.3687 438.073 98.4499 438.455 98.6123 438.773C98.7747 439.088 99.0017 439.33 99.2934 439.499C99.5851 439.664 99.9265 439.747 100.318 439.747C100.579 439.747 100.816 439.711 101.028 439.638C101.241 439.562 101.425 439.451 101.58 439.305C101.736 439.159 101.854 438.978 101.933 438.763L103.614 438.952C103.508 439.396 103.305 439.784 103.007 440.115C102.712 440.443 102.334 440.698 101.874 440.881C101.413 441.06 100.886 441.149 100.293 441.149ZM112.497 433.364V434.756H108.107V433.364H112.497ZM109.191 431.534H110.99V438.703C110.99 438.945 111.027 439.131 111.1 439.26C111.176 439.386 111.275 439.472 111.398 439.518C111.521 439.565 111.657 439.588 111.806 439.588C111.918 439.588 112.021 439.58 112.114 439.563C112.21 439.547 112.283 439.532 112.333 439.518L112.636 440.925C112.54 440.959 112.402 440.995 112.223 441.035C112.048 441.075 111.832 441.098 111.577 441.104C111.126 441.118 110.72 441.05 110.359 440.901C109.998 440.748 109.711 440.513 109.499 440.195C109.29 439.876 109.187 439.479 109.191 439.001V431.534ZM114.002 441V433.364H115.747V434.636H115.826C115.966 434.196 116.204 433.856 116.542 433.617C116.884 433.375 117.273 433.254 117.711 433.254C117.81 433.254 117.921 433.259 118.044 433.269C118.17 433.276 118.274 433.287 118.357 433.304V434.96C118.281 434.933 118.16 434.91 117.994 434.89C117.832 434.867 117.674 434.855 117.522 434.855C117.194 434.855 116.899 434.926 116.637 435.069C116.378 435.208 116.174 435.402 116.025 435.651C115.876 435.899 115.802 436.186 115.802 436.511V441H114.002ZM121.613 441.154C121.129 441.154 120.694 441.068 120.306 440.896C119.921 440.72 119.616 440.461 119.391 440.12C119.169 439.779 119.058 439.358 119.058 438.857C119.058 438.426 119.138 438.07 119.297 437.788C119.456 437.507 119.673 437.281 119.948 437.112C120.223 436.943 120.533 436.816 120.878 436.729C121.226 436.64 121.585 436.575 121.956 436.536C122.404 436.489 122.767 436.448 123.045 436.411C123.324 436.371 123.526 436.312 123.652 436.232C123.781 436.149 123.846 436.022 123.846 435.849V435.82C123.846 435.445 123.735 435.155 123.513 434.95C123.29 434.744 122.971 434.641 122.553 434.641C122.112 434.641 121.763 434.737 121.504 434.93C121.249 435.122 121.076 435.349 120.987 435.611L119.307 435.372C119.439 434.908 119.658 434.52 119.963 434.209C120.268 433.894 120.641 433.659 121.081 433.503C121.522 433.344 122.009 433.264 122.543 433.264C122.911 433.264 123.277 433.307 123.642 433.393C124.006 433.48 124.339 433.622 124.641 433.821C124.943 434.017 125.185 434.283 125.367 434.621C125.553 434.96 125.645 435.382 125.645 435.889V441H123.915V439.951H123.856C123.746 440.163 123.592 440.362 123.393 440.548C123.198 440.73 122.951 440.877 122.652 440.99C122.357 441.099 122.011 441.154 121.613 441.154ZM122.081 439.832C122.442 439.832 122.755 439.76 123.02 439.618C123.285 439.472 123.489 439.28 123.632 439.041C123.778 438.803 123.851 438.542 123.851 438.261V437.361C123.794 437.407 123.698 437.45 123.562 437.49C123.43 437.53 123.281 437.565 123.115 437.594C122.949 437.624 122.785 437.651 122.623 437.674C122.46 437.697 122.319 437.717 122.2 437.734C121.932 437.77 121.691 437.83 121.479 437.913C121.267 437.996 121.1 438.112 120.977 438.261C120.854 438.406 120.793 438.595 120.793 438.827C120.793 439.159 120.914 439.409 121.156 439.578C121.398 439.747 121.706 439.832 122.081 439.832ZM127.455 441V433.364H129.255V441H127.455ZM128.36 432.28C128.075 432.28 127.83 432.185 127.624 431.996C127.419 431.804 127.316 431.574 127.316 431.305C127.316 431.034 127.419 430.803 127.624 430.614C127.83 430.422 128.075 430.326 128.36 430.326C128.648 430.326 128.893 430.422 129.096 430.614C129.301 430.803 129.404 431.034 129.404 431.305C129.404 431.574 129.301 431.804 129.096 431.996C128.893 432.185 128.648 432.28 128.36 432.28ZM132.905 436.526V441H131.105V433.364H132.826V434.661H132.915C133.091 434.234 133.371 433.894 133.755 433.642C134.143 433.39 134.622 433.264 135.192 433.264C135.719 433.264 136.178 433.377 136.569 433.602C136.964 433.828 137.268 434.154 137.484 434.582C137.703 435.009 137.81 435.528 137.807 436.138V441H136.007V436.416C136.007 435.906 135.875 435.506 135.61 435.218C135.348 434.93 134.985 434.786 134.521 434.786C134.206 434.786 133.926 434.855 133.681 434.994C133.439 435.13 133.248 435.327 133.109 435.586C132.973 435.844 132.905 436.158 132.905 436.526ZM139.637 441V433.364H141.436V441H139.637ZM140.541 432.28C140.256 432.28 140.011 432.185 139.806 431.996C139.6 431.804 139.497 431.574 139.497 431.305C139.497 431.034 139.6 430.803 139.806 430.614C140.011 430.422 140.256 430.326 140.541 430.326C140.83 430.326 141.075 430.422 141.277 430.614C141.483 430.803 141.585 431.034 141.585 431.305C141.585 431.574 141.483 431.804 141.277 431.996C141.075 432.185 140.83 432.28 140.541 432.28ZM145.087 436.526V441H143.287V433.364H145.007V434.661H145.097C145.272 434.234 145.552 433.894 145.937 433.642C146.325 433.39 146.804 433.264 147.374 433.264C147.901 433.264 148.36 433.377 148.751 433.602C149.145 433.828 149.45 434.154 149.666 434.582C149.884 435.009 149.992 435.528 149.989 436.138V441H148.189V436.416C148.189 435.906 148.056 435.506 147.791 435.218C147.529 434.93 147.167 434.786 146.703 434.786C146.388 434.786 146.108 434.855 145.862 434.994C145.62 435.13 145.43 435.327 145.291 435.586C145.155 435.844 145.087 436.158 145.087 436.526ZM155.139 444.023C154.493 444.023 153.938 443.935 153.474 443.759C153.01 443.587 152.637 443.355 152.355 443.063C152.073 442.772 151.878 442.448 151.769 442.094L153.389 441.701C153.462 441.85 153.568 441.998 153.707 442.143C153.847 442.293 154.034 442.415 154.269 442.511C154.508 442.611 154.808 442.661 155.169 442.661C155.68 442.661 156.102 442.536 156.437 442.288C156.772 442.042 156.939 441.638 156.939 441.075V439.628H156.85C156.757 439.813 156.621 440.004 156.442 440.2C156.266 440.395 156.033 440.559 155.741 440.692C155.453 440.824 155.09 440.891 154.652 440.891C154.065 440.891 153.533 440.753 153.056 440.478C152.582 440.2 152.204 439.785 151.923 439.235C151.644 438.682 151.505 437.989 151.505 437.157C151.505 436.318 151.644 435.611 151.923 435.034C152.204 434.454 152.584 434.015 153.061 433.717C153.538 433.415 154.07 433.264 154.657 433.264C155.104 433.264 155.472 433.34 155.761 433.493C156.052 433.642 156.284 433.823 156.457 434.035C156.629 434.244 156.76 434.441 156.85 434.626H156.949V433.364H158.724V441.124C158.724 441.777 158.568 442.317 158.256 442.745C157.945 443.173 157.519 443.492 156.979 443.705C156.439 443.917 155.825 444.023 155.139 444.023ZM155.154 439.479C155.535 439.479 155.86 439.386 156.129 439.2C156.397 439.015 156.601 438.748 156.74 438.4C156.879 438.052 156.949 437.634 156.949 437.147C156.949 436.666 156.879 436.246 156.74 435.884C156.604 435.523 156.402 435.243 156.134 435.044C155.868 434.842 155.542 434.741 155.154 434.741C154.753 434.741 154.418 434.845 154.15 435.054C153.881 435.263 153.679 435.549 153.543 435.914C153.408 436.275 153.34 436.686 153.34 437.147C153.34 437.614 153.408 438.024 153.543 438.375C153.683 438.723 153.886 438.995 154.155 439.19C154.427 439.383 154.76 439.479 155.154 439.479ZM170.076 435.382L168.436 435.561C168.389 435.395 168.308 435.24 168.192 435.094C168.08 434.948 167.927 434.83 167.735 434.741C167.543 434.651 167.307 434.607 167.029 434.607C166.654 434.607 166.339 434.688 166.084 434.85C165.832 435.013 165.708 435.223 165.711 435.482C165.708 435.704 165.789 435.884 165.955 436.023C166.124 436.163 166.402 436.277 166.79 436.366L168.093 436.645C168.815 436.801 169.352 437.048 169.704 437.386C170.058 437.724 170.237 438.166 170.241 438.713C170.237 439.194 170.096 439.618 169.818 439.986C169.543 440.35 169.16 440.635 168.669 440.841C168.179 441.046 167.616 441.149 166.979 441.149C166.044 441.149 165.292 440.954 164.722 440.562C164.152 440.168 163.812 439.62 163.703 438.917L165.458 438.748C165.537 439.093 165.706 439.353 165.965 439.528C166.223 439.704 166.56 439.792 166.974 439.792C167.402 439.792 167.745 439.704 168.003 439.528C168.265 439.353 168.396 439.136 168.396 438.877C168.396 438.658 168.312 438.478 168.142 438.335C167.977 438.193 167.718 438.083 167.367 438.007L166.064 437.734C165.332 437.581 164.79 437.324 164.439 436.963C164.087 436.598 163.913 436.138 163.917 435.581C163.913 435.11 164.041 434.703 164.299 434.358C164.561 434.01 164.924 433.741 165.388 433.553C165.856 433.36 166.394 433.264 167.004 433.264C167.899 433.264 168.603 433.455 169.117 433.836C169.634 434.217 169.954 434.732 170.076 435.382ZM175.105 441.149C174.34 441.149 173.678 440.99 173.122 440.672C172.568 440.35 172.142 439.896 171.844 439.31C171.546 438.72 171.396 438.025 171.396 437.227C171.396 436.441 171.546 435.752 171.844 435.158C172.145 434.562 172.566 434.098 173.107 433.766C173.647 433.432 174.282 433.264 175.011 433.264C175.481 433.264 175.926 433.34 176.343 433.493C176.764 433.642 177.135 433.874 177.457 434.189C177.782 434.504 178.037 434.905 178.222 435.392C178.408 435.876 178.501 436.453 178.501 437.122V437.674H172.242V436.461H176.776C176.772 436.116 176.698 435.81 176.552 435.541C176.406 435.269 176.202 435.056 175.94 434.9C175.682 434.744 175.38 434.666 175.036 434.666C174.668 434.666 174.345 434.756 174.066 434.935C173.788 435.11 173.571 435.342 173.415 435.631C173.262 435.916 173.185 436.229 173.181 436.57V437.629C173.181 438.073 173.262 438.455 173.425 438.773C173.587 439.088 173.814 439.33 174.106 439.499C174.398 439.664 174.739 439.747 175.13 439.747C175.392 439.747 175.629 439.711 175.841 439.638C176.053 439.562 176.237 439.451 176.393 439.305C176.549 439.159 176.666 438.978 176.746 438.763L178.426 438.952C178.32 439.396 178.118 439.784 177.82 440.115C177.525 440.443 177.147 440.698 176.686 440.881C176.225 441.06 175.698 441.149 175.105 441.149ZM186.059 435.382L184.418 435.561C184.372 435.395 184.291 435.24 184.175 435.094C184.062 434.948 183.909 434.83 183.717 434.741C183.525 434.651 183.29 434.607 183.011 434.607C182.637 434.607 182.322 434.688 182.067 434.85C181.815 435.013 181.69 435.223 181.694 435.482C181.69 435.704 181.772 435.884 181.937 436.023C182.106 436.163 182.385 436.277 182.773 436.366L184.075 436.645C184.798 436.801 185.335 437.048 185.686 437.386C186.041 437.724 186.22 438.166 186.223 438.713C186.22 439.194 186.079 439.618 185.8 439.986C185.525 440.35 185.142 440.635 184.652 440.841C184.161 441.046 183.598 441.149 182.962 441.149C182.027 441.149 181.275 440.954 180.704 440.562C180.134 440.168 179.795 439.62 179.685 438.917L181.44 438.748C181.52 439.093 181.689 439.353 181.947 439.528C182.206 439.704 182.542 439.792 182.957 439.792C183.384 439.792 183.727 439.704 183.986 439.528C184.248 439.353 184.378 439.136 184.378 438.877C184.378 438.658 184.294 438.478 184.125 438.335C183.959 438.193 183.701 438.083 183.349 438.007L182.047 437.734C181.314 437.581 180.772 437.324 180.421 436.963C180.07 436.598 179.896 436.138 179.899 435.581C179.896 435.11 180.023 434.703 180.282 434.358C180.544 434.01 180.907 433.741 181.371 433.553C181.838 433.36 182.377 433.264 182.986 433.264C183.881 433.264 184.586 433.455 185.099 433.836C185.616 434.217 185.936 434.732 186.059 435.382ZM193.742 435.382L192.102 435.561C192.055 435.395 191.974 435.24 191.858 435.094C191.746 434.948 191.593 434.83 191.401 434.741C191.209 434.651 190.973 434.607 190.695 434.607C190.32 434.607 190.005 434.688 189.75 434.85C189.498 435.013 189.374 435.223 189.377 435.482C189.374 435.704 189.455 435.884 189.621 436.023C189.79 436.163 190.068 436.277 190.456 436.366L191.759 436.645C192.481 436.801 193.018 437.048 193.37 437.386C193.724 437.724 193.903 438.166 193.907 438.713C193.903 439.194 193.762 439.618 193.484 439.986C193.209 440.35 192.826 440.635 192.335 440.841C191.845 441.046 191.282 441.149 190.645 441.149C189.71 441.149 188.958 440.954 188.388 440.562C187.818 440.168 187.478 439.62 187.369 438.917L189.124 438.748C189.203 439.093 189.372 439.353 189.631 439.528C189.889 439.704 190.226 439.792 190.64 439.792C191.068 439.792 191.411 439.704 191.669 439.528C191.931 439.353 192.062 439.136 192.062 438.877C192.062 438.658 191.978 438.478 191.809 438.335C191.643 438.193 191.384 438.083 191.033 438.007L189.73 437.734C188.998 437.581 188.456 437.324 188.105 436.963C187.753 436.598 187.579 436.138 187.583 435.581C187.579 435.11 187.707 434.703 187.965 434.358C188.227 434.01 188.59 433.741 189.054 433.553C189.522 433.36 190.06 433.264 190.67 433.264C191.565 433.264 192.269 433.455 192.783 433.836C193.3 434.217 193.62 434.732 193.742 435.382ZM195.391 441V433.364H197.19V441H195.391ZM196.295 432.28C196.01 432.28 195.765 432.185 195.56 431.996C195.354 431.804 195.251 431.574 195.251 431.305C195.251 431.034 195.354 430.803 195.56 430.614C195.765 430.422 196.01 430.326 196.295 430.326C196.584 430.326 196.829 430.422 197.031 430.614C197.237 430.803 197.339 431.034 197.339 431.305C197.339 431.574 197.237 431.804 197.031 431.996C196.829 432.185 196.584 432.28 196.295 432.28ZM202.372 441.149C201.626 441.149 200.98 440.985 200.433 440.657C199.886 440.329 199.462 439.87 199.16 439.28C198.862 438.69 198.713 438 198.713 437.212C198.713 436.423 198.862 435.732 199.16 435.138C199.462 434.545 199.886 434.085 200.433 433.756C200.98 433.428 201.626 433.264 202.372 433.264C203.118 433.264 203.764 433.428 204.311 433.756C204.858 434.085 205.28 434.545 205.579 435.138C205.88 435.732 206.031 436.423 206.031 437.212C206.031 438 205.88 438.69 205.579 439.28C205.28 439.87 204.858 440.329 204.311 440.657C203.764 440.985 203.118 441.149 202.372 441.149ZM202.382 439.707C202.786 439.707 203.124 439.596 203.396 439.374C203.668 439.149 203.87 438.847 204.003 438.469C204.138 438.092 204.206 437.671 204.206 437.207C204.206 436.739 204.138 436.317 204.003 435.939C203.87 435.558 203.668 435.254 203.396 435.029C203.124 434.804 202.786 434.691 202.382 434.691C201.968 434.691 201.623 434.804 201.348 435.029C201.076 435.254 200.872 435.558 200.736 435.939C200.604 436.317 200.537 436.739 200.537 437.207C200.537 437.671 200.604 438.092 200.736 438.469C200.872 438.847 201.076 439.149 201.348 439.374C201.623 439.596 201.968 439.707 202.382 439.707ZM209.358 436.526V441H207.559V433.364H209.279V434.661H209.368C209.544 434.234 209.824 433.894 210.208 433.642C210.596 433.39 211.075 433.264 211.645 433.264C212.172 433.264 212.631 433.377 213.022 433.602C213.417 433.828 213.722 434.154 213.937 434.582C214.156 435.009 214.264 435.528 214.26 436.138V441H212.46V436.416C212.46 435.906 212.328 435.506 212.063 435.218C211.801 434.93 211.438 434.786 210.974 434.786C210.659 434.786 210.379 434.855 210.134 434.994C209.892 435.13 209.701 435.327 209.562 435.586C209.426 435.844 209.358 436.158 209.358 436.526ZM219.562 441V433.364H221.362V441H219.562ZM220.467 432.28C220.182 432.28 219.937 432.185 219.731 431.996C219.526 431.804 219.423 431.574 219.423 431.305C219.423 431.034 219.526 430.803 219.731 430.614C219.937 430.422 220.182 430.326 220.467 430.326C220.756 430.326 221.001 430.422 221.203 430.614C221.409 430.803 221.511 431.034 221.511 431.305C221.511 431.574 221.409 431.804 221.203 431.996C221.001 432.185 220.756 432.28 220.467 432.28ZM229.248 435.382L227.608 435.561C227.561 435.395 227.48 435.24 227.364 435.094C227.251 434.948 227.099 434.83 226.907 434.741C226.714 434.651 226.479 434.607 226.201 434.607C225.826 434.607 225.511 434.688 225.256 434.85C225.004 435.013 224.88 435.223 224.883 435.482C224.88 435.704 224.961 435.884 225.127 436.023C225.296 436.163 225.574 436.277 225.962 436.366L227.265 436.645C227.987 436.801 228.524 437.048 228.875 437.386C229.23 437.724 229.409 438.166 229.412 438.713C229.409 439.194 229.268 439.618 228.99 439.986C228.715 440.35 228.332 440.635 227.841 440.841C227.351 441.046 226.787 441.149 226.151 441.149C225.216 441.149 224.464 440.954 223.894 440.562C223.324 440.168 222.984 439.62 222.875 438.917L224.63 438.748C224.709 439.093 224.878 439.353 225.137 439.528C225.395 439.704 225.732 439.792 226.146 439.792C226.574 439.792 226.917 439.704 227.175 439.528C227.437 439.353 227.568 439.136 227.568 438.877C227.568 438.658 227.483 438.478 227.314 438.335C227.149 438.193 226.89 438.083 226.539 438.007L225.236 437.734C224.504 437.581 223.962 437.324 223.611 436.963C223.259 436.598 223.085 436.138 223.089 435.581C223.085 435.11 223.213 434.703 223.471 434.358C223.733 434.01 224.096 433.741 224.56 433.553C225.027 433.36 225.566 433.264 226.176 433.264C227.071 433.264 227.775 433.455 228.289 433.836C228.806 434.217 229.126 434.732 229.248 435.382ZM237.7 441.149C236.938 441.149 236.283 440.982 235.736 440.647C235.193 440.312 234.773 439.85 234.478 439.26C234.187 438.667 234.041 437.984 234.041 437.212C234.041 436.436 234.19 435.752 234.488 435.158C234.787 434.562 235.208 434.098 235.751 433.766C236.298 433.432 236.944 433.264 237.69 433.264C238.31 433.264 238.858 433.379 239.336 433.607C239.816 433.833 240.199 434.152 240.484 434.567C240.769 434.978 240.932 435.458 240.971 436.009H239.251C239.182 435.641 239.016 435.334 238.754 435.089C238.495 434.84 238.149 434.716 237.715 434.716C237.347 434.716 237.024 434.815 236.745 435.014C236.467 435.21 236.25 435.491 236.094 435.859C235.942 436.227 235.866 436.668 235.866 437.182C235.866 437.702 235.942 438.15 236.094 438.524C236.247 438.895 236.46 439.182 236.736 439.384C237.014 439.583 237.34 439.683 237.715 439.683C237.98 439.683 238.217 439.633 238.426 439.533C238.638 439.431 238.815 439.283 238.958 439.091C239.1 438.899 239.198 438.665 239.251 438.39H240.971C240.928 438.93 240.769 439.409 240.494 439.827C240.219 440.241 239.844 440.566 239.37 440.801C238.897 441.033 238.34 441.149 237.7 441.149ZM245.78 441.149C245.034 441.149 244.388 440.985 243.841 440.657C243.294 440.329 242.87 439.87 242.568 439.28C242.27 438.69 242.121 438 242.121 437.212C242.121 436.423 242.27 435.732 242.568 435.138C242.87 434.545 243.294 434.085 243.841 433.756C244.388 433.428 245.034 433.264 245.78 433.264C246.526 433.264 247.172 433.428 247.719 433.756C248.266 434.085 248.688 434.545 248.987 435.138C249.288 435.732 249.439 436.423 249.439 437.212C249.439 438 249.288 438.69 248.987 439.28C248.688 439.87 248.266 440.329 247.719 440.657C247.172 440.985 246.526 441.149 245.78 441.149ZM245.79 439.707C246.194 439.707 246.532 439.596 246.804 439.374C247.076 439.149 247.278 438.847 247.411 438.469C247.547 438.092 247.615 437.671 247.615 437.207C247.615 436.739 247.547 436.317 247.411 435.939C247.278 435.558 247.076 435.254 246.804 435.029C246.532 434.804 246.194 434.691 245.79 434.691C245.376 434.691 245.031 434.804 244.756 435.029C244.484 435.254 244.28 435.558 244.144 435.939C244.012 436.317 243.946 436.739 243.946 437.207C243.946 437.671 244.012 438.092 244.144 438.469C244.28 438.847 244.484 439.149 244.756 439.374C245.031 439.596 245.376 439.707 245.79 439.707ZM250.967 441V433.364H252.687V434.661H252.776C252.935 434.224 253.199 433.882 253.567 433.637C253.935 433.388 254.374 433.264 254.884 433.264C255.401 433.264 255.837 433.39 256.192 433.642C256.55 433.891 256.802 434.23 256.948 434.661H257.027C257.196 434.237 257.481 433.899 257.882 433.647C258.287 433.392 258.765 433.264 259.319 433.264C260.022 433.264 260.595 433.486 261.039 433.93C261.483 434.375 261.705 435.022 261.705 435.874V441H259.901V436.153C259.901 435.679 259.775 435.332 259.523 435.114C259.271 434.892 258.963 434.781 258.598 434.781C258.164 434.781 257.824 434.916 257.579 435.188C257.337 435.457 257.216 435.806 257.216 436.237V441H255.451V436.078C255.451 435.684 255.332 435.369 255.093 435.134C254.858 434.898 254.55 434.781 254.168 434.781C253.91 434.781 253.675 434.847 253.462 434.979C253.25 435.109 253.081 435.293 252.955 435.531C252.829 435.767 252.766 436.042 252.766 436.357V441H250.967ZM263.531 443.864V433.364H265.301V434.626H265.405C265.498 434.441 265.629 434.244 265.798 434.035C265.967 433.823 266.196 433.642 266.484 433.493C266.773 433.34 267.141 433.264 267.588 433.264C268.178 433.264 268.71 433.415 269.184 433.717C269.661 434.015 270.039 434.457 270.317 435.044C270.599 435.627 270.74 436.343 270.74 437.192C270.74 438.03 270.602 438.743 270.327 439.33C270.052 439.916 269.678 440.364 269.204 440.672C268.73 440.98 268.193 441.134 267.593 441.134C267.155 441.134 266.793 441.061 266.504 440.915C266.216 440.77 265.984 440.594 265.808 440.388C265.636 440.18 265.502 439.982 265.405 439.797H265.331V443.864H263.531ZM265.296 437.182C265.296 437.676 265.366 438.108 265.505 438.479C265.647 438.851 265.851 439.141 266.116 439.349C266.385 439.555 266.71 439.658 267.091 439.658C267.489 439.658 267.822 439.552 268.09 439.339C268.359 439.124 268.561 438.831 268.697 438.46C268.836 438.085 268.905 437.659 268.905 437.182C268.905 436.708 268.838 436.287 268.702 435.919C268.566 435.551 268.364 435.263 268.095 435.054C267.827 434.845 267.492 434.741 267.091 434.741C266.706 434.741 266.38 434.842 266.111 435.044C265.843 435.246 265.639 435.53 265.5 435.894C265.364 436.259 265.296 436.688 265.296 437.182ZM274.081 430.818V441H272.281V430.818H274.081ZM279.312 441.149C278.547 441.149 277.885 440.99 277.329 440.672C276.775 440.35 276.349 439.896 276.051 439.31C275.753 438.72 275.603 438.025 275.603 437.227C275.603 436.441 275.753 435.752 276.051 435.158C276.352 434.562 276.773 434.098 277.314 433.766C277.854 433.432 278.489 433.264 279.218 433.264C279.688 433.264 280.133 433.34 280.55 433.493C280.971 433.642 281.342 433.874 281.664 434.189C281.989 434.504 282.244 434.905 282.429 435.392C282.615 435.876 282.708 436.453 282.708 437.122V437.674H276.449V436.461H280.983C280.979 436.116 280.905 435.81 280.759 435.541C280.613 435.269 280.409 435.056 280.147 434.9C279.889 434.744 279.587 434.666 279.243 434.666C278.875 434.666 278.552 434.756 278.273 434.935C277.995 435.11 277.778 435.342 277.622 435.631C277.469 435.916 277.392 436.229 277.388 436.57V437.629C277.388 438.073 277.469 438.455 277.632 438.773C277.794 439.088 278.021 439.33 278.313 439.499C278.605 439.664 278.946 439.747 279.337 439.747C279.599 439.747 279.836 439.711 280.048 439.638C280.26 439.562 280.444 439.451 280.6 439.305C280.756 439.159 280.873 438.978 280.953 438.763L282.633 438.952C282.527 439.396 282.325 439.784 282.027 440.115C281.732 440.443 281.354 440.698 280.893 440.881C280.432 441.06 279.906 441.149 279.312 441.149ZM288.044 433.364V434.756H283.654V433.364H288.044ZM284.737 431.534H286.537V438.703C286.537 438.945 286.574 439.131 286.647 439.26C286.723 439.386 286.822 439.472 286.945 439.518C287.068 439.565 287.203 439.588 287.353 439.588C287.465 439.588 287.568 439.58 287.661 439.563C287.757 439.547 287.83 439.532 287.88 439.518L288.183 440.925C288.087 440.959 287.949 440.995 287.77 441.035C287.594 441.075 287.379 441.098 287.124 441.104C286.673 441.118 286.267 441.05 285.906 440.901C285.545 440.748 285.258 440.513 285.046 440.195C284.837 439.876 284.734 439.479 284.737 439.001V431.534ZM292.847 441.149C292.082 441.149 291.421 440.99 290.864 440.672C290.31 440.35 289.884 439.896 289.586 439.31C289.288 438.72 289.139 438.025 289.139 437.227C289.139 436.441 289.288 435.752 289.586 435.158C289.888 434.562 290.309 434.098 290.849 433.766C291.389 433.432 292.024 433.264 292.753 433.264C293.224 433.264 293.668 433.34 294.085 433.493C294.506 433.642 294.877 433.874 295.199 434.189C295.524 434.504 295.779 434.905 295.965 435.392C296.15 435.876 296.243 436.453 296.243 437.122V437.674H289.984V436.461H294.518C294.515 436.116 294.44 435.81 294.294 435.541C294.148 435.269 293.944 435.056 293.683 434.9C293.424 434.744 293.122 434.666 292.778 434.666C292.41 434.666 292.087 434.756 291.808 434.935C291.53 435.11 291.313 435.342 291.157 435.631C291.005 435.916 290.927 436.229 290.923 436.57V437.629C290.923 438.073 291.005 438.455 291.167 438.773C291.329 439.088 291.556 439.33 291.848 439.499C292.14 439.664 292.481 439.747 292.872 439.747C293.134 439.747 293.371 439.711 293.583 439.638C293.795 439.562 293.979 439.451 294.135 439.305C294.291 439.159 294.408 438.978 294.488 438.763L296.168 438.952C296.062 439.396 295.86 439.784 295.562 440.115C295.267 440.443 294.889 440.698 294.428 440.881C293.968 441.06 293.441 441.149 292.847 441.149Z" fill="white"/>
<path d="M158.111 359.435H154.924C154.833 358.912 154.665 358.449 154.421 358.045C154.176 357.636 153.873 357.29 153.509 357.006C153.145 356.722 152.73 356.509 152.265 356.366C151.804 356.219 151.307 356.145 150.773 356.145C149.824 356.145 148.983 356.384 148.25 356.861C147.517 357.332 146.944 358.026 146.529 358.94C146.114 359.849 145.907 360.96 145.907 362.273C145.907 363.608 146.114 364.733 146.529 365.648C146.949 366.557 147.523 367.244 148.25 367.71C148.983 368.17 149.821 368.401 150.765 368.401C151.287 368.401 151.776 368.332 152.23 368.196C152.691 368.054 153.103 367.847 153.466 367.574C153.836 367.301 154.145 366.966 154.395 366.568C154.651 366.17 154.827 365.716 154.924 365.205L158.111 365.222C157.992 366.051 157.733 366.83 157.336 367.557C156.944 368.284 156.429 368.926 155.793 369.483C155.157 370.034 154.412 370.466 153.56 370.778C152.708 371.085 151.762 371.239 150.722 371.239C149.188 371.239 147.819 370.884 146.614 370.173C145.409 369.463 144.461 368.438 143.767 367.097C143.074 365.756 142.728 364.148 142.728 362.273C142.728 360.392 143.077 358.784 143.776 357.449C144.475 356.108 145.426 355.082 146.631 354.372C147.836 353.662 149.199 353.307 150.722 353.307C151.694 353.307 152.597 353.443 153.432 353.716C154.267 353.989 155.012 354.389 155.665 354.918C156.319 355.44 156.855 356.082 157.276 356.844C157.702 357.599 157.98 358.463 158.111 359.435ZM163.956 363.33V371H160.87V353.545H163.887V360.134H164.041C164.348 359.395 164.822 358.812 165.464 358.386C166.112 357.955 166.936 357.739 167.936 357.739C168.845 357.739 169.637 357.929 170.314 358.31C170.99 358.69 171.512 359.247 171.882 359.98C172.257 360.713 172.444 361.608 172.444 362.665V371H169.359V363.142C169.359 362.261 169.132 361.577 168.677 361.088C168.228 360.594 167.598 360.347 166.785 360.347C166.24 360.347 165.751 360.466 165.319 360.705C164.893 360.937 164.558 361.276 164.314 361.719C164.075 362.162 163.956 362.699 163.956 363.33ZM181.385 371.256C180.072 371.256 178.939 370.983 177.984 370.438C177.035 369.886 176.305 369.108 175.794 368.102C175.282 367.091 175.027 365.901 175.027 364.531C175.027 363.185 175.282 362.003 175.794 360.986C176.311 359.963 177.032 359.168 177.958 358.599C178.885 358.026 179.973 357.739 181.223 357.739C182.029 357.739 182.791 357.869 183.507 358.131C184.228 358.386 184.865 358.784 185.416 359.324C185.973 359.864 186.41 360.551 186.728 361.386C187.047 362.216 187.206 363.205 187.206 364.352V365.298H176.475V363.219H184.248C184.243 362.628 184.115 362.102 183.865 361.642C183.615 361.176 183.265 360.81 182.816 360.543C182.373 360.276 181.856 360.142 181.265 360.142C180.635 360.142 180.081 360.295 179.603 360.602C179.126 360.903 178.754 361.301 178.487 361.795C178.225 362.284 178.092 362.821 178.086 363.406V365.222C178.086 365.983 178.225 366.636 178.504 367.182C178.782 367.722 179.172 368.136 179.672 368.426C180.172 368.71 180.757 368.852 181.427 368.852C181.876 368.852 182.282 368.79 182.646 368.665C183.01 368.534 183.325 368.344 183.592 368.094C183.859 367.844 184.061 367.534 184.197 367.165L187.078 367.489C186.896 368.25 186.549 368.915 186.038 369.483C185.532 370.045 184.885 370.483 184.095 370.795C183.305 371.102 182.402 371.256 181.385 371.256ZM195.611 371.256C194.299 371.256 193.165 370.983 192.211 370.438C191.262 369.886 190.532 369.108 190.02 368.102C189.509 367.091 189.253 365.901 189.253 364.531C189.253 363.185 189.509 362.003 190.02 360.986C190.537 359.963 191.259 359.168 192.185 358.599C193.111 358.026 194.199 357.739 195.449 357.739C196.256 357.739 197.017 357.869 197.733 358.131C198.455 358.386 199.091 358.784 199.642 359.324C200.199 359.864 200.637 360.551 200.955 361.386C201.273 362.216 201.432 363.205 201.432 364.352V365.298H190.702V363.219H198.475C198.469 362.628 198.341 362.102 198.091 361.642C197.841 361.176 197.492 360.81 197.043 360.543C196.6 360.276 196.083 360.142 195.492 360.142C194.861 360.142 194.307 360.295 193.83 360.602C193.353 360.903 192.98 361.301 192.713 361.795C192.452 362.284 192.319 362.821 192.313 363.406V365.222C192.313 365.983 192.452 366.636 192.73 367.182C193.009 367.722 193.398 368.136 193.898 368.426C194.398 368.71 194.983 368.852 195.654 368.852C196.103 368.852 196.509 368.79 196.873 368.665C197.236 368.534 197.551 368.344 197.819 368.094C198.086 367.844 198.287 367.534 198.424 367.165L201.304 367.489C201.123 368.25 200.776 368.915 200.265 369.483C199.759 370.045 199.111 370.483 198.321 370.795C197.532 371.102 196.628 371.256 195.611 371.256ZM204.042 371V357.909H207.034V360.091H207.17C207.409 359.335 207.818 358.753 208.397 358.344C208.983 357.929 209.65 357.722 210.4 357.722C210.571 357.722 210.761 357.73 210.971 357.747C211.187 357.759 211.366 357.778 211.508 357.807V360.645C211.377 360.599 211.17 360.56 210.886 360.526C210.608 360.486 210.338 360.466 210.076 360.466C209.514 360.466 209.008 360.588 208.559 360.832C208.116 361.071 207.767 361.403 207.511 361.83C207.255 362.256 207.127 362.747 207.127 363.304V371H204.042ZM223.904 361.369L221.092 361.676C221.012 361.392 220.873 361.125 220.674 360.875C220.481 360.625 220.22 360.423 219.89 360.27C219.561 360.116 219.157 360.04 218.68 360.04C218.038 360.04 217.498 360.179 217.061 360.457C216.629 360.736 216.416 361.097 216.422 361.54C216.416 361.92 216.555 362.23 216.839 362.469C217.129 362.707 217.606 362.903 218.271 363.057L220.504 363.534C221.743 363.801 222.663 364.224 223.265 364.804C223.873 365.384 224.18 366.142 224.186 367.08C224.18 367.903 223.939 368.631 223.461 369.261C222.99 369.886 222.333 370.375 221.493 370.727C220.652 371.08 219.686 371.256 218.595 371.256C216.993 371.256 215.703 370.92 214.725 370.25C213.748 369.574 213.166 368.634 212.978 367.429L215.987 367.139C216.123 367.73 216.413 368.176 216.856 368.477C217.299 368.778 217.876 368.929 218.586 368.929C219.319 368.929 219.907 368.778 220.35 368.477C220.799 368.176 221.024 367.804 221.024 367.361C221.024 366.986 220.879 366.676 220.589 366.432C220.305 366.187 219.862 366 219.26 365.869L217.027 365.401C215.771 365.139 214.842 364.699 214.24 364.08C213.637 363.455 213.339 362.665 213.345 361.71C213.339 360.903 213.558 360.205 214.001 359.614C214.45 359.017 215.072 358.557 215.868 358.233C216.669 357.903 217.592 357.739 218.637 357.739C220.172 357.739 221.379 358.065 222.26 358.719C223.146 359.372 223.694 360.256 223.904 361.369ZM230.505 353.545L230.224 365.869H227.48L227.207 353.545H230.505ZM228.852 371.188C228.335 371.188 227.892 371.006 227.522 370.642C227.159 370.278 226.977 369.835 226.977 369.312C226.977 368.801 227.159 368.364 227.522 368C227.892 367.636 228.335 367.455 228.852 367.455C229.358 367.455 229.795 367.636 230.164 368C230.539 368.364 230.727 368.801 230.727 369.312C230.727 369.659 230.639 369.974 230.463 370.259C230.292 370.543 230.065 370.77 229.781 370.94C229.502 371.105 229.193 371.188 228.852 371.188Z" fill="#C7EFAA"/>
<path d="M266.679 216.058C265.838 214.167 263.334 208.852 259.803 203.518C254.365 195.301 249.002 190.828 243.826 190.173C243.415 188.001 242.219 184.295 238.837 181.993C235.118 179.466 229.96 179.335 223.495 181.638C219.608 183.023 216.674 186.448 216.058 190.378C215.572 193.485 216.637 196.386 218.917 198.146C221.253 199.961 225.719 201.328 233.922 198.258C234.202 202.395 235.23 210.256 238.874 215.646C238.126 215.646 237.36 215.702 236.613 215.815C229.325 216.844 224.523 222.272 223.065 224.106C221.832 223.713 220.711 223.507 219.664 223.488C217.44 217.368 209.816 214.055 203.594 213.063C198.156 212.183 191.055 212.689 187.71 216.638C184.552 214.635 180.441 213.625 175.676 213.831C168.351 214.149 160.26 217.518 158.485 222.534C156.672 222.796 154.785 223.357 152.972 224.237C151.645 222.515 146.787 216.863 139.331 215.815C138.584 215.702 137.817 215.665 137.07 215.665C140.695 210.274 141.723 202.413 142.022 198.277C150.207 201.346 154.673 199.98 157.027 198.165C159.307 196.405 160.372 193.504 159.886 190.397C159.27 186.467 156.336 183.023 152.449 181.656C145.983 179.373 140.807 179.485 137.107 182.012C133.706 184.333 132.529 188.02 132.118 190.191C126.942 190.828 121.579 195.32 116.141 203.536C112.609 208.871 110.105 214.186 109.265 216.077C105.957 217.499 104.201 219.371 104.014 221.673C103.752 225.098 107.321 227.868 108.966 228.972C112.796 249.037 129.595 251.32 137.014 251.32C137.388 251.32 137.724 251.32 138.042 251.302C137.855 252.5 137.743 253.697 137.761 254.914C137.817 261.296 140.62 266.369 144.563 267.885C144.432 268.203 144.264 268.484 144.152 268.802C142.097 274.398 143.909 280.219 148.992 284.356C151.907 286.733 155.42 287.743 158.672 287.743C159.924 287.743 161.138 287.575 162.278 287.313C164.763 289.634 169.846 291 174.947 291C177.526 291 180.105 290.663 182.366 289.914C185.524 288.885 187.879 287.144 189.355 284.861C190.681 286.957 192.401 288.548 194.512 289.578C196.381 290.495 198.53 290.963 200.791 290.963C203.015 290.963 205.369 290.513 207.686 289.634C209.966 288.754 211.76 287.35 212.956 285.591C214.544 286.171 216.843 286.676 219.384 286.676C221.196 286.676 223.121 286.414 224.99 285.759C228.447 284.543 231.082 282.11 232.614 278.74C234.464 274.66 234.202 270.786 231.885 267.791C232.371 267.567 232.838 267.286 233.305 266.949C236.389 264.591 238.388 259.724 238.388 254.577C238.388 253.435 238.276 252.35 238.07 251.302C238.351 251.302 238.65 251.32 238.986 251.32C246.405 251.32 263.204 249.037 267.034 228.972C268.697 227.868 272.248 225.098 271.986 221.673C271.743 219.352 269.987 217.48 266.679 216.058ZM112.441 227.494C112.348 226.951 112.011 226.464 111.526 226.184C109.844 225.21 107.583 223.208 107.676 221.954C107.751 221.111 109.078 220.101 111.264 219.277C111.731 219.09 112.124 218.734 112.31 218.266C115.207 211.435 124.606 193.86 133.333 193.86C133.426 193.86 133.52 193.86 133.594 193.86C134.603 193.897 135.5 193.092 135.538 192.063C135.538 192.025 135.781 187.365 139.144 185.082C141.816 183.266 145.853 183.303 151.122 185.175C153.738 186.111 155.7 188.376 156.13 190.977C156.41 192.737 155.887 194.253 154.691 195.189C152.225 197.098 147.217 196.592 140.975 193.822C140.396 193.56 139.723 193.616 139.2 193.972C138.677 194.309 138.359 194.908 138.359 195.544C138.359 200.542 136.883 214.13 130.1 217.031C130.081 217.05 130.063 217.069 130.044 217.069C127.689 218.023 125.316 219.427 122.98 221.336C122.177 221.991 122.065 223.17 122.719 223.975C123.373 224.78 124.55 224.892 125.354 224.237C129.894 220.512 134.417 218.94 138.77 219.539C144.376 220.325 148.338 224.537 149.721 226.202C144.956 229.74 142.713 234.793 143.554 240.072C143.592 240.334 143.704 240.577 143.834 240.783C141.592 242.542 140.004 244.9 138.995 247.54C134.491 247.895 115.936 248.195 112.441 227.494ZM230.951 263.954C229.998 264.684 228.989 264.909 227.886 264.647C225.476 263.505 222.598 263.131 219.851 263.73C218.842 263.954 218.207 264.946 218.431 265.957C218.655 266.968 219.646 267.604 220.655 267.379C223.682 266.706 227.008 267.754 228.764 269.925C230.297 271.815 230.409 274.323 229.12 277.168C227.998 279.62 226.167 281.323 223.663 282.203C220.356 283.382 216.413 282.877 214.282 282.091C214.75 279.358 213.853 276.588 211.76 274.398C211.05 273.65 209.872 273.631 209.125 274.342C208.378 275.053 208.359 276.251 209.069 276.981C210.414 278.385 210.938 280.051 210.564 281.698C210.134 283.607 208.583 285.198 206.285 286.077C204.528 286.751 200.025 288.099 196.101 286.171C193.634 284.954 191.691 282.671 190.868 279.227C190.681 278.422 189.915 277.936 188.981 277.936C187.991 277.917 187.411 278.703 187.206 279.583C186.477 282.746 184.851 285.067 181.114 286.283C175.994 287.968 169.435 287.051 166.165 285.46C168.314 283.925 169.416 281.773 169.229 279.414C169.155 278.385 168.258 277.617 167.211 277.692C166.184 277.767 165.417 278.684 165.492 279.714C165.623 281.361 164.128 282.409 163.231 282.877C160.241 284.449 155.028 284.449 151.253 281.38C147.404 278.235 146.058 274.099 147.553 270.018C148.992 266.107 152.655 263.355 156.186 263.374C157.214 263.374 158.074 262.569 158.092 261.54C158.111 260.51 157.289 259.649 156.261 259.631C152.636 259.574 149.029 261.484 146.525 264.497C143.367 264.104 141.443 259.387 141.387 254.802C141.331 248.644 144.489 241.382 153.589 241.213C154.617 241.195 155.439 240.334 155.42 239.304C155.401 238.275 154.579 237.507 153.514 237.47C151.085 237.526 148.973 237.994 147.123 238.761C146.656 233.858 149.833 230.638 151.851 229.122C155.906 226.109 160.839 225.454 163.119 226.558C164.091 227.026 164.558 227.793 164.595 228.954C164.614 229.983 165.492 230.807 166.52 230.769C167.548 230.751 168.37 229.89 168.332 228.841C168.258 226.277 167.006 224.256 164.763 223.17C164.109 222.852 163.381 222.646 162.614 222.496C164.558 220.082 169.697 217.742 175.751 217.48C179.675 217.312 189.018 217.93 190.607 227.363C190.756 228.28 191.56 228.916 192.457 228.916C192.55 228.916 192.662 228.916 192.774 228.898C193.783 228.729 194.475 227.756 194.307 226.745C193.783 223.638 192.494 221.018 190.551 218.94C192.494 216.732 197.371 215.796 202.94 216.676C208.209 217.518 213.853 220.063 215.796 223.975C215.721 223.994 215.647 224.031 215.572 224.05C212.451 225.229 209.966 227.924 208.714 231.443C208.359 232.416 208.882 233.483 209.854 233.839C210.825 234.176 211.891 233.67 212.246 232.697C213.124 230.208 214.824 228.336 216.917 227.55C219.01 226.764 221.421 227.082 223.925 228.467C232.39 233.184 230.764 239.622 229.904 241.793C228.148 241.326 225.962 241.195 223.289 241.812C222.28 242.037 221.664 243.048 221.888 244.058C222.112 245.069 223.121 245.687 224.13 245.462C227.101 244.769 229.549 245.181 231.381 246.641C233.399 248.27 234.576 251.114 234.557 254.483C234.576 258.47 233.081 262.326 230.951 263.954ZM264.344 226.184C263.858 226.464 263.521 226.951 263.428 227.494C259.877 248.513 240.799 247.876 236.688 247.483C235.94 246.023 234.95 244.769 233.716 243.796C233.586 243.684 233.417 243.59 233.268 243.478C234.314 240.764 236.706 231.93 226.503 225.753C228.11 223.9 231.866 220.25 237.08 219.52C241.434 218.903 245.975 220.475 250.516 224.218C251.319 224.873 252.496 224.761 253.15 223.956C253.804 223.152 253.692 221.972 252.889 221.317C250.553 219.408 248.198 217.986 245.825 217.05C245.807 217.031 245.788 217.012 245.769 217.012C238.986 214.111 237.51 200.523 237.51 195.526C237.51 194.889 237.192 194.309 236.669 193.953C236.146 193.616 235.473 193.56 234.894 193.804C228.634 196.574 223.644 197.079 221.178 195.17C219.982 194.253 219.459 192.718 219.739 190.959C220.15 188.357 222.112 186.074 224.747 185.156C230.016 183.285 234.053 183.266 236.725 185.063C240.088 187.346 240.331 191.988 240.331 192.025C240.35 192.531 240.556 192.999 240.929 193.336C241.303 193.673 241.752 193.841 242.275 193.841C251.057 193.448 260.644 211.323 263.577 218.229C263.783 218.697 264.157 219.071 264.624 219.24C266.81 220.082 268.156 221.074 268.212 221.916C268.305 223.208 266.025 225.21 264.344 226.184Z" fill="#C7EFAA"/>
<path d="M229.619 340.117L227.093 333.338C226.809 332.574 227.197 331.724 227.963 331.438C228.724 331.155 229.576 331.544 229.863 332.307L232.388 339.086C232.673 339.852 232.282 340.702 231.519 340.987C230.76 341.268 229.905 340.887 229.619 340.117Z" fill="#C7EFAA"/>
<path d="M244.422 340.75C243.647 340.494 243.227 339.658 243.483 338.884L245.757 332.017C246.012 331.241 246.847 330.814 247.622 331.078C248.397 331.334 248.816 332.17 248.561 332.944L246.287 339.811C246.027 340.596 245.179 341.005 244.422 340.75Z" fill="#C7EFAA"/>
<path d="M254.633 348.637C254.191 347.952 254.385 347.039 255.071 346.595L261.145 342.66C261.832 342.219 262.743 342.415 263.188 343.098C263.63 343.783 263.436 344.696 262.749 345.141L256.675 349.076C255.982 349.521 255.072 349.316 254.633 348.637Z" fill="#C7EFAA"/>
<path d="M145.806 340.117L148.331 333.338C148.616 332.574 148.227 331.724 147.462 331.438C146.7 331.155 145.848 331.544 145.562 332.307L143.036 339.086C142.752 339.852 143.142 340.702 143.906 340.987C144.664 341.268 145.519 340.887 145.806 340.117Z" fill="#C7EFAA"/>
<path d="M131.003 340.75C131.778 340.494 132.197 339.658 131.941 338.884L129.668 332.017C129.412 331.241 128.577 330.814 127.802 331.078C127.027 331.334 126.608 332.17 126.864 332.944L129.137 339.811C129.397 340.596 130.245 341.005 131.003 340.75Z" fill="#C7EFAA"/>
<path d="M120.791 348.637C121.234 347.952 121.039 347.039 120.353 346.595L114.279 342.66C113.593 342.219 112.681 342.415 112.237 343.098C111.794 343.783 111.989 344.696 112.675 345.141L118.749 349.076C119.442 349.521 120.352 349.316 120.791 348.637Z" fill="#C7EFAA"/>
<path fill-rule="evenodd" clip-rule="evenodd" d="M375 0H0V812H375V0ZM108.5 320C70.6685 320 40 350.668 40 388.5C40 426.332 70.6685 457 108.5 457H266.5C304.332 457 335 426.332 335 388.5C335 350.668 304.332 320 266.5 320H108.5Z" fill="black" fill-opacity="0.6"/>
<path d="M73.5048 498C70.4705 497.998 67.734 499.946 66.572 502.936C65.41 505.926 66.0513 509.368 68.1969 511.657C70.3424 513.945 73.5694 514.629 76.3724 513.39C79.1753 512.15 81.0019 509.231 81 505.995C80.9879 501.585 77.6393 498.013 73.5048 498ZM73.5048 508.66C72.1249 508.66 71.0064 507.467 71.0064 505.995C71.0064 504.523 72.1249 503.33 73.5048 503.33C74.8846 503.33 76.0032 504.523 76.0032 505.995C75.9991 507.465 74.8829 508.655 73.5048 508.66Z" fill="#F4FCEE"/>
<path d="M104.833 532.189V546.811C107.93 545.714 110 542.785 110 539.5C110 536.215 107.93 533.286 104.833 532.189ZM48 539.5C48.0087 542.782 50.0754 545.707 53.1667 546.811V532.189C50.0754 533.293 48.0087 536.218 48 539.5ZM97.0833 524H60.9166C59.4917 524.004 58.3376 525.158 58.3333 526.583V552.417C58.3376 553.842 59.4917 554.996 60.9166 555H97.0833C98.5082 554.996 99.6623 553.842 99.6666 552.417V526.583C99.6623 525.158 98.5082 524.004 97.0833 524ZM63.5 531.75C63.5 530.323 64.6566 529.167 66.0833 529.167C67.51 529.167 68.6666 530.323 68.6666 531.75V536.917C68.6666 538.343 67.51 539.5 66.0833 539.5C64.6566 539.5 63.5 538.343 63.5 536.917V531.75ZM91.6841 549.833H66.3158C64.8891 549.833 63.7325 548.677 63.7325 547.25C63.7325 545.823 64.8891 544.667 66.3158 544.667H91.6841C93.1108 544.667 94.2674 545.823 94.2674 547.25C94.2674 548.677 93.1108 549.833 91.6841 549.833ZM94.4999 536.917C94.4999 538.343 93.3433 539.5 91.9166 539.5C90.4899 539.5 89.3333 538.343 89.3333 536.917V531.75C89.3333 530.323 90.4899 529.167 91.9166 529.167C93.3433 529.167 94.4999 530.323 94.4999 531.75V536.917Z" fill="#F4FCEE"/>
<path fill-rule="evenodd" clip-rule="evenodd" d="M141 513C136.582 513 133 516.582 133 521V526.236L126.586 532.656C125.805 533.438 125.805 534.705 126.586 535.486L133 541.906V547C133 551.418 136.582 555 141 555H319C323.418 555 327 551.418 327 547V521C327 516.582 323.418 513 319 513H141Z" fill="#F4FCEE"/>
<path d="M157.625 537.312V539H151.578V537.312H157.625ZM152.234 527.625V539H150.086V527.625H152.234ZM156.836 532.32V533.969H151.578V532.32H156.836ZM157.601 527.625V529.32H151.578V527.625H157.601ZM163.617 537.203V533.305C163.617 533.018 163.567 532.771 163.469 532.562C163.37 532.354 163.219 532.193 163.015 532.078C162.812 531.964 162.554 531.906 162.242 531.906C161.966 531.906 161.724 531.953 161.515 532.047C161.312 532.141 161.156 532.273 161.047 532.445C160.937 532.612 160.883 532.805 160.883 533.023H158.812C158.812 532.674 158.896 532.344 159.062 532.031C159.229 531.714 159.466 531.432 159.773 531.188C160.086 530.938 160.458 530.742 160.89 530.602C161.328 530.461 161.817 530.391 162.359 530.391C163 530.391 163.57 530.5 164.07 530.719C164.575 530.932 164.971 531.255 165.258 531.688C165.549 532.12 165.695 532.664 165.695 533.32V537.008C165.695 537.43 165.721 537.792 165.773 538.094C165.83 538.391 165.914 538.648 166.023 538.867V539H163.922C163.823 538.786 163.747 538.516 163.695 538.188C163.643 537.854 163.617 537.526 163.617 537.203ZM163.906 533.852L163.922 535.078H162.617C162.294 535.078 162.01 535.112 161.765 535.18C161.521 535.242 161.32 535.336 161.164 535.461C161.008 535.581 160.89 535.727 160.812 535.898C160.734 536.065 160.695 536.255 160.695 536.469C160.695 536.677 160.742 536.865 160.836 537.031C160.935 537.198 161.075 537.331 161.258 537.43C161.445 537.523 161.664 537.57 161.914 537.57C162.278 537.57 162.596 537.497 162.867 537.352C163.138 537.201 163.349 537.018 163.5 536.805C163.651 536.591 163.732 536.388 163.742 536.195L164.336 537.086C164.263 537.299 164.153 537.526 164.008 537.766C163.862 538.005 163.674 538.229 163.445 538.438C163.216 538.646 162.94 538.818 162.617 538.953C162.294 539.089 161.919 539.156 161.492 539.156C160.945 539.156 160.455 539.047 160.023 538.828C159.591 538.609 159.25 538.31 159 537.93C158.75 537.549 158.625 537.117 158.625 536.633C158.625 536.185 158.708 535.789 158.875 535.445C159.041 535.102 159.289 534.812 159.617 534.578C159.945 534.339 160.351 534.159 160.836 534.039C161.325 533.914 161.885 533.852 162.515 533.852H163.906ZM169.617 532.273V539H167.554V530.547H169.508L169.617 532.273ZM172.187 530.492L172.156 532.414C172.041 532.393 171.911 532.378 171.765 532.367C171.625 532.357 171.492 532.352 171.367 532.352C171.049 532.352 170.771 532.396 170.531 532.484C170.291 532.568 170.091 532.69 169.929 532.852C169.773 533.013 169.653 533.211 169.57 533.445C169.487 533.674 169.44 533.935 169.429 534.227L168.984 534.172C168.984 533.635 169.039 533.138 169.148 532.68C169.258 532.221 169.416 531.82 169.625 531.477C169.833 531.133 170.094 530.867 170.406 530.68C170.724 530.487 171.088 530.391 171.5 530.391C171.614 530.391 171.737 530.401 171.867 530.422C172.002 530.438 172.109 530.461 172.187 530.492ZM175.344 532.352V539H173.281V530.547H175.219L175.344 532.352ZM175.015 534.469H174.406C174.411 533.854 174.495 533.297 174.656 532.797C174.817 532.297 175.044 531.867 175.336 531.508C175.633 531.148 175.984 530.872 176.39 530.68C176.797 530.487 177.25 530.391 177.75 530.391C178.156 530.391 178.523 530.448 178.851 530.562C179.179 530.677 179.461 530.859 179.695 531.109C179.935 531.359 180.117 531.688 180.242 532.094C180.372 532.495 180.437 532.99 180.437 533.578V539H178.359V533.562C178.359 533.177 178.302 532.872 178.187 532.648C178.078 532.424 177.916 532.266 177.703 532.172C177.495 532.078 177.237 532.031 176.929 532.031C176.612 532.031 176.333 532.096 176.094 532.227C175.859 532.352 175.661 532.526 175.5 532.75C175.344 532.974 175.224 533.232 175.14 533.523C175.057 533.815 175.015 534.13 175.015 534.469ZM184.445 530.547V539H182.375V530.547H184.445ZM182.234 528.336C182.234 528.029 182.338 527.773 182.547 527.57C182.76 527.367 183.047 527.266 183.406 527.266C183.765 527.266 184.049 527.367 184.258 527.57C184.471 527.773 184.578 528.029 184.578 528.336C184.578 528.638 184.471 528.891 184.258 529.094C184.049 529.297 183.765 529.398 183.406 529.398C183.047 529.398 182.76 529.297 182.547 529.094C182.338 528.891 182.234 528.638 182.234 528.336ZM188.437 532.352V539H186.375V530.547H188.312L188.437 532.352ZM188.109 534.469H187.5C187.505 533.854 187.588 533.297 187.75 532.797C187.911 532.297 188.138 531.867 188.429 531.508C188.726 531.148 189.078 530.872 189.484 530.68C189.89 530.487 190.344 530.391 190.844 530.391C191.25 530.391 191.617 530.448 191.945 530.562C192.273 530.677 192.554 530.859 192.789 531.109C193.028 531.359 193.211 531.688 193.336 532.094C193.466 532.495 193.531 532.99 193.531 533.578V539H191.453V533.562C191.453 533.177 191.396 532.872 191.281 532.648C191.172 532.424 191.01 532.266 190.797 532.172C190.588 532.078 190.33 532.031 190.023 532.031C189.705 532.031 189.427 532.096 189.187 532.227C188.953 532.352 188.755 532.526 188.594 532.75C188.437 532.974 188.317 533.232 188.234 533.523C188.151 533.815 188.109 534.13 188.109 534.469ZM200.726 530.547H202.601V538.742C202.601 539.508 202.435 540.156 202.101 540.688C201.773 541.224 201.312 541.63 200.719 541.906C200.125 542.188 199.435 542.328 198.648 542.328C198.31 542.328 197.942 542.281 197.547 542.188C197.156 542.094 196.778 541.945 196.414 541.742C196.054 541.544 195.755 541.286 195.515 540.969L196.445 539.75C196.726 540.078 197.044 540.326 197.398 540.492C197.752 540.664 198.135 540.75 198.547 540.75C198.963 540.75 199.317 540.672 199.609 540.516C199.906 540.365 200.133 540.141 200.289 539.844C200.45 539.552 200.531 539.193 200.531 538.766V532.477L200.726 530.547ZM195.015 534.875V534.711C195.015 534.065 195.094 533.479 195.25 532.953C195.406 532.422 195.63 531.966 195.922 531.586C196.219 531.206 196.575 530.911 196.992 530.703C197.414 530.495 197.888 530.391 198.414 530.391C198.971 530.391 199.44 530.492 199.82 530.695C200.205 530.898 200.523 531.188 200.773 531.562C201.028 531.938 201.226 532.383 201.367 532.898C201.513 533.409 201.625 533.971 201.703 534.586V535.031C201.63 535.63 201.513 536.18 201.351 536.68C201.195 537.18 200.987 537.617 200.726 537.992C200.466 538.362 200.143 538.648 199.758 538.852C199.372 539.055 198.919 539.156 198.398 539.156C197.877 539.156 197.409 539.049 196.992 538.836C196.575 538.622 196.219 538.323 195.922 537.938C195.63 537.552 195.406 537.099 195.25 536.578C195.094 536.057 195.015 535.49 195.015 534.875ZM197.078 534.711V534.875C197.078 535.24 197.114 535.581 197.187 535.898C197.26 536.216 197.372 536.497 197.523 536.742C197.674 536.982 197.864 537.169 198.094 537.305C198.323 537.44 198.596 537.508 198.914 537.508C199.341 537.508 199.69 537.419 199.961 537.242C200.237 537.06 200.445 536.812 200.586 536.5C200.732 536.182 200.825 535.826 200.867 535.43V534.203C200.841 533.891 200.784 533.602 200.695 533.336C200.612 533.07 200.495 532.841 200.344 532.648C200.192 532.456 200 532.305 199.765 532.195C199.531 532.086 199.252 532.031 198.929 532.031C198.617 532.031 198.344 532.102 198.109 532.242C197.875 532.378 197.682 532.568 197.531 532.812C197.38 533.057 197.265 533.341 197.187 533.664C197.114 533.987 197.078 534.336 197.078 534.711Z" fill="black"/>
</g>
<defs>
<filter id="filter0_d_14356_2167" x="-20" y="631" width="415" height="191" filterUnits="userSpaceOnUse" color-interpolation-filters="sRGB">
<feFlood flood-opacity="0" result="BackgroundImageFix"/>
<feColorMatrix in="SourceAlpha" type="matrix" values="0 0 0 0 0 0 0 0 0 0 0 0 0 0 0 0 0 0 127 0" result="hardAlpha"/>
<feOffset dy="-10"/>
<feGaussianBlur stdDeviation="10"/>
<feColorMatrix type="matrix" values="0 0 0 0 0 0 0 0 0 0 0 0 0 0 0 0 0 0 0.110068 0"/>
<feBlend mode="normal" in2="BackgroundImageFix" result="effect1_dropShadow_14356_2167"/>
<feBlend mode="normal" in="SourceGraphic" in2="effect1_dropShadow_14356_2167" result="shape"/>
</filter>
<clipPath id="clip0_14356_2167">
<rect width="375" height="812" fill="white"/>
</clipPath>
</defs>
</svg>
