<svg xmlns="http://www.w3.org/2000/svg" width="64" height="24" viewBox="0 0 64 24" fill="none">
  <path
    d="M47.9882 21.3123L45.5754 19.6239L42.8185 17.6914C42.8185 17.6914 42.5962 17.5362 42.5962 17.538L42.6376 17.2707C42.6577 17.1422 42.6675 17.0314 42.6675 16.9237C42.6675 15.2018 42.5512 13.4745 42.4373 12.0133L42.3667 11.0994L43.1174 11.6254L44.7096 12.7402L46.3029 13.8556C47.1005 14.4121 47.8799 14.0584 48.2988 13.4593C48.7183 12.8608 48.7846 12.006 47.9876 11.4482L46.7139 10.5563L42.2522 7.43165C42.2522 7.43165 42.0781 7.30988 42.0781 7.31292L42.0684 7.09982L42.0647 7.05112L42.0623 7.00545C42.0623 7.00545 42.0525 6.80575 42.0525 6.80392L42.1974 6.66693C42.9865 5.92778 43.4194 4.92987 43.4194 3.85708C43.4194 1.73036 41.6878 0 39.5623 0C37.4356 0 35.7046 1.73036 35.7046 3.85708C35.7046 4.92622 36.1357 5.92291 36.9175 6.66023C36.9175 6.66023 37.066 6.80088 37.0648 6.82584L37.0514 7.0292C37.0496 7.05964 37.0478 7.08643 37.0459 7.11383L37.0374 7.32693L36.8615 7.45052L33.282 9.95595L32.2074 10.7073L31.9584 10.882L31.71 10.7073L27.0322 7.43226C27.0322 7.43226 26.858 7.31049 26.858 7.31353L26.8471 7.10043L26.8458 7.05173L26.8422 7.00606C26.8422 7.00606 26.8337 6.80636 26.8337 6.80453L26.9792 6.66754C27.7652 5.92839 28.2005 4.93049 28.2005 3.85769C28.2005 1.73097 26.4696 0.000609679 24.3435 0.000609679C22.2149 0.000609679 20.4846 1.73097 20.4846 3.85769C20.4846 4.92683 20.9156 5.9217 21.6992 6.66084L21.8466 6.79966L21.8344 7.00424C21.8307 7.03955 21.8289 7.07852 21.8277 7.11383L21.8192 7.32693L21.6432 7.45052L20.2733 8.40825L16.9891 10.7073L16.7407 10.882L16.4917 10.7073L11.8139 7.43226C11.8139 7.43226 11.6379 7.31049 11.6361 7.27152L11.6276 7.05842C11.6258 7.04138 11.6258 7.02676 11.6239 7.01276L11.6105 6.80818L11.7597 6.66754C12.5476 5.92839 12.9811 4.93049 12.9811 3.85769C12.9811 1.73097 11.2519 0.000609679 9.12338 0.000609679C6.99727 0.000609679 5.2663 1.73097 5.2663 3.85769C5.2663 4.92683 5.69798 5.92352 6.47975 6.66084C6.47975 6.66084 6.62526 6.79783 6.62526 6.79418L6.61491 6.99449L6.61126 7.06025L6.60761 7.11444C6.60761 7.11444 6.59726 7.32449 6.59726 7.32936L6.42312 7.45113L0.559269 11.5554C-0.187183 12.0784 -0.0800252 12.7938 0.266412 13.2906C0.729748 13.9531 1.67895 14.3385 2.52343 13.7479L4.78348 12.1661L5.62127 11.5792L6.35676 11.0635L6.30075 11.9615C6.21003 13.4197 6.11687 15.1348 6.11687 16.8116C6.11687 16.9316 6.12905 17.0527 6.15401 17.1976L6.20333 17.4698L5.97623 17.6287L0.559269 21.4219C-0.187183 21.9424 -0.0800252 22.6584 0.266412 23.1559C0.729748 23.8189 1.67895 24.2049 2.52343 23.6131L5.23221 21.7178L8.75077 19.2525L8.87254 19.1679L9.01988 19.1752C9.09233 19.1788 9.16844 19.1825 9.24333 19.1825H9.38032L9.49235 19.2623L15.8634 23.7215C16.4467 24.1288 16.9544 24.0107 17.2777 23.8396L17.3064 23.8244L17.3368 23.814C17.5024 23.7544 17.6278 23.6941 17.7411 23.6131L18.5527 23.0444L23.9696 19.2519L24.0902 19.1673L24.2387 19.1746C24.3112 19.1782 24.3873 19.1819 24.4622 19.1819H24.5992L24.7112 19.2616L31.081 23.7209C31.6649 24.1282 32.1715 24.0101 32.4966 23.839L32.524 23.8238L32.5538 23.8134C32.7201 23.7538 32.8455 23.6935 32.9599 23.6125L39.1879 19.2519L39.3097 19.1673L39.457 19.1746C39.5295 19.1782 39.6074 19.1819 39.6798 19.1819H39.8168L39.9289 19.2616L46.3005 23.7209C46.6658 23.976 47.0421 24.057 47.4171 23.9608C47.7538 23.8743 48.0735 23.6429 48.2963 23.3245C48.5198 23.0055 48.6287 22.6268 48.5928 22.2809C48.5581 21.8919 48.3542 21.5674 47.9882 21.3123ZM21.5239 11.9597C21.4307 13.4179 21.3376 15.133 21.3376 16.8098C21.3376 16.9279 21.3497 17.0509 21.3753 17.1976L21.424 17.468L21.1969 17.6269L16.991 20.5725L16.7426 20.7448L16.4935 20.5725L12.3807 17.6914L12.1579 17.5362L12.2017 17.2689C12.2206 17.1434 12.231 17.0302 12.231 16.9237C12.231 15.2018 12.1141 13.4745 12.0008 12.0133L11.9296 11.0994L12.6809 11.6254L13.417 12.1399L15.8664 13.8556C16.4497 14.263 16.9575 14.1442 17.2826 13.9732L17.3112 13.9585L17.3398 13.9482C17.5054 13.8885 17.6309 13.8258 17.7441 13.7467L20.006 12.1649L20.842 11.5779L21.5793 11.0622L21.5239 11.9597ZM36.7415 11.9597C36.6502 13.4197 36.557 15.1379 36.557 16.8098C36.557 16.9279 36.5692 17.0509 36.5942 17.1976L36.6417 17.468L36.417 17.6269L33.942 19.3597L32.2098 20.5725L31.9608 20.7448L31.7142 20.5725L28.972 18.6528L27.5996 17.6914L27.378 17.538L27.42 17.2707C27.4401 17.1404 27.4504 17.0302 27.4504 16.9237C27.4504 15.2067 27.3348 13.4782 27.2191 12.0133L27.1478 11.0994L27.8992 11.6254L30.3498 13.3406L31.0847 13.8556C31.6686 14.263 32.1776 14.1442 32.5003 13.9732L32.5289 13.9585L32.5599 13.9464C32.7243 13.8885 32.8497 13.8258 32.9636 13.7467L35.0276 12.3L36.0614 11.5779L36.7975 11.0622L36.7415 11.9597Z"
    fill="#2F3747" />
  <path
    d="M62.9882 21.3123L60.5754 19.6239L57.8185 17.6914C57.8185 17.6914 57.5962 17.5362 57.5962 17.538L57.6376 17.2707C57.6577 17.1422 57.6675 17.0314 57.6675 16.9237C57.6675 15.2018 57.5512 13.4745 57.4373 12.0133L57.3667 11.0994L58.1174 11.6254L59.7096 12.7402L61.3029 13.8556C62.1005 14.4121 62.8799 14.0584 63.2988 13.4593C63.7183 12.8608 63.7846 12.006 62.9876 11.4482L61.7139 10.5563L57.2522 7.43165C57.2522 7.43165 57.0781 7.30988 57.0781 7.31292L57.0684 7.09982L57.0647 7.05112L57.0623 7.00545C57.0623 7.00545 57.0525 6.80575 57.0525 6.80392L57.1974 6.66693C57.9865 5.92778 58.4194 4.92987 58.4194 3.85708C58.4194 1.73036 56.6878 0 54.5623 0C52.4356 0 50.7046 1.73036 50.7046 3.85708C50.7046 4.92622 51.1357 5.92291 51.9175 6.66023C51.9175 6.66023 52.066 6.80088 52.0648 6.82584L52.0514 7.0292C52.0496 7.05964 52.0478 7.08643 52.0459 7.11383L52.0374 7.32693L51.8615 7.45052L48.282 9.95595L47.2074 10.7073L46.9584 10.882L46.71 10.7073L42.0322 7.43226C42.0322 7.43226 41.858 7.31049 41.858 7.31353L41.8471 7.10043L41.8458 7.05173L41.8422 7.00606C41.8422 7.00606 41.8337 6.80636 41.8337 6.80453L41.9792 6.66754C42.7652 5.92839 43.2005 4.93049 43.2005 3.85769C43.2005 1.73097 41.4696 0.000609679 39.3435 0.000609679C37.2149 0.000609679 35.4846 1.73097 35.4846 3.85769C35.4846 4.92683 35.9156 5.9217 36.6992 6.66084L36.8466 6.79966L36.8344 7.00424C36.8307 7.03955 36.8289 7.07852 36.8277 7.11383L36.8192 7.32693L36.6432 7.45052L35.2733 8.40825L31.9891 10.7073L31.7407 10.882L31.4917 10.7073L26.8139 7.43226C26.8139 7.43226 26.6379 7.31049 26.6361 7.27152L26.6276 7.05842C26.6258 7.04138 26.6258 7.02676 26.6239 7.01276L26.6105 6.80818L26.7597 6.66754C27.5476 5.92839 27.9811 4.93049 27.9811 3.85769C27.9811 1.73097 26.2519 0.000609679 24.1234 0.000609679C21.9973 0.000609679 20.2663 1.73097 20.2663 3.85769C20.2663 4.92683 20.698 5.92352 21.4797 6.66084C21.4797 6.66084 21.6253 6.79783 21.6253 6.79418L21.6149 6.99449L21.6113 7.06025L21.6076 7.11444C21.6076 7.11444 21.5973 7.32449 21.5973 7.32936L21.4231 7.45113L15.5593 11.5554C14.8128 12.0784 14.92 12.7938 15.2664 13.2906C15.7297 13.9531 16.6789 14.3385 17.5234 13.7479L19.7835 12.1661L20.6213 11.5792L21.3568 11.0635L21.3007 11.9615C21.21 13.4197 21.1169 15.1348 21.1169 16.8116C21.1169 16.9316 21.129 17.0527 21.154 17.1976L21.2033 17.4698L20.9762 17.6287L15.5593 21.4219C14.8128 21.9424 14.92 22.6584 15.2664 23.1559C15.7297 23.8189 16.6789 24.2049 17.5234 23.6131L20.2322 21.7178L23.7508 19.2525L23.8725 19.1679L24.0199 19.1752C24.0923 19.1788 24.1684 19.1825 24.2433 19.1825H24.3803L24.4923 19.2623L30.8634 23.7215C31.4467 24.1288 31.9544 24.0107 32.2777 23.8396L32.3064 23.8244L32.3368 23.814C32.5024 23.7544 32.6278 23.6941 32.7411 23.6131L33.5527 23.0444L38.9696 19.2519L39.0902 19.1673L39.2387 19.1746C39.3112 19.1782 39.3873 19.1819 39.4622 19.1819H39.5992L39.7112 19.2616L46.081 23.7209C46.6649 24.1282 47.1715 24.0101 47.4966 23.839L47.524 23.8238L47.5538 23.8134C47.7201 23.7538 47.8455 23.6935 47.9599 23.6125L54.1879 19.2519L54.3097 19.1673L54.457 19.1746C54.5295 19.1782 54.6074 19.1819 54.6798 19.1819H54.8168L54.9289 19.2616L61.3005 23.7209C61.6658 23.976 62.0421 24.057 62.4171 23.9608C62.7538 23.8743 63.0735 23.6429 63.2963 23.3245C63.5198 23.0055 63.6287 22.6268 63.5928 22.2809C63.5581 21.8919 63.3542 21.5674 62.9882 21.3123ZM36.5239 11.9597C36.4307 13.4179 36.3376 15.133 36.3376 16.8098C36.3376 16.9279 36.3497 17.0509 36.3753 17.1976L36.424 17.468L36.1969 17.6269L31.991 20.5725L31.7426 20.7448L31.4935 20.5725L27.3807 17.6914L27.1579 17.5362L27.2017 17.2689C27.2206 17.1434 27.231 17.0302 27.231 16.9237C27.231 15.2018 27.1141 13.4745 27.0008 12.0133L26.9296 11.0994L27.6809 11.6254L28.417 12.1399L30.8664 13.8556C31.4497 14.263 31.9575 14.1442 32.2826 13.9732L32.3112 13.9585L32.3398 13.9482C32.5054 13.8885 32.6309 13.8258 32.7441 13.7467L35.006 12.1649L35.842 11.5779L36.5793 11.0622L36.5239 11.9597ZM51.7415 11.9597C51.6502 13.4197 51.557 15.1379 51.557 16.8098C51.557 16.9279 51.5692 17.0509 51.5942 17.1976L51.6417 17.468L51.417 17.6269L48.942 19.3597L47.2098 20.5725L46.9608 20.7448L46.7142 20.5725L43.972 18.6528L42.5996 17.6914L42.378 17.538L42.42 17.2707C42.4401 17.1404 42.4504 17.0302 42.4504 16.9237C42.4504 15.2067 42.3348 13.4782 42.2191 12.0133L42.1478 11.0994L42.8992 11.6254L45.3498 13.3406L46.0847 13.8556C46.6686 14.263 47.1776 14.1442 47.5003 13.9732L47.5289 13.9585L47.5599 13.9464C47.7243 13.8885 47.8497 13.8258 47.9636 13.7467L50.0276 12.3L51.0614 11.5779L51.7975 11.0622L51.7415 11.9597Z"
    fill="#2F3747" />
</svg>