<svg width="225" height="172" viewBox="0 0 225 172" fill="none" xmlns="http://www.w3.org/2000/svg">
<path d="M186.591 27.3624C179.702 20.7841 172.609 17.4424 162.876 16.1879C155.682 15.2549 147.512 17.7783 136.395 24.3741C123.135 32.2389 113.372 31.9029 112.963 31.8886C112.632 31.8999 102.872 32.2453 89.6029 24.3741C79.97 18.6587 72.5508 16 66.059 16C65.0601 16 64.085 16.0636 63.1259 16.1879C53.3913 17.4424 46.2977 20.7841 39.4088 27.3624C27.0873 39.1229 8.60217 62.1759 10.0838 126.326C10.4507 142.258 15.464 152.531 24.1996 155.255C35.2952 158.716 50.7625 149.899 62.7123 133.334C71.005 121.816 79.9668 117.982 103.211 117.982H122.789C146.032 117.982 152.719 121.816 161.011 133.334C172.961 149.901 190.702 158.705 201.799 155.255C210.534 152.531 215.549 142.258 215.916 126.326C217.398 62.1789 198.913 39.1229 186.591 27.3624ZM88.0054 73.8949C88.0054 75.686 86.5507 77.1443 84.7642 77.1443H72.9366C72.0457 77.1443 71.3217 77.8703 71.3217 78.7633V90.621C71.3217 92.4121 69.8671 93.8704 68.0805 93.8704H57.9775C56.1894 93.8704 54.7348 92.4121 54.7348 90.621V78.7633C54.7348 77.8703 54.0107 77.1443 53.1197 77.1443H41.2763C39.4899 77.1443 38.0351 75.686 38.0351 73.8949V63.7663C38.0351 61.9736 39.4899 60.5153 41.2763 60.5153H53.1197C54.0107 60.5153 54.7348 59.7893 54.7348 58.8961V47.0226C54.7348 45.2317 56.1894 43.7734 57.9775 43.7734H68.0805C69.8671 43.7734 71.3217 45.2317 71.3217 47.0226V58.8961C71.3217 59.7893 72.0457 60.5153 72.9366 60.5153H84.7642C86.5507 60.5153 88.0054 61.9736 88.0054 63.7663V73.8949ZM151.434 49.675C151.434 44.9053 155.306 41.0238 160.065 41.0238H161.934C166.693 41.0238 170.565 44.9053 170.565 49.675V51.5488C170.565 56.3203 166.693 60.2017 161.934 60.2017H160.065C155.306 60.2017 151.434 56.3203 151.434 51.5488V49.675ZM144.736 77.4452H142.867C138.107 77.4452 134.236 73.5637 134.236 68.7924V66.9185C134.236 62.1472 138.107 58.2657 142.867 58.2657H144.736C149.495 58.2657 153.367 62.1472 153.367 66.9185V68.7924C153.367 73.5637 149.495 77.4452 144.736 77.4452ZM170.565 86.2269C170.565 90.9983 166.693 94.8796 161.934 94.8796H160.065C155.306 94.8796 151.434 90.9983 151.434 86.2269V84.3531C151.434 79.5816 155.306 75.7003 160.065 75.7003H161.934C166.693 75.7003 170.565 79.5816 170.565 84.3531V86.2269ZM187.955 68.7924C187.955 73.5637 184.084 77.4452 179.326 77.4452H177.457C172.698 77.4452 168.826 73.5637 168.826 68.7924V66.9185C168.826 62.1472 172.698 58.2657 177.457 58.2657H179.326C184.084 58.2657 187.955 62.1472 187.955 66.9185V68.7924Z" fill="#31485B"/>
<path d="M84.0065 59.5086H72.4727C72.2159 59.5086 72.0069 59.3025 72.0069 59.0471V47.6026C72.0069 45.2695 70.0918 43.3721 67.7369 43.3721H57.8842C55.5282 43.3721 53.612 45.2695 53.612 47.6026V59.0471C53.612 59.3025 53.403 59.5086 53.1463 59.5086H41.5961C39.2413 59.5086 37.3262 61.406 37.3262 63.7391V73.5009C37.3262 75.834 39.2413 77.7314 41.5961 77.7314H53.1463C53.403 77.7314 53.612 77.9374 53.612 78.1928V89.6223C53.612 91.9555 55.5282 93.8529 57.8842 93.8529H67.7369C70.0918 93.8529 72.0069 91.9555 72.0069 89.6223V78.1928C72.0069 77.9374 72.2159 77.7314 72.4727 77.7314H84.0065C86.3614 77.7314 88.2776 75.834 88.2776 73.5009V63.7391C88.2776 61.406 86.3614 59.5086 84.0065 59.5086Z" fill="#D8D8D8"/>
<path d="M178.826 78.1719C184.625 78.1719 189.326 73.4709 189.326 67.6719C189.326 61.8729 184.625 57.1719 178.826 57.1719C173.027 57.1719 168.326 61.8729 168.326 67.6719C168.326 73.4709 173.027 78.1719 178.826 78.1719Z" fill="#5BC56E"/>
<path d="M160.826 61.1719C166.625 61.1719 171.326 56.4709 171.326 50.6719C171.326 44.8729 166.625 40.1719 160.826 40.1719C155.027 40.1719 150.326 44.8729 150.326 50.6719C150.326 56.4709 155.027 61.1719 160.826 61.1719Z" fill="#EABC41"/>
<path d="M160.826 96.1719C166.625 96.1719 171.326 91.4709 171.326 85.6719C171.326 79.8729 166.625 75.1719 160.826 75.1719C155.027 75.1719 150.326 79.8729 150.326 85.6719C150.326 91.4709 155.027 96.1719 160.826 96.1719Z" fill="#4094D3"/>
<path d="M143.826 78.1719C149.625 78.1719 154.326 73.4709 154.326 67.6719C154.326 61.8729 149.625 57.1719 143.826 57.1719C138.027 57.1719 133.326 61.8729 133.326 67.6719C133.326 73.4709 138.027 78.1719 143.826 78.1719Z" fill="#E3483B"/>
</svg>
