<svg width="48" height="27" viewBox="0 0 48 27" fill="none" xmlns="http://www.w3.org/2000/svg">
  <path
    d="M45.6411 0.00544483H44.5203C43.2181 0.00544483 42.1561 1.08915 42.1561 2.41791V3.94272C41.8199 3.33279 41.2115 2.90258 40.3736 2.71198C39.3702 2.47781 38.3776 2.3689 37.7745 2.91892C36.6751 2.33078 32.2508 0.266841 24.0107 0.266841C16.0747 0.266841 11.3302 2.39068 10.2468 2.92981C9.64376 2.35801 8.64576 2.47237 7.63175 2.70653C6.79386 2.90258 6.19079 3.3328 5.84923 3.93727V2.41246C5.84923 1.0837 4.78719 0 3.48499 0H2.36424C1.06204 0 0 1.0837 0 2.41246V9.00181C0 10.3306 1.06204 11.4143 2.36424 11.4143H3.48499C4.78719 11.4143 5.84923 10.3306 5.84923 9.00181V6.61113C5.99866 6.86708 6.22281 7.0958 6.56437 7.28096C5.91327 11.2564 7.37558 14.8941 7.72248 15.6837C7.59439 16.9145 8.35757 17.2957 8.73649 17.4808C8.80587 17.519 8.91794 17.568 8.94463 17.5952C10.0227 18.7715 12.008 19.621 14.4149 19.9641C14.4149 19.9968 14.4096 20.0294 14.4149 20.0621C14.4256 21.2384 14.9059 22.1914 15.6104 22.5781C15.6104 22.5835 15.6051 22.5889 15.6051 22.5944C15.1995 23.7217 15.557 24.8871 16.555 25.7148C17.1314 26.1886 17.8199 26.3901 18.455 26.3901C18.6631 26.3901 18.8712 26.3628 19.0634 26.3247C19.581 26.7549 20.5097 27 21.449 27C21.9453 27 22.447 26.9292 22.8846 26.7822C23.4023 26.6079 23.8132 26.3356 24.1067 25.9816C24.3469 26.2921 24.6351 26.5371 24.9713 26.7114C25.3396 26.8965 25.7665 26.9891 26.2148 26.9891C26.6471 26.9891 27.1007 26.902 27.549 26.7277C27.9546 26.5698 28.2855 26.3247 28.5203 26.0198C28.8192 26.1178 29.2035 26.194 29.6304 26.194C29.988 26.194 30.3669 26.145 30.7298 26.0089C31.4129 25.7638 31.9359 25.2737 32.2402 24.593C32.6671 23.64 32.4536 22.9429 32.2081 22.529C32.2455 22.5073 32.2775 22.4855 32.3149 22.4583C32.9286 21.979 33.3235 21.0151 33.3235 19.9968C35.8532 19.6809 37.9346 18.8096 39.0554 17.5898C39.082 17.5625 39.1941 17.5081 39.2635 17.4754C39.6371 17.2902 40.4002 16.909 40.2775 15.6783C40.6244 14.8887 42.0867 11.2509 41.4356 7.28096C41.7825 7.0958 42.0013 6.86708 42.1508 6.61113V9.00181C42.1508 10.3306 43.2128 11.4143 44.515 11.4143H45.6357C46.9379 11.4143 48 10.3306 48 9.00181V2.41246C48.0053 1.08915 46.9433 0.00544483 45.6411 0.00544483ZM4.78185 9.00726C4.78185 9.73699 4.20013 10.3306 3.48499 10.3306H2.36424C1.6491 10.3306 1.06738 9.73699 1.06738 9.00726V2.41791C1.06738 1.68818 1.6491 1.09459 2.36424 1.09459H3.48499C4.20013 1.09459 4.78185 1.68818 4.78185 2.41791V9.00726ZM37.2995 3.89371C37.2622 4.19867 37.2782 4.55264 37.3529 5.00464C37.4383 5.51654 38.052 6.33885 38.3669 6.72005C38.4896 7.06313 38.3509 7.8691 38.2015 8.40278C37.3902 9.22509 37.2675 10.9024 37.2568 11.6975C34.0814 12.8302 32.7632 13.6361 31.8666 15.1446C31.6317 14.8614 31.3275 14.5891 30.9273 14.3495C30.6017 14.1589 30.2388 14.0664 29.8599 14.0555C29.4009 12.8683 27.96 12.2257 26.7805 12.0351C25.7772 11.8717 24.4803 11.9589 23.7758 12.6559C23.1834 12.3183 22.4416 12.1386 21.5877 12.1767C20.1948 12.2366 18.7165 12.8574 18.2949 13.8213C17.7558 13.9193 17.1901 14.1589 16.7045 14.5238C16.4803 14.6926 16.2828 14.8832 16.1174 15.0847C15.2208 13.6089 13.8973 12.8084 10.7592 11.692C10.7485 10.8969 10.6257 9.22509 9.81454 8.39734C9.65977 7.85821 9.52635 7.05768 9.6491 6.7146C9.95864 6.32795 10.5777 5.51109 10.6631 4.99919C10.7378 4.55809 10.7538 4.20411 10.7218 3.9046C11.6718 3.43626 16.3469 1.3451 24.0267 1.3451C32.0534 1.35599 36.3869 3.40903 37.2995 3.89371ZM9.72381 16.8491C9.56904 16.6803 9.37691 16.5823 9.20613 16.5006C8.85924 16.3263 8.7098 16.2555 8.80053 15.6892C8.81654 15.5803 8.80053 15.4659 8.7525 15.3624C8.73115 15.3243 6.75116 11.24 7.68512 7.06313C7.73315 6.8453 7.68512 6.55123 7.32755 6.43687C6.6978 6.22993 6.62842 5.9522 6.60707 5.28782C6.57505 4.46006 6.97531 3.98084 7.86124 3.77935C9.38225 3.42537 9.53168 3.714 9.59573 3.8338C9.63308 3.9046 9.7078 4.13877 9.59039 4.83582C9.55303 5.01009 9.16878 5.60367 8.76317 6.09379C8.73649 6.12646 8.71514 6.15914 8.69379 6.19726C8.27218 7.05769 8.72581 8.58794 8.82188 8.88745C8.8539 8.98548 8.9126 9.07261 8.99266 9.13796C9.55303 9.60629 9.7078 11.1856 9.67044 12.0732C9.65977 12.3128 9.8092 12.5307 10.0334 12.6123C13.8652 13.9466 14.7618 14.6654 15.5197 16.2882C15.445 16.6204 15.4289 16.9689 15.4823 17.3175C15.4823 17.3338 15.493 17.3447 15.493 17.3556C15.034 17.7586 14.7298 18.2977 14.559 18.8913C12.4243 18.5809 10.6257 17.8348 9.72381 16.8491ZM31.6638 21.6033C31.5303 21.7067 31.4023 21.734 31.2528 21.6958C30.7778 21.478 30.2228 21.4072 29.6945 21.527C29.4063 21.5924 29.2248 21.881 29.2888 22.1751C29.3529 22.4691 29.6357 22.6543 29.9239 22.5889C30.4096 22.48 30.9593 22.6543 31.2315 22.9974C31.4663 23.2914 31.477 23.6781 31.2688 24.1464C31.082 24.5603 30.7885 24.838 30.3776 24.9851C29.8385 25.1811 29.2568 25.1049 28.9046 25.0069C28.9419 24.495 28.7658 23.9831 28.3816 23.5746C28.1788 23.3568 27.8372 23.3514 27.6291 23.5583C27.4156 23.7652 27.4103 24.1138 27.6131 24.3261C27.8159 24.5385 27.8959 24.789 27.8426 25.0286C27.7785 25.3227 27.533 25.5678 27.1701 25.7094C26.8712 25.8237 26.0974 26.0633 25.441 25.7311C25.0353 25.5296 24.7311 25.1376 24.5764 24.5549C24.507 24.288 24.3416 24.1845 24.048 24.1737C23.8185 24.1682 23.5464 24.2935 23.5303 24.6583C23.525 24.8544 23.4556 25.4371 22.543 25.7475C21.7425 26.0143 20.7925 25.9109 20.2055 25.7148C20.4883 25.4098 20.6324 25.0341 20.6004 24.6365C20.5737 24.337 20.3229 24.1138 20.024 24.1355C19.7305 24.1573 19.5117 24.4242 19.533 24.7237C19.549 24.9197 19.3462 25.0613 19.2181 25.1267C18.7218 25.3935 17.8519 25.3935 17.2168 24.8653C16.3416 24.141 16.4536 23.3622 16.5924 22.9647C16.8272 22.3167 17.4303 21.8211 18.0013 21.8483C18.3109 21.8538 18.5404 21.6142 18.5457 21.3146C18.551 21.0151 18.3162 20.7646 18.0227 20.7592C17.3449 20.7537 16.6618 21.0968 16.1654 21.6468C15.7865 21.5107 15.477 20.8354 15.4716 20.0458C15.4663 19.6591 15.5517 17.7422 17.5317 17.6987C17.8252 17.6932 18.06 17.4427 18.0547 17.1432C18.0494 16.8437 17.8092 16.6095 17.5103 16.6095C17.1421 16.615 16.8165 16.6749 16.5177 16.7674C16.5604 16.0867 17.014 15.6293 17.3182 15.4006C17.9853 14.8941 18.8339 14.7525 19.2021 14.9377C19.2982 14.9867 19.3622 15.052 19.3676 15.2154C19.3729 15.5149 19.5971 15.7654 19.9173 15.7436C20.2108 15.7382 20.4456 15.4877 20.4349 15.1827C20.4189 14.6382 20.1414 14.1862 19.6718 13.952C19.6398 13.9357 19.6024 13.9302 19.5704 13.9139C19.9867 13.598 20.7338 13.2985 21.6197 13.2604C22.2975 13.2277 23.8933 13.3366 24.1601 14.9486C24.2028 15.2154 24.4323 15.4006 24.6884 15.4006C24.7151 15.4006 24.7472 15.4006 24.7792 15.3951C25.0674 15.3461 25.2648 15.0629 25.2168 14.7689C25.1261 14.2188 24.9073 13.7505 24.5977 13.3639C24.9766 13.0861 25.7558 12.9718 26.5991 13.1134C27.6131 13.2822 28.4349 13.7396 28.7658 14.2896C28.1734 14.5619 27.7145 15.0303 27.5063 15.6184C27.4049 15.9016 27.5544 16.212 27.8319 16.3154C28.1094 16.4135 28.4136 16.2664 28.515 15.9833C28.6324 15.6511 28.9259 15.3733 29.2995 15.2317C29.6784 15.0902 30.0734 15.1119 30.3829 15.2971C31.5197 15.9724 31.525 16.909 31.4343 17.3937C31.1247 17.3392 30.7565 17.3393 30.3295 17.4373C30.0413 17.5026 29.8652 17.7967 29.9293 18.0908C29.9933 18.3848 30.2815 18.57 30.5697 18.4992C31.0607 18.3848 31.4556 18.4447 31.7492 18.6843C32.0694 18.9457 32.2615 19.4359 32.2615 19.9968C32.2562 20.6612 32.0053 21.3364 31.6638 21.6033ZM40.6724 6.43142C40.3149 6.55123 40.2668 6.83985 40.3149 7.05768C41.2488 11.2346 39.2635 15.3134 39.2475 15.357C39.1995 15.4605 39.1834 15.5748 39.1995 15.6837C39.2902 16.2501 39.1461 16.3263 38.7938 16.4952C38.6231 16.5823 38.4309 16.6749 38.2762 16.8437C37.3315 17.8729 35.4156 18.6408 33.1421 18.924C32.9926 18.4883 32.7472 18.1125 32.4163 17.8457C32.5283 17.4373 32.5817 16.8981 32.4483 16.3263C33.2168 14.6654 34.092 13.952 37.9613 12.6015C38.1854 12.5252 38.3295 12.3019 38.3242 12.0623C38.2868 11.1747 38.4416 9.5954 39.002 9.12707C39.082 9.06172 39.1407 8.97459 39.1728 8.87656C39.2688 8.57705 39.7225 7.04679 39.3008 6.18637C39.2848 6.14825 39.2582 6.11557 39.2315 6.0829C38.8259 5.58733 38.4416 4.99919 38.4043 4.82493C38.2868 4.12787 38.3616 3.89371 38.3989 3.82291C38.463 3.70311 38.6124 3.41993 40.1334 3.76845C41.0193 3.97539 41.4196 4.45462 41.3876 5.27693C41.3716 5.9522 41.3022 6.22448 40.6724 6.43142ZM46.9379 9.00726C46.9379 9.73699 46.3562 10.3306 45.6411 10.3306H44.5203C43.8052 10.3306 43.2235 9.73699 43.2235 9.00726V2.41791C43.2235 1.68818 43.8052 1.09459 44.5203 1.09459H45.6411C46.3562 1.09459 46.9379 1.68818 46.9379 2.41791V9.00726Z"
    fill="white" />
</svg>