<svg width="140" height="140" viewBox="0 0 140 140" fill="none" xmlns="http://www.w3.org/2000/svg">
  <path
    d="M92.228 41.7236L97.505 33.7882L97.974 33.083L97.13 33.013L89.1975 32.3555L89.1959 32.3554C88.1848 32.2749 87.3589 31.5529 87.1402 30.5637C87.1402 30.5636 87.1402 30.5635 87.1402 30.5635L83.7687 15.2307L83.5747 14.3488L82.9302 14.9811L74.0604 23.683L74.0604 23.683L74.057 23.6864C73.3737 24.3697 72.3062 24.5343 71.4304 24.0964L58.6708 17.7166L60.7279 13.6026L71.6967 19.087L72.0158 19.2465L72.2704 18.9967L83.3221 8.15483L92.228 41.7236ZM92.228 41.7236L96.0535 44.2624L103.96 32.3682C103.961 32.3681 103.961 32.3679 103.961 32.3677C104.408 31.69 104.466 30.8287 104.109 30.0918L104.108 30.0888L104.108 30.0888C103.765 29.3695 103.055 28.8744 102.237 28.8052M92.228 41.7236L102.237 28.8052M87.6593 9.19635C87.4354 8.20304 86.6939 7.4056 85.7286 7.1118C85.4628 7.02786 85.197 6.99988 84.9312 6.99988C84.1991 6.99924 83.496 7.28553 82.9725 7.79733L83.3227 8.15425C83.7525 7.73427 84.3298 7.49936 84.9307 7.49988H84.9312C85.1619 7.49988 85.3741 7.5242 85.578 7.58862L85.583 7.59014C86.3753 7.83126 86.9864 8.487 87.1712 9.30495L87.1709 9.30382L87.6593 9.19635ZM87.6593 9.19635L87.1715 9.30627L91.1861 27.5471L91.2655 27.9078L91.6337 27.9379L102.237 28.8052L102.279 28.307M87.6593 9.19635L91.6744 27.4396L102.279 28.307M102.279 28.307L102.238 28.8053L102.237 28.8052M102.279 28.307L102.237 28.8052"
    fill="#C7EFAA" stroke="#242424" />
  <path
    d="M123.127 49.4619L123.136 49.4653L123.145 49.4683C126.018 50.4215 127.607 52.2098 128.439 54.0667C129.276 55.937 129.35 57.8914 129.148 59.1455L129.114 59.3168L120.603 85.17L120.602 85.1733C120.501 85.4875 119.309 88.8067 114.993 90.9649L114.98 90.9711L114.968 90.978L114.905 91.014L114.831 91.0419L114.831 91.0418L114.821 91.0457C110.195 92.8936 105.625 91.5442 104.455 91.1358L104.422 91.1246L104.389 91.1178L86.8311 87.5783L86.0208 87.4149L86.2523 88.2085L98.0879 128.776L93.6756 130.063L79.4831 81.4316L105.714 86.675L105.881 86.7419L105.89 86.7454L105.899 86.7485L105.903 86.75C106.144 86.8364 109.622 88.0803 112.989 86.7864L113.015 86.7765L113.039 86.764C115.367 85.5629 116.12 83.9596 116.236 83.6906L116.244 83.6707L116.251 83.6502L124.603 58.3139L124.625 58.2487L124.628 58.1801C124.643 57.8456 124.644 57.1066 124.395 56.3261L124.394 56.3241C123.987 55.0718 123.11 54.2696 121.742 53.8083L121.729 53.8039L121.716 53.8003C120.512 53.4659 119.615 53.4958 118.955 53.6733C118.295 53.8505 117.914 54.1643 117.733 54.3204C116.985 54.9425 116.64 55.7283 116.571 55.9011L116.535 55.9905V56.0211L110.838 73.4331L110.832 73.45L110.828 73.4673C110.71 73.9383 110.422 74.5624 109.726 75.0745C109.027 75.5891 107.867 76.0265 105.941 76.0265L105.923 76.0265C105.402 76.0269 104.458 76.0276 96.082 73.2401C94.0907 72.5763 92.1409 71.9089 90.6834 71.4056C89.5197 71.0038 88.662 70.7038 88.3557 70.5967C88.2802 70.5703 88.2382 70.5556 88.2335 70.554L88.2335 70.5539L88.2245 70.5511L88.0391 70.4932L87.9912 70.4692L87.9726 70.4599L87.9533 70.4522C87.6912 70.3474 86.2433 69.8148 83.6545 69.8148C82.4203 69.8148 79.9735 70.2222 77.3831 70.7409C74.7725 71.2638 71.9563 71.9126 69.9485 72.418C69.9483 72.4181 69.9481 72.4181 69.9479 72.4182L41.2941 79.5851L41.1723 79.5952C41.1658 79.5957 41.1617 79.5961 41.1616 79.5961L41.1458 79.5977L41.1213 79.6007C41.1119 79.602 41.1009 79.6035 41.0886 79.6052C41.0793 79.6066 41.0692 79.6081 41.0583 79.6097C41.0076 79.6174 40.9371 79.6288 40.8489 79.6447C40.6724 79.6763 40.4232 79.7257 40.1183 79.7978C39.5089 79.9418 38.6728 80.1772 37.7469 80.5437C35.9043 81.2732 33.6578 82.5417 32.1655 84.6915L32.1453 84.7205L32.1295 84.7521C29.3914 90.2003 16.9585 113.402 15.4877 116.134L15.4563 116.192L15.4412 116.256C15.382 116.508 15.2438 117.216 15.5454 117.857L15.5466 117.859C15.7537 118.293 16.131 118.604 16.4976 118.827C16.8704 119.053 17.2829 119.217 17.6275 119.334L17.6305 119.335L17.8759 119.417L18.0914 119.542C18.0925 119.542 18.0937 119.543 18.0949 119.544C19.3409 120.288 20.6568 120.105 21.6984 119.699C22.7391 119.294 23.5789 118.641 23.9595 118.319L24.0231 118.265L24.0658 118.194L38.0145 94.8248L38.0407 94.7899L38.0483 94.7798L38.0553 94.7693C38.2569 94.4702 38.7276 93.839 39.4132 93.3248C40.0953 92.8131 40.9556 92.4415 41.9662 92.5791L41.9706 92.5796C42.3471 92.6274 42.8792 92.7713 43.4034 93.1615C43.9232 93.5483 44.4639 94.1982 44.833 95.3056L44.8335 95.307C45.2802 96.6335 47.1131 103.726 48.9341 110.891C50.7508 118.039 52.5449 125.215 52.9085 126.676L52.9089 126.678L53.4717 128.906L49.0136 130.021L48.4505 127.791C46.1981 118.782 42.9237 105.866 41.3418 99.8881L41.038 98.7403L40.4292 99.7597L27.66 121.139L27.4595 121.34C27.4509 121.348 27.4403 121.358 27.4275 121.37C27.1486 121.63 25.8707 122.824 24.0116 123.697C21.2175 125.007 18.3935 124.955 15.9876 123.627L15.9533 123.608L15.9163 123.595C13.1572 122.595 11.9241 120.948 11.3732 119.756L11.3728 119.755C10.1824 117.193 11.1064 114.704 11.2173 114.412C11.2178 114.411 11.2183 114.409 11.2188 114.408L11.264 114.295L11.3199 114.183C11.3204 114.182 11.3212 114.181 11.3221 114.179C11.3443 114.137 11.4829 113.878 11.7182 113.439C14.0337 109.115 25.7154 87.3031 28.0813 82.5354L28.1472 82.4145L28.2292 82.2974L28.2293 82.2975L28.2359 82.2875C32.0257 76.5893 39.0748 75.2557 40.3725 75.0624L40.3964 75.0588L40.4199 75.053L51.0105 72.4088L50.9599 71.4287C42.9483 70.2881 36.7557 63.3748 36.7557 55.0375C36.7557 45.8983 44.1844 38.4695 53.3237 38.4695C62.4627 38.4695 69.8918 45.912 69.8918 55.0375C69.8918 60.523 67.2176 65.3846 63.1012 68.4006L63.5182 69.2889L68.8188 67.9603L68.8205 67.9598L68.8414 67.9547C69.4549 67.8032 72.2008 67.1251 75.2703 66.4812C78.3992 65.8249 81.7991 65.2188 83.6405 65.2188C87.1467 65.2188 89.2049 65.9853 89.8466 66.2677L89.8638 66.2752L89.8814 66.2814C93.2703 67.4787 96.8979 68.7148 99.8651 69.6782C101.348 70.1598 102.669 70.5741 103.714 70.8815C104.744 71.1847 105.541 71.3949 105.955 71.4535L106.025 71.4634L106.096 71.4534C106.154 71.445 106.205 71.4444 106.291 71.4444H106.653L106.766 71.1L112.207 54.4821C112.207 54.4817 112.207 54.4812 112.208 54.4808C112.308 54.1815 112.93 52.4989 114.516 51.0575C116.7 49.0834 119.695 48.4807 123.034 49.4271L123.127 49.4619ZM53.3517 43.0516C46.752 43.0516 41.3797 48.4238 41.3797 55.0235C41.3797 61.6233 46.752 66.9955 53.3517 66.9955C59.9514 66.9955 65.3237 61.6233 65.3237 55.0235C65.3237 48.4238 59.9514 43.0516 53.3517 43.0516Z"
    fill="#C7EFAA" stroke="#242424" />
</svg>