<svg xmlns="http://www.w3.org/2000/svg" width="140" height="140" viewBox="0 0 140 140" fill="none">
  <path
    d="M92.228 41.7234L97.505 33.788L97.974 33.0828L97.13 33.0128L89.1975 32.3553L89.1959 32.3551C88.1848 32.2747 87.3589 31.5527 87.1402 30.5635C87.1402 30.5634 87.1402 30.5633 87.1402 30.5632L83.7687 15.2304L83.5747 14.3485L82.9302 14.9809L74.0604 23.6828L74.0604 23.6828L74.057 23.6862C73.3737 24.3694 72.3062 24.5341 71.4304 24.0962L58.6708 17.7164L60.7279 13.6023L71.6967 19.0867L72.0158 19.2463L72.2704 18.9964L83.3221 8.15458L92.228 41.7234ZM92.228 41.7234L96.0535 44.2622L103.96 32.368C103.961 32.3678 103.961 32.3677 103.961 32.3675C104.408 31.6898 104.466 30.8284 104.109 30.0916L104.108 30.0886L104.108 30.0886C103.765 29.3692 103.055 28.8742 102.237 28.805M92.228 41.7234L102.237 28.805M87.6593 9.1961C87.4354 8.2028 86.6939 7.40535 85.7286 7.11156C85.4628 7.02762 85.197 6.99964 84.9312 6.99964C84.1991 6.999 83.496 7.28529 82.9725 7.79708L83.3227 8.15401C83.7525 7.73403 84.3298 7.49911 84.9307 7.49964H84.9312C85.1619 7.49964 85.3741 7.52396 85.578 7.58838L85.583 7.5899C86.3753 7.83102 86.9864 8.48676 87.1712 9.30471L87.1709 9.30358L87.6593 9.1961ZM87.6593 9.1961L87.1715 9.30602L91.1861 27.5468L91.2655 27.9076L91.6337 27.9377L102.237 28.805L102.279 28.3067M87.6593 9.1961L91.6744 27.4393L102.279 28.3067M102.279 28.3067L102.238 28.8051L102.237 28.805M102.279 28.3067L102.237 28.805"
    fill="black" stroke="#242424" />
  <path
    d="M123.127 49.4617L123.136 49.4651L123.145 49.4681C126.018 50.4213 127.607 52.2096 128.439 54.0665C129.276 55.9367 129.35 57.8912 129.148 59.1453L129.114 59.3166L120.603 85.1697L120.602 85.1731C120.501 85.4873 119.309 88.8065 114.993 90.9646L114.98 90.9708L114.968 90.9777L114.905 91.0138L114.831 91.0416L114.831 91.0415L114.821 91.0454C110.195 92.8933 105.625 91.544 104.455 91.1356L104.422 91.1243L104.389 91.1176L86.8311 87.578L86.0208 87.4147L86.2523 88.2082L98.0879 128.775L93.6756 130.062L79.4831 81.4313L105.714 86.6748L105.881 86.7417L105.89 86.7451L105.899 86.7483L105.903 86.7498C106.144 86.8362 109.622 88.0801 112.989 86.7861L113.015 86.7763L113.039 86.7637C115.367 85.5627 116.12 83.9593 116.236 83.6903L116.244 83.6705L116.251 83.6499L124.603 58.3136L124.625 58.2484L124.628 58.1798C124.643 57.8454 124.644 57.1064 124.395 56.3259L124.394 56.3239C123.987 55.0716 123.11 54.2693 121.742 53.808L121.729 53.8037L121.716 53.8001C120.512 53.4656 119.615 53.4956 118.955 53.673C118.295 53.8503 117.914 54.164 117.733 54.3201C116.985 54.9423 116.64 55.7281 116.571 55.9009L116.535 55.9903V56.0208L110.838 73.4328L110.832 73.4498L110.828 73.467C110.71 73.938 110.422 74.5622 109.726 75.0743C109.027 75.5888 107.867 76.0263 105.941 76.0263L105.923 76.0263C105.402 76.0266 104.458 76.0273 96.082 73.2399C94.0907 72.5761 92.1409 71.9087 90.6834 71.4054C89.5197 71.0036 88.662 70.7035 88.3557 70.5964C88.2802 70.57 88.2382 70.5553 88.2335 70.5538L88.2335 70.5537L88.2245 70.5508L88.0391 70.4929L87.9912 70.469L87.9726 70.4597L87.9533 70.4519C87.6912 70.3471 86.2433 69.8146 83.6545 69.8146C82.4203 69.8146 79.9735 70.2219 77.3831 70.7407C74.7725 71.2635 71.9563 71.9123 69.9485 72.4178C69.9483 72.4178 69.9481 72.4179 69.9479 72.4179L41.2941 79.5849L41.1723 79.595C41.1658 79.5955 41.1617 79.5958 41.1616 79.5959L41.1458 79.5975L41.1213 79.6005C41.1119 79.6017 41.1009 79.6032 41.0886 79.605C41.0793 79.6063 41.0692 79.6078 41.0583 79.6095C41.0076 79.6171 40.9371 79.6286 40.8489 79.6444C40.6724 79.6761 40.4232 79.7255 40.1183 79.7976C39.5089 79.9416 38.6728 80.1769 37.7469 80.5435C35.9043 81.273 33.6578 82.5414 32.1655 84.6912L32.1453 84.7202L32.1295 84.7518C29.3914 90.2 16.9585 113.402 15.4877 116.133L15.4563 116.191L15.4412 116.256C15.382 116.507 15.2438 117.215 15.5454 117.856L15.5466 117.859C15.7537 118.293 16.131 118.604 16.4976 118.826C16.8704 119.053 17.2829 119.217 17.6275 119.334L17.6305 119.335L17.8759 119.417L18.0914 119.541C18.0925 119.542 18.0937 119.543 18.0949 119.544C19.3409 120.288 20.6568 120.105 21.6984 119.699C22.7391 119.294 23.5789 118.641 23.9595 118.319L24.0231 118.265L24.0658 118.194L38.0145 94.8245L38.0407 94.7897L38.0483 94.7796L38.0553 94.7691C38.2569 94.47 38.7276 93.8387 39.4132 93.3245C40.0953 92.8129 40.9556 92.4413 41.9662 92.5788L41.9706 92.5794C42.3471 92.6272 42.8792 92.7711 43.4034 93.1612C43.9232 93.5481 44.4639 94.198 44.833 95.3053L44.8335 95.3068C45.2802 96.6333 47.1131 103.726 48.9341 110.89C50.7508 118.038 52.5449 125.215 52.9085 126.676L52.9089 126.678L53.4717 128.906L49.0136 130.02L48.4505 127.791C46.1981 118.781 42.9237 105.865 41.3418 99.8879L41.038 98.74L40.4292 99.7594L27.66 121.139L27.4595 121.34C27.4509 121.348 27.4403 121.357 27.4275 121.369C27.1486 121.63 25.8707 122.824 24.0116 123.696C21.2175 125.006 18.3935 124.955 15.9876 123.627L15.9533 123.608L15.9163 123.595C13.1572 122.595 11.9241 120.947 11.3732 119.756L11.3728 119.755C10.1824 117.193 11.1064 114.703 11.2173 114.412C11.2178 114.41 11.2183 114.409 11.2188 114.408L11.264 114.295L11.3199 114.183C11.3204 114.182 11.3212 114.181 11.3221 114.179C11.3443 114.137 11.4829 113.878 11.7182 113.439C14.0337 109.115 25.7154 87.3029 28.0813 82.5351L28.1472 82.4142L28.2292 82.2971L28.2293 82.2972L28.2359 82.2873C32.0257 76.5891 39.0748 75.2554 40.3725 75.0622L40.3964 75.0586L40.4199 75.0527L51.0105 72.4086L50.9599 71.4285C42.9483 70.2878 36.7557 63.3746 36.7557 55.0373C36.7557 45.898 44.1844 38.4692 53.3237 38.4692C62.4627 38.4692 69.8918 45.9117 69.8918 55.0373C69.8918 60.5227 67.2176 65.3843 63.1012 68.4003L63.5182 69.2887L68.8188 67.96L68.8205 67.9596L68.8414 67.9544C69.4549 67.8029 72.2008 67.1248 75.2703 66.481C78.3992 65.8247 81.7991 65.2185 83.6405 65.2185C87.1467 65.2185 89.2049 65.985 89.8466 66.2674L89.8638 66.275L89.8814 66.2812C93.2703 67.4785 96.8979 68.7145 99.8651 69.6779C101.348 70.1596 102.669 70.5738 103.714 70.8813C104.744 71.1845 105.541 71.3947 105.955 71.4532L106.025 71.4632L106.096 71.4531C106.154 71.4448 106.205 71.4442 106.291 71.4442H106.653L106.766 71.0997L112.207 54.4819C112.207 54.4814 112.207 54.481 112.208 54.4805C112.308 54.1813 112.93 52.4987 114.516 51.0572C116.7 49.0831 119.695 48.4804 123.034 49.4269L123.127 49.4617ZM53.3517 43.0513C46.752 43.0513 41.3797 48.4236 41.3797 55.0233C41.3797 61.623 46.752 66.9953 53.3517 66.9953C59.9514 66.9953 65.3237 61.623 65.3237 55.0233C65.3237 48.4236 59.9514 43.0513 53.3517 43.0513Z"
    fill="black" stroke="#242424" />
</svg>