<svg width="168" height="192" viewBox="0 0 168 192" fill="none" xmlns="http://www.w3.org/2000/svg">
  <path
    d="M54.1112 179.435H50.9237C50.8327 178.912 50.6651 178.449 50.4208 178.045C50.1765 177.636 49.8725 177.29 49.5089 177.006C49.1452 176.722 48.7305 176.509 48.2646 176.366C47.8043 176.219 47.3072 176.145 46.7731 176.145C45.8242 176.145 44.9833 176.384 44.2504 176.861C43.5174 177.332 42.9435 178.026 42.5288 178.94C42.114 179.849 41.9066 180.96 41.9066 182.273C41.9066 183.608 42.114 184.733 42.5288 185.648C42.9492 186.557 43.5231 187.244 44.2504 187.71C44.9833 188.17 45.8214 188.401 46.7646 188.401C47.2873 188.401 47.7759 188.332 48.2305 188.196C48.6907 188.054 49.1026 187.847 49.4663 187.574C49.8356 187.301 50.1452 186.966 50.3952 186.568C50.6509 186.17 50.8271 185.716 50.9237 185.205L54.1112 185.222C53.9918 186.051 53.7333 186.83 53.3356 187.557C52.9435 188.284 52.4293 188.926 51.793 189.483C51.1566 190.034 50.4123 190.466 49.56 190.778C48.7077 191.085 47.7617 191.239 46.7219 191.239C45.1879 191.239 43.8185 190.884 42.614 190.173C41.4094 189.463 40.4606 188.438 39.7674 187.097C39.0742 185.756 38.7276 184.148 38.7276 182.273C38.7276 180.392 39.0771 178.784 39.7759 177.449C40.4748 176.108 41.4265 175.082 42.631 174.372C43.8356 173.662 45.1992 173.307 46.7219 173.307C47.6935 173.307 48.5969 173.443 49.4322 173.716C50.2674 173.989 51.0117 174.389 51.6651 174.918C52.3185 175.44 52.8555 176.082 53.2759 176.844C53.7021 177.599 53.9805 178.463 54.1112 179.435ZM59.9556 183.33V191H56.8704V173.545H59.8874V180.134H60.0408C60.3477 179.395 60.8221 178.812 61.4641 178.386C62.1119 177.955 62.9357 177.739 63.9357 177.739C64.8448 177.739 65.6374 177.929 66.3136 178.31C66.9897 178.69 67.5124 179.247 67.8817 179.98C68.2567 180.713 68.4442 181.608 68.4442 182.665V191H65.359V183.142C65.359 182.261 65.1317 181.577 64.6772 181.088C64.2283 180.594 63.5977 180.347 62.7852 180.347C62.2397 180.347 61.7511 180.466 61.3192 180.705C60.8931 180.937 60.5579 181.276 60.3136 181.719C60.0749 182.162 59.9556 182.699 59.9556 183.33ZM77.3846 191.256C76.0721 191.256 74.9386 190.983 73.984 190.438C73.0352 189.886 72.305 189.108 71.7937 188.102C71.2823 187.091 71.0266 185.901 71.0266 184.531C71.0266 183.185 71.2823 182.003 71.7937 180.986C72.3107 179.963 73.0323 179.168 73.9585 178.599C74.8846 178.026 75.9727 177.739 77.2227 177.739C78.0295 177.739 78.7908 177.869 79.5067 178.131C80.2283 178.386 80.8647 178.784 81.4158 179.324C81.9727 179.864 82.4102 180.551 82.7283 181.386C83.0465 182.216 83.2056 183.205 83.2056 184.352V185.298H72.4755V183.219H80.2482C80.2425 182.628 80.1147 182.102 79.8647 181.642C79.6147 181.176 79.2653 180.81 78.8164 180.543C78.3732 180.276 77.8562 180.142 77.2653 180.142C76.6346 180.142 76.0806 180.295 75.6033 180.602C75.1261 180.903 74.7539 181.301 74.4869 181.795C74.2255 182.284 74.092 182.821 74.0863 183.406V185.222C74.0863 185.983 74.2255 186.636 74.5039 187.182C74.7823 187.722 75.1715 188.136 75.6715 188.426C76.1715 188.71 76.7567 188.852 77.4272 188.852C77.8761 188.852 78.2823 188.79 78.646 188.665C79.0096 188.534 79.3249 188.344 79.592 188.094C79.859 187.844 80.0607 187.534 80.1971 187.165L83.0778 187.489C82.896 188.25 82.5494 188.915 82.038 189.483C81.5323 190.045 80.8846 190.483 80.0948 190.795C79.305 191.102 78.4016 191.256 77.3846 191.256ZM91.6112 191.256C90.2987 191.256 89.1651 190.983 88.2106 190.438C87.2617 189.886 86.5316 189.108 86.0202 188.102C85.5089 187.091 85.2532 185.901 85.2532 184.531C85.2532 183.185 85.5089 182.003 86.0202 180.986C86.5373 179.963 87.2589 179.168 88.185 178.599C89.1112 178.026 90.1992 177.739 91.4492 177.739C92.256 177.739 93.0174 177.869 93.7333 178.131C94.4549 178.386 95.0913 178.784 95.6424 179.324C96.1992 179.864 96.6367 180.551 96.9549 181.386C97.2731 182.216 97.4322 183.205 97.4322 184.352V185.298H86.7021V183.219H94.4748C94.4691 182.628 94.3413 182.102 94.0913 181.642C93.8413 181.176 93.4918 180.81 93.043 180.543C92.5998 180.276 92.0827 180.142 91.4918 180.142C90.8612 180.142 90.3072 180.295 89.8299 180.602C89.3526 180.903 88.9805 181.301 88.7134 181.795C88.4521 182.284 88.3185 182.821 88.3129 183.406V185.222C88.3129 185.983 88.4521 186.636 88.7305 187.182C89.0089 187.722 89.3981 188.136 89.8981 188.426C90.3981 188.71 90.9833 188.852 91.6538 188.852C92.1026 188.852 92.5089 188.79 92.8725 188.665C93.2362 188.534 93.5515 188.344 93.8185 188.094C94.0856 187.844 94.2873 187.534 94.4237 187.165L97.3043 187.489C97.1225 188.25 96.7759 188.915 96.2646 189.483C95.7589 190.045 95.1112 190.483 94.3214 190.795C93.5316 191.102 92.6282 191.256 91.6112 191.256ZM100.042 191V177.909H103.034V180.091H103.17C103.409 179.335 103.818 178.753 104.397 178.344C104.983 177.929 105.65 177.722 106.4 177.722C106.571 177.722 106.761 177.73 106.971 177.747C107.187 177.759 107.366 177.778 107.508 177.807V180.645C107.377 180.599 107.17 180.56 106.886 180.526C106.608 180.486 106.338 180.466 106.076 180.466C105.514 180.466 105.008 180.588 104.559 180.832C104.116 181.071 103.767 181.403 103.511 181.83C103.255 182.256 103.127 182.747 103.127 183.304V191H100.042ZM119.904 181.369L117.092 181.676C117.012 181.392 116.873 181.125 116.674 180.875C116.481 180.625 116.22 180.423 115.89 180.27C115.561 180.116 115.157 180.04 114.68 180.04C114.038 180.04 113.498 180.179 113.061 180.457C112.629 180.736 112.416 181.097 112.422 181.54C112.416 181.92 112.555 182.23 112.839 182.469C113.129 182.707 113.606 182.903 114.271 183.057L116.504 183.534C117.743 183.801 118.663 184.224 119.265 184.804C119.873 185.384 120.18 186.142 120.186 187.08C120.18 187.903 119.939 188.631 119.461 189.261C118.99 189.886 118.333 190.375 117.493 190.727C116.652 191.08 115.686 191.256 114.595 191.256C112.993 191.256 111.703 190.92 110.725 190.25C109.748 189.574 109.166 188.634 108.978 187.429L111.987 187.139C112.123 187.73 112.413 188.176 112.856 188.477C113.299 188.778 113.876 188.929 114.586 188.929C115.319 188.929 115.907 188.778 116.35 188.477C116.799 188.176 117.024 187.804 117.024 187.361C117.024 186.986 116.879 186.676 116.589 186.432C116.305 186.187 115.862 186 115.26 185.869L113.027 185.401C111.771 185.139 110.842 184.699 110.24 184.08C109.637 183.455 109.339 182.665 109.345 181.71C109.339 180.903 109.558 180.205 110.001 179.614C110.45 179.017 111.072 178.557 111.868 178.233C112.669 177.903 113.592 177.739 114.637 177.739C116.172 177.739 117.379 178.065 118.26 178.719C119.146 179.372 119.694 180.256 119.904 181.369ZM126.505 173.545L126.224 185.869H123.48L123.207 173.545H126.505ZM124.852 191.188C124.335 191.188 123.892 191.006 123.522 190.642C123.159 190.278 122.977 189.835 122.977 189.312C122.977 188.801 123.159 188.364 123.522 188C123.892 187.636 124.335 187.455 124.852 187.455C125.358 187.455 125.795 187.636 126.164 188C126.539 188.364 126.727 188.801 126.727 189.312C126.727 189.659 126.639 189.974 126.463 190.259C126.292 190.543 126.065 190.77 125.781 190.94C125.502 191.105 125.193 191.188 124.852 191.188Z"
    fill="#C7EFAA" />
  <path
    d="M162.679 36.0579C161.838 34.1675 159.334 28.8519 155.803 23.5176C150.365 15.3009 145.002 10.8276 139.826 10.1725C139.415 8.00136 138.219 4.29543 134.837 1.99326C131.118 -0.533511 125.96 -0.66453 119.495 1.63764C115.608 3.02268 112.674 6.44786 112.058 10.3784C111.572 13.4854 112.637 16.3865 114.917 18.1459C117.253 19.9614 121.719 21.3277 129.922 18.2582C130.202 22.3946 131.23 30.2557 134.874 35.6461C134.126 35.6461 133.36 35.7022 132.613 35.8145C125.325 36.844 120.523 42.2718 119.065 44.1061C117.832 43.713 116.711 43.5072 115.664 43.4884C113.44 37.368 105.816 34.0552 99.5938 33.0632C94.1561 32.1835 87.0552 32.6888 83.7103 36.6381C80.5523 34.6354 76.4413 33.6247 71.6762 33.8306C64.3511 34.1488 56.2599 37.5178 54.4847 42.5339C52.6721 42.7959 50.7848 43.3574 48.9722 44.2371C47.6454 42.5152 42.787 36.8627 35.3311 35.8145C34.5836 35.7022 33.8175 35.6648 33.07 35.6648C36.6952 30.2744 37.7229 22.4133 38.0219 18.2769C46.2066 21.3464 50.6726 19.9801 53.0271 18.1646C55.3069 16.4052 56.372 13.5041 55.8862 10.3971C55.2695 6.46658 52.3357 3.02268 48.449 1.65636C41.9834 -0.627096 36.8073 -0.514794 33.1074 2.01198C29.7064 4.33286 28.5292 8.02007 28.1181 10.1912C22.9419 10.8276 17.5789 15.3196 12.1412 23.5363C8.60941 28.8706 6.10543 34.1862 5.26453 36.0766C1.95703 37.4991 0.200503 39.3707 0.013638 41.6729C-0.247973 45.0981 3.32114 47.8682 4.96555 48.9725C8.79628 69.0369 25.5954 71.3203 33.0139 71.3203C33.3877 71.3203 33.724 71.3203 34.0417 71.3016C33.8548 72.4995 33.7427 73.6974 33.7614 74.914C33.8175 81.2964 36.6204 86.3687 40.5633 87.8847C40.4325 88.2029 40.2643 88.4837 40.1522 88.8018C38.0967 94.3982 39.9092 100.219 44.992 104.356C47.9071 106.733 51.4201 107.743 54.6716 107.743C55.9235 107.743 57.1382 107.575 58.278 107.313C60.7633 109.634 65.8461 111 70.9475 111C73.5262 111 76.1049 110.663 78.366 109.914C81.524 108.885 83.8785 107.144 85.3547 104.861C86.6815 106.957 88.4006 108.548 90.5122 109.578C92.3808 110.495 94.5298 110.963 96.7909 110.963C99.0145 110.963 101.369 110.513 103.686 109.634C105.966 108.754 107.76 107.35 108.956 105.591C110.544 106.171 112.843 106.676 115.384 106.676C117.196 106.676 119.121 106.414 120.99 105.759C124.447 104.543 127.082 102.11 128.614 98.7405C130.464 94.6602 130.202 90.7858 127.885 87.7911C128.371 87.5665 128.838 87.2858 129.305 86.9489C132.389 84.5906 134.388 79.7242 134.388 74.5771C134.388 73.4353 134.276 72.3498 134.07 71.3016C134.351 71.3016 134.65 71.3203 134.986 71.3203C142.405 71.3203 159.204 69.0369 163.034 48.9725C164.697 47.8682 168.248 45.0981 167.986 41.6729C167.743 39.352 165.987 37.4803 162.679 36.0579ZM8.44124 47.4938C8.3478 46.951 8.01145 46.4644 7.5256 46.1837C5.84382 45.2104 3.58275 43.2077 3.67619 41.9537C3.75093 41.1114 5.07767 40.1007 7.26399 39.2772C7.73115 39.09 8.12356 38.7344 8.31043 38.2664C11.2068 31.4348 20.6061 13.8597 29.3327 13.8597C29.4261 13.8597 29.5196 13.8597 29.5943 13.8597C30.6034 13.8972 31.5003 13.0923 31.5377 12.0629C31.5377 12.0255 31.7806 7.36498 35.1442 5.08153C37.8164 3.266 41.8526 3.30344 47.1222 5.17512C49.7383 6.11096 51.7004 8.37569 52.1302 10.9773C52.4105 12.7367 51.8873 14.2528 50.6913 15.1886C48.2247 17.0977 43.2168 16.5924 36.9755 13.8223C36.3962 13.5603 35.7235 13.6164 35.2003 13.972C34.677 14.3089 34.3594 14.9079 34.3594 15.5442C34.3594 20.5416 32.8831 34.13 26.0999 37.0311C26.0813 37.0499 26.0626 37.0686 26.0439 37.0686C23.6894 38.0231 21.3162 39.4269 18.9804 41.336C18.1769 41.9911 18.0648 43.1702 18.7188 43.9751C19.3728 44.7799 20.5501 44.8922 21.3536 44.2371C25.8944 40.5125 30.4165 38.9403 34.7705 39.5392C40.3764 40.3253 44.3379 44.5366 45.7207 46.2024C40.9557 49.7399 38.7133 54.7934 39.5542 60.0715C39.5916 60.3336 39.7037 60.5769 39.8345 60.7828C37.5921 62.5422 36.0038 64.9005 34.9947 67.5395C30.4913 67.8952 11.9356 68.1946 8.44124 47.4938ZM126.951 83.9542C125.998 84.6841 124.989 84.9088 123.886 84.6467C121.476 83.505 118.598 83.1306 115.851 83.7296C114.842 83.9542 114.207 84.9462 114.431 85.9569C114.655 86.9676 115.646 87.604 116.655 87.3794C119.682 86.7056 123.008 87.7537 124.764 89.9249C126.297 91.8153 126.409 94.3233 125.12 97.1683C123.998 99.6202 122.167 101.323 119.663 102.203C116.356 103.382 112.413 102.877 110.282 102.091C110.75 99.3581 109.853 96.588 107.76 94.3982C107.05 93.6495 105.872 93.6308 105.125 94.342C104.378 95.0533 104.359 96.2511 105.069 96.9811C106.414 98.3849 106.938 100.051 106.564 101.698C106.134 103.607 104.583 105.198 102.285 106.077C100.528 106.751 96.0247 108.099 92.1005 106.171C89.6339 104.954 87.6905 102.671 86.8683 99.2271C86.6815 98.4223 85.9153 97.9357 84.981 97.9357C83.9906 97.9169 83.4113 98.703 83.2058 99.5827C82.477 102.746 80.8513 105.067 77.114 106.283C71.9939 107.968 65.435 107.051 62.1648 105.46C64.3138 103.925 65.4163 101.773 65.2294 99.4143C65.1547 98.3849 64.2577 97.6175 63.2113 97.6923C62.1835 97.7672 61.4174 98.6843 61.4921 99.7137C61.6229 101.361 60.128 102.409 59.231 102.877C56.2412 104.449 51.0277 104.449 47.253 101.38C43.4036 98.2351 42.0582 94.0987 43.5531 90.0184C44.992 86.1066 48.6545 83.3553 52.1862 83.374C53.214 83.374 54.0736 82.5691 54.0923 81.5397C54.111 80.5103 53.2888 79.6493 52.261 79.6306C48.6358 79.5745 45.0293 81.4836 42.5253 84.497C39.3673 84.1039 37.4426 79.3873 37.3866 74.8017C37.3305 68.6438 40.4885 61.3817 49.5888 61.2133C50.6166 61.1945 51.4388 60.3336 51.4201 59.3041C51.4014 58.2747 50.5792 57.5073 49.5141 57.4699C47.0848 57.5261 44.9733 57.994 43.1233 58.7614C42.6562 53.8576 45.8329 50.6383 47.851 49.1222C51.906 46.1088 56.8392 45.4537 59.1189 46.558C60.0906 47.0259 60.5578 47.7933 60.5952 48.9537C60.6138 49.9832 61.4921 50.8067 62.5199 50.7693C63.5476 50.7506 64.3698 49.8896 64.3325 48.8414C64.2577 46.2772 63.0057 44.2558 60.7633 43.1702C60.1093 42.8521 59.3805 42.6462 58.6144 42.4965C60.5578 40.082 65.6966 37.7424 71.751 37.4803C75.6751 37.3119 85.0184 37.9295 86.6067 47.3628C86.7562 48.2799 87.5597 48.9163 88.4567 48.9163C88.5501 48.9163 88.6622 48.9163 88.7744 48.8976C89.7834 48.7291 90.4748 47.7559 90.3066 46.7452C89.7834 43.6382 88.4941 41.0178 86.5507 38.9403C88.4941 36.7317 93.3712 35.7958 98.9398 36.6755C104.209 37.5178 109.853 40.0633 111.796 43.9751C111.721 43.9938 111.647 44.0312 111.572 44.0499C108.451 45.2291 105.966 47.9243 104.714 51.4431C104.359 52.4164 104.882 53.4832 105.854 53.8388C106.825 54.1757 107.891 53.6704 108.246 52.6971C109.124 50.2078 110.824 48.3361 112.917 47.55C115.01 46.7639 117.421 47.0821 119.925 48.4671C128.39 53.1838 126.764 59.6223 125.904 61.7935C124.148 61.3256 121.962 61.1945 119.289 61.8122C118.28 62.0368 117.664 63.0475 117.888 64.0582C118.112 65.0689 119.121 65.6866 120.13 65.462C123.101 64.7695 125.549 65.1812 127.381 66.6411C129.399 68.2695 130.576 71.1145 130.557 74.4835C130.576 78.4702 129.081 82.3258 126.951 83.9542ZM160.344 46.1837C159.858 46.4644 159.521 46.951 159.428 47.4938C155.877 68.5128 136.799 67.8764 132.688 67.4834C131.94 66.0235 130.95 64.7695 129.716 63.7962C129.586 63.6839 129.417 63.5903 129.268 63.478C130.314 60.7641 132.706 51.9297 122.503 45.7532C124.11 43.9002 127.866 40.2504 133.08 39.5205C137.434 38.9028 141.975 40.475 146.516 44.2184C147.319 44.8735 148.496 44.7612 149.15 43.9564C149.804 43.1515 149.692 41.9724 148.889 41.3173C146.553 39.4082 144.198 37.9857 141.825 37.0499C141.807 37.0311 141.788 37.0124 141.769 37.0124C134.986 34.1113 133.51 20.5229 133.51 15.5255C133.51 14.8891 133.192 14.3089 132.669 13.9533C132.146 13.6164 131.473 13.5603 130.894 13.8036C124.634 16.5737 119.644 17.079 117.178 15.1699C115.982 14.2528 115.459 12.718 115.739 10.9586C116.15 8.35697 118.112 6.07353 120.747 5.1564C126.016 3.28472 130.053 3.266 132.725 5.06282C136.088 7.34627 136.331 11.988 136.331 12.0255C136.35 12.5308 136.556 12.9987 136.929 13.3356C137.303 13.6726 137.752 13.841 138.275 13.841C147.057 13.448 156.644 31.3225 159.577 38.229C159.783 38.6969 160.157 39.0713 160.624 39.2397C162.81 40.082 164.156 41.074 164.212 41.9162C164.305 43.2077 162.025 45.2104 160.344 46.1837Z"
    fill="#C7EFAA" />
  <path
    d="M125.619 160.117L123.093 153.338C122.809 152.574 123.197 151.724 123.963 151.438C124.724 151.155 125.576 151.544 125.863 152.307L128.388 159.086C128.673 159.852 128.282 160.702 127.519 160.987C126.76 161.268 125.905 160.887 125.619 160.117Z"
    fill="#C7EFAA" />
  <path
    d="M140.422 160.75C139.647 160.494 139.227 159.658 139.483 158.884L141.757 152.017C142.012 151.241 142.847 150.814 143.622 151.078C144.397 151.334 144.816 152.17 144.561 152.944L142.287 159.811C142.027 160.596 141.179 161.005 140.422 160.75Z"
    fill="#C7EFAA" />
  <path
    d="M150.633 168.637C150.191 167.952 150.385 167.039 151.071 166.594L157.145 162.659C157.832 162.219 158.743 162.415 159.188 163.098C159.63 163.783 159.436 164.696 158.749 165.14L152.675 169.075C151.982 169.521 151.072 169.315 150.633 168.637Z"
    fill="#C7EFAA" />
  <path
    d="M41.8058 160.117L44.331 153.338C44.6157 152.574 44.2272 151.724 43.4617 151.438C42.7001 151.155 41.8481 151.544 41.5616 152.307L39.0364 159.086C38.7517 159.852 39.1421 160.702 39.9057 160.987C40.6644 161.268 41.5193 160.887 41.8058 160.117Z"
    fill="#C7EFAA" />
  <path
    d="M27.0026 160.75C27.7776 160.494 28.1969 159.658 27.9411 158.884L25.6678 152.017C25.412 151.241 24.5773 150.814 23.8023 151.078C23.0272 151.334 22.6079 152.17 22.8637 152.944L25.137 159.811C25.397 160.596 26.2455 161.005 27.0026 160.75Z"
    fill="#C7EFAA" />
  <path
    d="M16.7914 168.637C17.2337 167.952 17.0395 167.039 16.3528 166.594L10.2793 162.659C9.59268 162.219 8.68107 162.415 8.2368 163.098C7.79445 163.783 7.98868 164.696 8.67529 165.14L14.7489 169.075C15.442 169.521 16.3519 169.315 16.7914 168.637Z"
    fill="#C7EFAA" />
</svg>