<svg width="197" height="192" viewBox="0 0 197 192" fill="none" xmlns="http://www.w3.org/2000/svg">
  <ellipse cx="45.8758" cy="73.6489" rx="45.8758" ry="73.6489"
    transform="matrix(0.836061 0.548637 -0.74818 0.663496 115.339 0)" fill="#C7EFAA" />
  <path
    d="M130.922 103.149C112.836 114.837 92.8334 122.119 75.1354 124.459C57.4175 126.802 42.1407 124.184 33.304 116.226C24.4673 108.269 23.5925 96.3429 29.5347 83.3958C35.4702 70.4632 48.1739 56.609 66.2599 44.9211C84.3459 33.2332 104.348 25.9514 122.046 23.611C139.764 21.2679 155.041 23.8866 163.878 31.8441C172.714 39.8015 173.589 51.7274 167.647 64.6744C161.712 77.607 149.008 91.4613 130.922 103.149Z"
    stroke="black" />
  <path
    d="M176.679 36.0579C175.838 34.1675 173.334 28.8519 169.803 23.5176C164.365 15.3009 159.002 10.8276 153.826 10.1725C153.415 8.00136 152.219 4.29543 148.837 1.99326C145.118 -0.533511 139.96 -0.66453 133.495 1.63764C129.608 3.02268 126.674 6.44786 126.058 10.3784C125.572 13.4854 126.637 16.3865 128.917 18.1459C131.253 19.9614 135.719 21.3277 143.922 18.2582C144.202 22.3946 145.23 30.2557 148.874 35.6461C148.126 35.6461 147.36 35.7022 146.613 35.8145C139.325 36.844 134.523 42.2718 133.065 44.1061C131.832 43.713 130.711 43.5072 129.664 43.4884C127.44 37.368 119.816 34.0552 113.594 33.0632C108.156 32.1835 101.055 32.6888 97.7103 36.6381C94.5523 34.6354 90.4413 33.6247 85.6762 33.8306C78.3511 34.1488 70.2599 37.5178 68.4847 42.5339C66.6721 42.7959 64.7848 43.3574 62.9722 44.2371C61.6454 42.5152 56.787 36.8627 49.3311 35.8145C48.5836 35.7022 47.8175 35.6648 47.07 35.6648C50.6952 30.2744 51.7229 22.4133 52.0219 18.2769C60.2066 21.3464 64.6726 19.9801 67.0271 18.1646C69.3069 16.4052 70.372 13.5041 69.8862 10.3971C69.2695 6.46658 66.3357 3.02268 62.449 1.65636C55.9834 -0.627096 50.8073 -0.514794 47.1074 2.01198C43.7064 4.33286 42.5292 8.02007 42.1181 10.1912C36.9419 10.8276 31.5789 15.3196 26.1412 23.5363C22.6094 28.8706 20.1054 34.1862 19.2645 36.0766C15.957 37.4991 14.2005 39.3707 14.0136 41.6729C13.752 45.0981 17.3211 47.8682 18.9656 48.9725C22.7963 69.0369 39.5954 71.3203 47.0139 71.3203C47.3877 71.3203 47.724 71.3203 48.0417 71.3016C47.8548 72.4995 47.7427 73.6974 47.7614 74.914C47.8175 81.2964 50.6204 86.3687 54.5633 87.8847C54.4325 88.2029 54.2643 88.4837 54.1522 88.8018C52.0967 94.3982 53.9092 100.219 58.992 104.356C61.9071 106.733 65.4201 107.743 68.6716 107.743C69.9235 107.743 71.1382 107.575 72.278 107.313C74.7633 109.634 79.8461 111 84.9475 111C87.5262 111 90.1049 110.663 92.366 109.914C95.524 108.885 97.8785 107.144 99.3547 104.861C100.681 106.957 102.401 108.548 104.512 109.578C106.381 110.495 108.53 110.963 110.791 110.963C113.015 110.963 115.369 110.513 117.686 109.634C119.966 108.754 121.76 107.35 122.956 105.591C124.544 106.171 126.843 106.676 129.384 106.676C131.196 106.676 133.121 106.414 134.99 105.759C138.447 104.543 141.082 102.11 142.614 98.7405C144.464 94.6602 144.202 90.7858 141.885 87.7911C142.371 87.5665 142.838 87.2858 143.305 86.9489C146.389 84.5906 148.388 79.7242 148.388 74.5771C148.388 73.4353 148.276 72.3498 148.07 71.3016C148.351 71.3016 148.65 71.3203 148.986 71.3203C156.405 71.3203 173.204 69.0369 177.034 48.9725C178.697 47.8682 182.248 45.0981 181.986 41.6729C181.743 39.352 179.987 37.4803 176.679 36.0579ZM22.4412 47.4938C22.3478 46.951 22.0114 46.4644 21.5256 46.1837C19.8438 45.2104 17.5828 43.2077 17.6762 41.9537C17.7509 41.1114 19.0777 40.1007 21.264 39.2772C21.7311 39.09 22.1236 38.7344 22.3104 38.2664C25.2068 31.4348 34.6061 13.8597 43.3327 13.8597C43.4261 13.8597 43.5196 13.8597 43.5943 13.8597C44.6034 13.8972 45.5003 13.0923 45.5377 12.0629C45.5377 12.0255 45.7806 7.36498 49.1442 5.08153C51.8164 3.266 55.8526 3.30344 61.1222 5.17512C63.7383 6.11096 65.7004 8.37569 66.1302 10.9773C66.4105 12.7367 65.8873 14.2528 64.6913 15.1886C62.2247 17.0977 57.2168 16.5924 50.9755 13.8223C50.3962 13.5603 49.7235 13.6164 49.2003 13.972C48.677 14.3089 48.3594 14.9079 48.3594 15.5442C48.3594 20.5416 46.8831 34.13 40.0999 37.0311C40.0813 37.0499 40.0626 37.0686 40.0439 37.0686C37.6894 38.0231 35.3162 39.4269 32.9804 41.336C32.1769 41.9911 32.0648 43.1702 32.7188 43.9751C33.3728 44.7799 34.5501 44.8922 35.3536 44.2371C39.8944 40.5125 44.4165 38.9403 48.7705 39.5392C54.3764 40.3253 58.3379 44.5366 59.7207 46.2024C54.9557 49.7399 52.7133 54.7934 53.5542 60.0715C53.5916 60.3336 53.7037 60.5769 53.8345 60.7828C51.5921 62.5422 50.0038 64.9005 48.9947 67.5395C44.4913 67.8952 25.9356 68.1946 22.4412 47.4938ZM140.951 83.9542C139.998 84.6841 138.989 84.9088 137.886 84.6467C135.476 83.505 132.598 83.1306 129.851 83.7296C128.842 83.9542 128.207 84.9462 128.431 85.9569C128.655 86.9676 129.646 87.604 130.655 87.3794C133.682 86.7056 137.008 87.7537 138.764 89.9249C140.297 91.8153 140.409 94.3233 139.12 97.1683C137.998 99.6202 136.167 101.323 133.663 102.203C130.356 103.382 126.413 102.877 124.282 102.091C124.75 99.3581 123.853 96.588 121.76 94.3982C121.05 93.6495 119.872 93.6308 119.125 94.342C118.378 95.0533 118.359 96.2511 119.069 96.9811C120.414 98.3849 120.938 100.051 120.564 101.698C120.134 103.607 118.583 105.198 116.285 106.077C114.528 106.751 110.025 108.099 106.101 106.171C103.634 104.954 101.691 102.671 100.868 99.2271C100.681 98.4223 99.9153 97.9357 98.981 97.9357C97.9906 97.9169 97.4113 98.703 97.2058 99.5827C96.477 102.746 94.8513 105.067 91.114 106.283C85.9939 107.968 79.435 107.051 76.1648 105.46C78.3138 103.925 79.4163 101.773 79.2294 99.4143C79.1547 98.3849 78.2577 97.6175 77.2113 97.6923C76.1835 97.7672 75.4174 98.6843 75.4921 99.7137C75.6229 101.361 74.128 102.409 73.231 102.877C70.2412 104.449 65.0277 104.449 61.253 101.38C57.4036 98.2351 56.0582 94.0987 57.5531 90.0184C58.992 86.1066 62.6545 83.3553 66.1862 83.374C67.214 83.374 68.0736 82.5691 68.0923 81.5397C68.111 80.5103 67.2888 79.6493 66.261 79.6306C62.6358 79.5745 59.0293 81.4836 56.5253 84.497C53.3673 84.1039 51.4426 79.3873 51.3866 74.8017C51.3305 68.6438 54.4885 61.3817 63.5888 61.2133C64.6166 61.1945 65.4388 60.3336 65.4201 59.3041C65.4014 58.2747 64.5792 57.5073 63.5141 57.4699C61.0848 57.5261 58.9733 57.994 57.1233 58.7614C56.6562 53.8576 59.8329 50.6383 61.851 49.1222C65.906 46.1088 70.8392 45.4537 73.1189 46.558C74.0906 47.0259 74.5578 47.7933 74.5952 48.9537C74.6138 49.9832 75.4921 50.8067 76.5199 50.7693C77.5476 50.7506 78.3698 49.8896 78.3325 48.8414C78.2577 46.2772 77.0057 44.2558 74.7633 43.1702C74.1093 42.8521 73.3805 42.6462 72.6144 42.4965C74.5578 40.082 79.6966 37.7424 85.751 37.4803C89.6751 37.3119 99.0184 37.9295 100.607 47.3628C100.756 48.2799 101.56 48.9163 102.457 48.9163C102.55 48.9163 102.662 48.9163 102.774 48.8976C103.783 48.7291 104.475 47.7559 104.307 46.7452C103.783 43.6382 102.494 41.0178 100.551 38.9403C102.494 36.7317 107.371 35.7958 112.94 36.6755C118.209 37.5178 123.853 40.0633 125.796 43.9751C125.721 43.9938 125.647 44.0312 125.572 44.0499C122.451 45.2291 119.966 47.9243 118.714 51.4431C118.359 52.4164 118.882 53.4832 119.854 53.8388C120.825 54.1757 121.891 53.6704 122.246 52.6971C123.124 50.2078 124.824 48.3361 126.917 47.55C129.01 46.7639 131.421 47.0821 133.925 48.4671C142.39 53.1838 140.764 59.6223 139.904 61.7935C138.148 61.3256 135.962 61.1945 133.289 61.8122C132.28 62.0368 131.664 63.0475 131.888 64.0582C132.112 65.0689 133.121 65.6866 134.13 65.462C137.101 64.7695 139.549 65.1812 141.381 66.6411C143.399 68.2695 144.576 71.1145 144.557 74.4835C144.576 78.4702 143.081 82.3258 140.951 83.9542ZM174.344 46.1837C173.858 46.4644 173.521 46.951 173.428 47.4938C169.877 68.5128 150.799 67.8764 146.688 67.4834C145.94 66.0235 144.95 64.7695 143.716 63.7962C143.586 63.6839 143.417 63.5903 143.268 63.478C144.314 60.7641 146.706 51.9297 136.503 45.7532C138.11 43.9002 141.866 40.2504 147.08 39.5205C151.434 38.9028 155.975 40.475 160.516 44.2184C161.319 44.8735 162.496 44.7612 163.15 43.9564C163.804 43.1515 163.692 41.9724 162.889 41.3173C160.553 39.4082 158.198 37.9857 155.825 37.0499C155.807 37.0311 155.788 37.0124 155.769 37.0124C148.986 34.1113 147.51 20.5229 147.51 15.5255C147.51 14.8891 147.192 14.3089 146.669 13.9533C146.146 13.6164 145.473 13.5603 144.894 13.8036C138.634 16.5737 133.644 17.079 131.178 15.1699C129.982 14.2528 129.459 12.718 129.739 10.9586C130.15 8.35697 132.112 6.07353 134.747 5.1564C140.016 3.28472 144.053 3.266 146.725 5.06282C150.088 7.34627 150.331 11.988 150.331 12.0255C150.35 12.5308 150.556 12.9987 150.929 13.3356C151.303 13.6726 151.752 13.841 152.275 13.841C161.057 13.448 170.644 31.3225 173.577 38.229C173.783 38.6969 174.157 39.0713 174.624 39.2397C176.81 40.082 178.156 41.074 178.212 41.9162C178.305 43.2077 176.025 45.2104 174.344 46.1837Z"
    fill="black" />
  <path
    d="M68.1112 179.435H64.9237C64.8327 178.912 64.6651 178.449 64.4208 178.045C64.1765 177.636 63.8725 177.29 63.5089 177.006C63.1452 176.722 62.7305 176.509 62.2646 176.366C61.8043 176.219 61.3072 176.145 60.7731 176.145C59.8242 176.145 58.9833 176.384 58.2504 176.861C57.5174 177.332 56.9435 178.026 56.5288 178.94C56.114 179.849 55.9066 180.96 55.9066 182.273C55.9066 183.608 56.114 184.733 56.5288 185.648C56.9492 186.557 57.5231 187.244 58.2504 187.71C58.9833 188.17 59.8214 188.401 60.7646 188.401C61.2873 188.401 61.7759 188.332 62.2305 188.196C62.6907 188.054 63.1026 187.847 63.4663 187.574C63.8356 187.301 64.1452 186.966 64.3952 186.568C64.6509 186.17 64.8271 185.716 64.9237 185.205L68.1112 185.222C67.9918 186.051 67.7333 186.83 67.3356 187.557C66.9435 188.284 66.4293 188.926 65.793 189.483C65.1566 190.034 64.4123 190.466 63.56 190.778C62.7077 191.085 61.7617 191.239 60.7219 191.239C59.1879 191.239 57.8185 190.884 56.614 190.173C55.4094 189.463 54.4606 188.438 53.7674 187.097C53.0742 185.756 52.7276 184.148 52.7276 182.273C52.7276 180.392 53.0771 178.784 53.7759 177.449C54.4748 176.108 55.4265 175.082 56.631 174.372C57.8356 173.662 59.1992 173.307 60.7219 173.307C61.6935 173.307 62.5969 173.443 63.4322 173.716C64.2674 173.989 65.0117 174.389 65.6651 174.918C66.3185 175.44 66.8555 176.082 67.2759 176.844C67.7021 177.599 67.9805 178.463 68.1112 179.435ZM73.9556 183.33V191H70.8704V173.545H73.8874V180.134H74.0408C74.3477 179.395 74.8221 178.812 75.4641 178.386C76.1119 177.955 76.9357 177.739 77.9357 177.739C78.8448 177.739 79.6374 177.929 80.3136 178.31C80.9897 178.69 81.5124 179.247 81.8817 179.98C82.2567 180.713 82.4442 181.608 82.4442 182.665V191H79.359V183.142C79.359 182.261 79.1317 181.577 78.6772 181.088C78.2283 180.594 77.5977 180.347 76.7852 180.347C76.2397 180.347 75.7511 180.466 75.3192 180.705C74.8931 180.937 74.5579 181.276 74.3136 181.719C74.0749 182.162 73.9556 182.699 73.9556 183.33ZM91.3846 191.256C90.0721 191.256 88.9386 190.983 87.984 190.438C87.0352 189.886 86.305 189.108 85.7937 188.102C85.2823 187.091 85.0266 185.901 85.0266 184.531C85.0266 183.185 85.2823 182.003 85.7937 180.986C86.3107 179.963 87.0323 179.168 87.9585 178.599C88.8846 178.026 89.9727 177.739 91.2227 177.739C92.0295 177.739 92.7908 177.869 93.5067 178.131C94.2283 178.386 94.8647 178.784 95.4158 179.324C95.9727 179.864 96.4102 180.551 96.7283 181.386C97.0465 182.216 97.2056 183.205 97.2056 184.352V185.298H86.4755V183.219H94.2482C94.2425 182.628 94.1147 182.102 93.8647 181.642C93.6147 181.176 93.2653 180.81 92.8164 180.543C92.3732 180.276 91.8562 180.142 91.2653 180.142C90.6346 180.142 90.0806 180.295 89.6033 180.602C89.1261 180.903 88.7539 181.301 88.4869 181.795C88.2255 182.284 88.092 182.821 88.0863 183.406V185.222C88.0863 185.983 88.2255 186.636 88.5039 187.182C88.7823 187.722 89.1715 188.136 89.6715 188.426C90.1715 188.71 90.7567 188.852 91.4272 188.852C91.8761 188.852 92.2823 188.79 92.646 188.665C93.0096 188.534 93.3249 188.344 93.592 188.094C93.859 187.844 94.0607 187.534 94.1971 187.165L97.0778 187.489C96.896 188.25 96.5494 188.915 96.038 189.483C95.5323 190.045 94.8846 190.483 94.0948 190.795C93.305 191.102 92.4016 191.256 91.3846 191.256ZM105.611 191.256C104.299 191.256 103.165 190.983 102.211 190.438C101.262 189.886 100.532 189.108 100.02 188.102C99.5089 187.091 99.2532 185.901 99.2532 184.531C99.2532 183.185 99.5089 182.003 100.02 180.986C100.537 179.963 101.259 179.168 102.185 178.599C103.111 178.026 104.199 177.739 105.449 177.739C106.256 177.739 107.017 177.869 107.733 178.131C108.455 178.386 109.091 178.784 109.642 179.324C110.199 179.864 110.637 180.551 110.955 181.386C111.273 182.216 111.432 183.205 111.432 184.352V185.298H100.702V183.219H108.475C108.469 182.628 108.341 182.102 108.091 181.642C107.841 181.176 107.492 180.81 107.043 180.543C106.6 180.276 106.083 180.142 105.492 180.142C104.861 180.142 104.307 180.295 103.83 180.602C103.353 180.903 102.98 181.301 102.713 181.795C102.452 182.284 102.319 182.821 102.313 183.406V185.222C102.313 185.983 102.452 186.636 102.73 187.182C103.009 187.722 103.398 188.136 103.898 188.426C104.398 188.71 104.983 188.852 105.654 188.852C106.103 188.852 106.509 188.79 106.873 188.665C107.236 188.534 107.551 188.344 107.819 188.094C108.086 187.844 108.287 187.534 108.424 187.165L111.304 187.489C111.123 188.25 110.776 188.915 110.265 189.483C109.759 190.045 109.111 190.483 108.321 190.795C107.532 191.102 106.628 191.256 105.611 191.256ZM114.042 191V177.909H117.034V180.091H117.17C117.409 179.335 117.818 178.753 118.397 178.344C118.983 177.929 119.65 177.722 120.4 177.722C120.571 177.722 120.761 177.73 120.971 177.747C121.187 177.759 121.366 177.778 121.508 177.807V180.645C121.377 180.599 121.17 180.56 120.886 180.526C120.608 180.486 120.338 180.466 120.076 180.466C119.514 180.466 119.008 180.588 118.559 180.832C118.116 181.071 117.767 181.403 117.511 181.83C117.255 182.256 117.127 182.747 117.127 183.304V191H114.042ZM133.904 181.369L131.092 181.676C131.012 181.392 130.873 181.125 130.674 180.875C130.481 180.625 130.22 180.423 129.89 180.27C129.561 180.116 129.157 180.04 128.68 180.04C128.038 180.04 127.498 180.179 127.061 180.457C126.629 180.736 126.416 181.097 126.422 181.54C126.416 181.92 126.555 182.23 126.839 182.469C127.129 182.707 127.606 182.903 128.271 183.057L130.504 183.534C131.743 183.801 132.663 184.224 133.265 184.804C133.873 185.384 134.18 186.142 134.186 187.08C134.18 187.903 133.939 188.631 133.461 189.261C132.99 189.886 132.333 190.375 131.493 190.727C130.652 191.08 129.686 191.256 128.595 191.256C126.993 191.256 125.703 190.92 124.725 190.25C123.748 189.574 123.166 188.634 122.978 187.429L125.987 187.139C126.123 187.73 126.413 188.176 126.856 188.477C127.299 188.778 127.876 188.929 128.586 188.929C129.319 188.929 129.907 188.778 130.35 188.477C130.799 188.176 131.024 187.804 131.024 187.361C131.024 186.986 130.879 186.676 130.589 186.432C130.305 186.187 129.862 186 129.26 185.869L127.027 185.401C125.771 185.139 124.842 184.699 124.24 184.08C123.637 183.455 123.339 182.665 123.345 181.71C123.339 180.903 123.558 180.205 124.001 179.614C124.45 179.017 125.072 178.557 125.868 178.233C126.669 177.903 127.592 177.739 128.637 177.739C130.172 177.739 131.379 178.065 132.26 178.719C133.146 179.372 133.694 180.256 133.904 181.369ZM140.505 173.545L140.224 185.869H137.48L137.207 173.545H140.505ZM138.852 191.188C138.335 191.188 137.892 191.006 137.522 190.642C137.159 190.278 136.977 189.835 136.977 189.312C136.977 188.801 137.159 188.364 137.522 188C137.892 187.636 138.335 187.455 138.852 187.455C139.358 187.455 139.795 187.636 140.164 188C140.539 188.364 140.727 188.801 140.727 189.312C140.727 189.659 140.639 189.974 140.463 190.259C140.292 190.543 140.065 190.77 139.781 190.94C139.502 191.105 139.193 191.188 138.852 191.188Z"
    fill="black" />
  <path
    d="M139.619 160.118L137.093 153.338C136.809 152.575 137.197 151.725 137.963 151.438C138.724 151.155 139.576 151.544 139.863 152.307L142.388 159.087C142.673 159.852 142.282 160.702 141.519 160.987C140.76 161.268 139.905 160.887 139.619 160.118Z"
    fill="black" />
  <path
    d="M154.422 160.75C153.647 160.494 153.227 159.658 153.483 158.884L155.757 152.017C156.012 151.241 156.847 150.814 157.622 151.078C158.397 151.334 158.816 152.17 158.561 152.944L156.287 159.811C156.027 160.596 155.179 161.005 154.422 160.75Z"
    fill="black" />
  <path
    d="M164.633 168.637C164.191 167.952 164.385 167.039 165.071 166.594L171.145 162.659C171.832 162.219 172.743 162.415 173.188 163.098C173.63 163.783 173.436 164.696 172.749 165.14L166.675 169.075C165.982 169.521 165.072 169.315 164.633 168.637Z"
    fill="black" />
  <path
    d="M55.8058 160.118L58.331 153.338C58.6157 152.575 58.2272 151.725 57.4617 151.438C56.7001 151.155 55.8481 151.544 55.5616 152.307L53.0364 159.087C52.7517 159.852 53.1421 160.702 53.9057 160.987C54.6644 161.268 55.5193 160.887 55.8058 160.118Z"
    fill="black" />
  <path
    d="M41.0026 160.75C41.7776 160.494 42.1969 159.658 41.9411 158.884L39.6678 152.017C39.412 151.241 38.5773 150.814 37.8023 151.078C37.0272 151.334 36.6079 152.17 36.8637 152.944L39.137 159.811C39.397 160.596 40.2455 161.005 41.0026 160.75Z"
    fill="black" />
  <path
    d="M30.7914 168.637C31.2337 167.952 31.0395 167.039 30.3528 166.594L24.2793 162.659C23.5927 162.219 22.6811 162.415 22.2368 163.098C21.7945 163.783 21.9887 164.696 22.6753 165.14L28.7489 169.075C29.442 169.521 30.3519 169.315 30.7914 168.637Z"
    fill="black" />
</svg>