<svg xmlns="http://www.w3.org/2000/svg" width="45" height="38" viewBox="0 0 45 38" fill="none">
  <path
    d="M32.3269 6.26258C31.9368 6.5988 31.8964 7.19842 32.2318 7.59154C34.1377 9.84609 35.504 13.313 36.0558 17.2908C36.1273 17.8244 36.6232 18.1834 37.1136 18.1214C37.1537 18.1128 37.1537 18.1128 37.1938 18.1043C37.6756 18.0019 37.9998 17.553 37.9284 17.0194C37.2822 12.5973 35.8327 8.93697 33.6488 6.36156C33.3135 5.96845 32.7171 5.92635 32.3269 6.26258Z"
    fill="#C7EFAA" />
  <path
    d="M37.3998 5.0576C37.0644 4.66449 36.468 4.6224 36.0779 4.95862C35.6878 5.29485 35.6474 5.89447 35.9827 6.28758C37.9546 8.65478 39.3553 12.2833 39.8697 16.4801C39.9411 17.0137 40.3969 17.3812 40.9274 17.3107C40.9676 17.3021 40.9676 17.3021 41.0077 17.2936C41.4895 17.1912 41.8137 16.7423 41.7508 16.2491C41.1592 11.6887 39.6009 7.7138 37.3998 5.0576Z"
    fill="#C7EFAA" />
  <path
    d="M8.28777 17.5362C8.2163 17.0026 7.72038 16.6436 7.23001 16.7056C6.6995 16.7762 6.34372 17.274 6.4066 17.7672C7.05281 22.1893 8.50223 25.8496 10.6861 28.425C10.9154 28.714 11.271 28.8073 11.5921 28.739C11.7527 28.7049 11.8646 28.6389 12.008 28.524C12.3981 28.1878 12.4385 27.5881 12.1032 27.195C10.2058 24.9809 8.84812 21.5544 8.28777 17.5362Z"
    fill="#C7EFAA" />
  <path
    d="M4.48093 18.3873C4.40946 17.8536 3.95369 17.4861 3.42317 17.5567C2.89266 17.6272 2.5283 18.0846 2.59976 18.6183C3.15128 23.1871 4.70954 27.162 6.9508 29.8097C7.18008 30.0987 7.53561 30.192 7.85679 30.1237C8.01739 30.0896 8.12925 30.0236 8.27267 29.9087C8.66279 29.5725 8.70318 28.9728 8.36785 28.5797C6.35586 26.2211 4.99532 22.5841 4.48093 18.3873Z"
    fill="#C7EFAA" />
  <path
    d="M33.6195 24.1836C35.0999 22.2647 34.129 19.4737 32.9172 16.7338C31.4733 13.4945 27.4109 4.6481 27.4109 4.6481C27.0385 3.88293 26.1239 3.52851 25.3639 3.90114C24.5953 4.23339 24.2536 5.19256 24.6261 5.95774L27.5769 12.3385C27.7087 12.5638 27.5997 12.8403 27.3759 12.9723L27.3358 12.9808C27.1121 13.1128 26.7967 13.011 26.6649 12.7857L22.2121 4.86659C21.7995 4.10995 20.8132 3.81299 20.1105 4.25788C19.3591 4.6709 19.1063 5.6534 19.5103 6.36965L23.9631 14.2887C24.0949 14.514 23.9944 14.8309 23.7707 14.9629C23.547 15.0949 23.2803 15.0249 23.1571 14.84L17.0931 6.25019C16.6088 5.55101 15.6482 5.37523 14.9541 5.86051C14.2686 6.38618 14.0961 7.35161 14.5804 8.05079L20.4467 16.3027C20.6187 16.5194 20.5182 16.8363 20.2629 17.0172L20.1109 17.0917C19.9273 17.2152 19.6693 17.1856 19.5059 17.0092L13.9628 10.6728C13.4068 10.0311 12.4319 9.98507 11.7549 10.5511C11.1181 11.1086 11.0833 12.1292 11.6393 12.771C11.6393 12.771 16.2395 17.8302 17.1566 18.9862C18.0078 20.0296 18.4835 20.6884 19.1484 21.6447C19.5095 22.159 19.1249 22.9162 18.4884 22.8826C18.3192 22.8764 18.1901 22.8616 18.1414 22.8297C18.0525 22.8064 17.9149 22.7512 17.7773 22.696C17.1064 22.5009 16.0628 22.1317 15.4005 21.9769C14.3425 21.7374 13.4993 21.9166 13.0918 22.7632C12.6527 23.6586 13.0537 24.7555 13.9683 25.1099C13.9683 25.1099 19.7078 28.0272 22.658 28.8777C23.6845 29.1661 24.9432 29.363 25.9785 29.1007L27.9614 32.3099C28.3397 32.9049 29.0909 33.083 29.6904 32.7445L35.2088 29.2918C35.7997 28.9129 36.0151 28.1494 35.6282 27.514L33.6195 24.1836Z"
    fill="#C7EFAA" />
</svg>